<svg width="21" height="21" viewBox="0 0 21 21" fill="none" xmlns="http://www.w3.org/2000/svg">
<g clip-path="url(#clip0_1690_92951)">
<path d="M0.61432 16.0376H16.6932C16.8374 16.0376 16.9768 15.9871 17.0873 15.8951C17.2417 15.7658 20.7646 12.7352 20.9794 6.19336H3.71106C3.49707 12.1316 0.252669 14.9228 0.218953 14.9506C0.0212898 15.1177 -0.0514342 15.3905 0.0374917 15.6332C0.125802 15.8753 0.355951 16.0376 0.61432 16.0376Z" fill="white"/>
<path d="M20.3875 2.50201H17.3112V1.88675C17.3112 1.5422 17.0404 1.27148 16.6959 1.27148C16.3513 1.27148 16.0806 1.5422 16.0806 1.88675V2.50201H12.9633V1.88675C12.9633 1.5422 12.6926 1.27148 12.348 1.27148C12.0035 1.27148 11.7328 1.5422 11.7328 1.88675V2.50201H8.65647V1.88675C8.65647 1.5422 8.38576 1.27148 8.04121 1.27148C7.69666 1.27148 7.42595 1.5422 7.42595 1.88675V2.50201H4.34964C4.00509 2.50201 3.73438 2.77272 3.73438 3.11727V4.96306H21.0027V3.11727C21.0027 2.77272 20.732 2.50201 20.3875 2.50201Z" fill="white"/>
<path d="M17.8802 16.8383C17.5461 17.1165 17.1267 17.2679 16.6959 17.2679H3.73438V19.1137C3.73438 19.4538 4.00956 19.729 4.34964 19.729H20.3875C20.7275 19.729 21.0027 19.4538 21.0027 19.1137V12.2168C19.8165 15.127 18.1612 16.6031 17.8802 16.8383Z" fill="white"/>
</g>
<defs>
<clipPath id="clip0_1690_92951">
<rect width="21" height="21" fill="white"/>
</clipPath>
</defs>
</svg>
