<svg width="22" height="22" viewBox="0 0 22 22" fill="none" xmlns="http://www.w3.org/2000/svg">
<g clip-path="url(#clip0_1510_218486)">
<path d="M20.8047 17.4333L4.60821 1.23681C3.90184 0.530438 2.75663 0.530438 2.05136 1.23681L1.19775 2.0891C0.491375 2.79569 0.491375 3.9409 1.19775 4.64617L17.3943 20.8427C18.1008 21.549 19.2461 21.549 19.9513 20.8427L20.8036 19.9904C21.5113 19.2851 21.5113 18.1397 20.8047 17.4333Z" fill="#ABABAB"/>
<path d="M17.3943 1.23665L1.19775 17.4331C0.491375 18.1395 0.491375 19.285 1.19775 19.9902L2.05003 20.8425C2.75663 21.5489 3.90184 21.5489 4.60711 20.8425L20.8047 4.64711C21.5113 3.94074 21.5113 2.79553 20.8047 2.09026L19.9524 1.23797C19.2461 0.530272 18.1008 0.530272 17.3943 1.23665Z" fill="#ABABAB"/>
</g>
<defs>
<clipPath id="clip0_1510_218486">
<rect width="20.6667" height="20.6667" fill="white" transform="translate(0.667969 0.666016)"/>
</clipPath>
</defs>
</svg>
