<svg width="27" height="28" viewBox="0 0 27 28" fill="none" xmlns="http://www.w3.org/2000/svg">
<g clip-path="url(#clip0_1510_217654)">
<path d="M13.5008 27.0606C20.7031 27.0606 26.5781 21.1931 26.5781 13.9983C26.5781 6.80346 20.7031 0.9375 13.5008 0.9375C6.29844 0.9375 0.421875 6.80504 0.421875 13.9983C0.421875 21.1915 6.29685 27.0606 13.5008 27.0606Z" fill="#FB8500"/>
<path d="M13.5008 0.9375C6.29685 0.9375 0.421875 6.80504 0.421875 13.9983C0.421875 21.1915 6.29685 27.0606 13.5008 27.0606C20.7047 27.0606 26.5781 21.1931 26.5781 13.9983C26.5781 6.80346 20.7031 0.9375 13.5008 0.9375ZM13.5008 23.9699C8.00123 23.9699 3.51643 19.4908 3.51643 13.9982C3.51643 8.50562 8.00123 4.02652 13.5008 4.02652C19.0004 4.02652 23.4851 8.5072 23.4851 13.9982C23.4851 19.4892 18.9988 23.9699 13.5008 23.9699Z" fill="#FFB703"/>
<path d="M20.0517 11.8304C20.0154 11.7187 19.9203 11.6363 19.8045 11.6163L15.7151 10.9117L13.7803 7.24492C13.7255 7.14114 13.6178 7.07617 13.5004 7.07617C13.383 7.07617 13.2754 7.14114 13.2206 7.24492L11.2857 10.9117L7.19629 11.6163C7.08054 11.6363 6.98536 11.7187 6.94908 11.8304C6.91279 11.9421 6.94138 12.0647 7.02333 12.1489L9.91649 15.1201L9.3245 19.2221C9.30773 19.3383 9.35666 19.4542 9.45164 19.5232C9.50669 19.5632 9.57198 19.5837 9.63768 19.5837C9.68525 19.5837 9.73303 19.573 9.77727 19.5512L13.5004 17.72L17.2234 19.5512C17.3289 19.603 17.4542 19.5922 17.5491 19.5232C17.6441 19.4541 17.693 19.3382 17.6762 19.2221L17.0843 15.12L19.9774 12.1488C20.0594 12.0647 20.088 11.9421 20.0517 11.8304L20.0517 11.8304Z" fill="#FCD227"/>
<path d="M4.26172 4.76976L6.44777 6.95302C8.2564 5.14665 10.7523 4.02657 13.502 4.02657V0.9375C9.90039 0.9375 6.63092 2.4041 4.26172 4.76976Z" fill="#FCD227"/>
<path d="M22.7403 23.2262L20.5542 21.043C18.7454 22.8495 16.2491 23.9694 13.5 23.9694V27.0601C17.1015 27.0601 20.3711 25.5929 22.7402 23.2263L22.7403 23.2262Z" fill="#FCD227"/>
<path d="M22.7403 4.76953L20.5547 6.95242C22.3635 8.75894 23.4851 11.2519 23.4851 13.9974H26.5781C26.5781 10.4008 25.1094 7.13556 22.7403 4.76953Z" fill="#FCD227"/>
<path d="M4.25983 23.2273L6.44625 21.0436C4.63762 19.2373 3.51638 16.7443 3.51638 13.998H0.421875C0.421875 17.5954 1.89063 20.8611 4.25983 23.2273Z" fill="#FCD227"/>
</g>
<defs>
<clipPath id="clip0_1510_217654">
<rect width="27" height="27" fill="white" transform="translate(0 0.5)"/>
</clipPath>
</defs>
</svg>
