<svg width="40" height="41" viewBox="0 0 40 41" fill="none" xmlns="http://www.w3.org/2000/svg">
<g clip-path="url(#clip0_1690_37155)">
<path d="M32.5191 1.5H12.2475C10.6307 1.5 9.29629 2.58649 8.88281 4.04325H27.7493C30.9059 4.04325 33.474 6.61137 33.474 9.76797V34.5979C34.9535 34.1804 36.0173 32.8179 36.0173 31.232V4.99815C36.0173 3.0433 34.4297 1.5 32.5191 1.5Z" fill="white"/>
<path d="M24.2518 24.3329V16.6684L17.6142 12.8359L10.9766 16.6684V24.3329L17.6142 28.1653L24.2518 24.3329ZM16.6878 25.2921L13.9052 21.1179C13.6559 20.7439 13.6559 20.2567 13.9052 19.8827L16.6878 15.7092C17.1087 15.0536 18.1197 15.0537 18.5404 15.7092L21.323 19.8827C21.5723 20.2567 21.5723 20.7439 21.323 21.1179L18.5404 25.2921C18.1197 25.9476 17.1086 25.9475 16.6878 25.2921Z" fill="white"/>
<path d="M27.7503 6.26953H7.47862C5.524 6.26953 3.98047 7.85707 3.98047 9.76768V36.0016C3.98047 37.9563 5.56801 39.4997 7.47862 39.4997H27.7503C29.7052 39.4997 31.2484 37.912 31.2484 36.0016V9.76768C31.2484 7.81284 29.6608 6.26953 27.7503 6.26953ZM8.75029 16.025C8.75029 15.6273 8.96248 15.2597 9.30693 15.0609L17.0578 10.5856C17.4023 10.3867 17.8266 10.3867 18.1712 10.5856L25.9221 15.0609C26.2665 15.2598 26.4787 15.6273 26.4787 16.025V24.9749C26.4787 25.3726 26.2665 25.7402 25.9221 25.939L18.1712 30.4142C17.8266 30.6131 17.4023 30.6131 17.0578 30.4142L9.30693 25.939C8.96248 25.7401 8.75029 25.3726 8.75029 24.9749V16.025ZM25.3653 34.7299H9.86357C8.38802 34.6751 8.38914 32.5576 9.86357 32.5033H25.3653C26.8409 32.5581 26.8398 34.6757 25.3653 34.7299Z" fill="white"/>
<path d="M19.0572 20.5007L17.6126 18.334L16.168 20.5007L17.6126 22.6677L19.0572 20.5007Z" fill="white"/>
</g>
<defs>
<clipPath id="clip0_1690_37155">
<rect width="38" height="38" fill="white" transform="translate(1 1.5)"/>
</clipPath>
</defs>
</svg>
