<svg width="17" height="17" viewBox="0 0 17 17" fill="none" xmlns="http://www.w3.org/2000/svg">
<path d="M14.9521 16.9277H5.9873C4.89677 16.9277 4.00977 16.0407 4.00977 14.9502V5.98535C4.00977 4.89482 4.89677 4.00781 5.9873 4.00781H14.9521C16.0427 4.00781 16.9297 4.89482 16.9297 5.98535V14.9502C16.9297 16.0407 16.0427 16.9277 14.9521 16.9277ZM5.9873 5.32617C5.62383 5.32617 5.32812 5.62188 5.32812 5.98535V14.9502C5.32812 15.3137 5.62383 15.6094 5.9873 15.6094H14.9521C15.3156 15.6094 15.6113 15.3137 15.6113 14.9502V5.98535C15.6113 5.62188 15.3156 5.32617 14.9521 5.32617H5.9873ZM2.69141 11.6543H2.03223C1.66875 11.6543 1.37305 11.3586 1.37305 10.9951V2.03027C1.37305 1.6668 1.66875 1.37109 2.03223 1.37109H10.9971C11.3605 1.37109 11.6562 1.6668 11.6562 2.03027V2.65649H12.9746V2.03027C12.9746 0.939743 12.0876 0.0527344 10.9971 0.0527344H2.03223C0.941696 0.0527344 0.0546875 0.939743 0.0546875 2.03027V10.9951C0.0546875 12.0856 0.941696 12.9727 2.03223 12.9727H2.69141V11.6543Z" fill="#E1CFFF"/>
</svg>
