<svg width="40" height="41" viewBox="0 0 40 41" fill="none" xmlns="http://www.w3.org/2000/svg">
<g clip-path="url(#clip0_1690_37173)">
<path fill-rule="evenodd" clip-rule="evenodd" d="M23.5086 4.58594C25.4073 5.00614 27.1815 5.75317 28.7534 6.76477C28.5978 6.93596 28.4577 7.10715 28.3488 7.27835C26.8547 6.34456 25.205 5.64423 23.4308 5.25515C23.4775 5.03727 23.5086 4.81938 23.5086 4.58594ZM16.552 5.25515C14.7933 5.64423 13.1281 6.34456 11.6496 7.27835C11.5251 7.10715 11.385 6.93596 11.2294 6.76477C12.8168 5.75317 14.591 5.00614 16.4897 4.58594C16.4897 4.81938 16.5053 5.03727 16.552 5.25515ZM6.77835 12.1496C5.84456 13.6281 5.14423 15.2933 4.75515 17.052C4.53727 17.0053 4.31938 16.9897 4.08594 16.9897C4.50614 15.091 5.25317 13.3168 6.26477 11.7294C6.43596 11.885 6.60715 12.0251 6.77835 12.1496ZM4.75515 23.9308C5.14423 25.705 5.84456 27.3547 6.77835 28.8488C6.60715 28.9577 6.43596 29.0978 6.26477 29.2534C5.25317 27.6815 4.50614 25.9073 4.08594 24.0086C4.31938 24.0086 4.53727 23.9775 4.75515 23.9308ZM33.718 11.7294C34.7296 13.3168 35.4766 15.091 35.8968 16.9897C35.679 16.9897 35.4611 17.0053 35.2432 17.052C34.8386 15.2933 34.1538 13.6281 33.2044 12.1496C33.3912 12.0251 33.5624 11.885 33.718 11.7294ZM35.8968 24.0086C35.4766 25.9073 34.7296 27.6815 33.718 29.2534C33.5624 29.0978 33.3912 28.9577 33.2044 28.8488C34.1538 27.3547 34.8386 25.705 35.2432 23.9308C35.4611 23.9775 35.679 24.0086 35.8968 24.0086ZM28.7534 34.218C27.1815 35.2296 25.4073 35.9766 23.5086 36.3968C23.5086 36.179 23.4775 35.9611 23.4308 35.7432C25.205 35.3386 26.8547 34.6538 28.3488 33.7044C28.4577 33.8912 28.5978 34.0624 28.7534 34.218ZM16.4897 36.3968C14.591 35.9766 12.8168 35.2296 11.2294 34.218C11.385 34.0624 11.5251 33.8912 11.6496 33.7044C13.1281 34.6538 14.7933 35.3386 16.552 35.7432C16.5053 35.9611 16.4897 36.179 16.4897 36.3968Z" fill="white"/>
<path d="M19.9925 7.40299C21.574 7.40299 22.8561 6.12091 22.8561 4.53939C22.8561 2.95786 21.574 1.67578 19.9925 1.67578C18.411 1.67578 17.1289 2.95786 17.1289 4.53939C17.1289 6.12091 18.411 7.40299 19.9925 7.40299Z" fill="white"/>
<path d="M33.0804 20.4969C33.0804 22.0819 34.3653 23.3669 35.9504 23.3669C37.5354 23.3669 38.8203 22.0819 38.8203 20.4969C38.8203 18.9119 37.5354 17.627 35.9504 17.627C34.3653 17.627 33.0804 18.9119 33.0804 20.4969Z" fill="white"/>
<path d="M19.9925 39.3073C21.574 39.3073 22.8561 38.0252 22.8561 36.4437C22.8561 34.8622 21.574 33.5801 19.9925 33.5801C18.411 33.5801 17.1289 34.8622 17.1289 36.4437C17.1289 38.0252 18.411 39.3073 19.9925 39.3073Z" fill="white"/>
<path d="M6.91178 20.4953C6.91178 18.9102 5.62686 17.6253 4.04183 17.6253C2.4568 17.6253 1.17188 18.9102 1.17188 20.4953C1.17188 22.0803 2.4568 23.3652 4.04183 23.3652C5.62686 23.3652 6.91178 22.0803 6.91178 20.4953Z" fill="white"/>
<path d="M10.744 11.2441C11.8647 10.1234 11.8647 8.30632 10.744 7.18561C9.62325 6.06489 7.8062 6.06489 6.68549 7.18561C5.56477 8.30632 5.56477 10.1234 6.68549 11.2441C7.8062 12.3648 9.62325 12.3648 10.744 11.2441Z" fill="white"/>
<path d="M29.2481 11.244C30.3688 12.3647 32.1859 12.3647 33.3066 11.244C34.4273 10.1232 34.4273 8.3062 33.3066 7.18549C32.1859 6.06477 30.3688 6.06477 29.2481 7.18549C28.1274 8.3062 28.1274 10.1232 29.2481 11.244Z" fill="white"/>
<path d="M29.2482 29.7481C28.1275 30.8688 28.1275 32.6859 29.2482 33.8066C30.3689 34.9273 32.186 34.9273 33.3067 33.8066C34.4274 32.6859 34.4274 30.8688 33.3067 29.7481C32.186 28.6274 30.3689 28.6274 29.2482 29.7481Z" fill="white"/>
<path d="M10.7441 29.7482C9.62336 28.6275 7.80632 28.6275 6.68561 29.7482C5.56489 30.8689 5.56489 32.686 6.68561 33.8067C7.80632 34.9274 9.62336 34.9274 10.7441 33.8067C11.8648 32.686 11.8648 30.8689 10.7441 29.7482Z" fill="white"/>
<path fill-rule="evenodd" clip-rule="evenodd" d="M14.8224 14.857L13.375 13.4252C15.0402 11.8689 17.2346 10.904 19.6625 10.8262V12.8494C17.7949 12.9272 16.1141 13.6742 14.8224 14.857Z" fill="white"/>
<path fill-rule="evenodd" clip-rule="evenodd" d="M12.3474 20.1644H10.3242C10.402 17.7366 11.3669 15.5422 12.9233 13.877L14.3551 15.3243C13.1723 16.6161 12.4252 18.2969 12.3474 20.1644Z" fill="white"/>
<path fill-rule="evenodd" clip-rule="evenodd" d="M14.3551 25.674L12.9233 27.1058C11.3669 25.4562 10.402 23.2462 10.3242 20.8184H12.3474C12.4252 22.6859 13.1723 24.3823 14.3551 25.674Z" fill="white"/>
<path fill-rule="evenodd" clip-rule="evenodd" d="M19.6625 28.1326V30.1714C17.2346 30.0936 15.0402 29.1131 13.375 27.5724L14.8224 26.125C16.1141 27.3078 17.7949 28.0548 19.6625 28.1326Z" fill="white"/>
<path fill-rule="evenodd" clip-rule="evenodd" d="M25.1721 26.125L26.6039 27.5724C24.9542 29.1131 22.7442 30.0936 20.3164 30.1714V28.1326C22.184 28.0548 23.8803 27.3078 25.1721 26.125Z" fill="white"/>
<path fill-rule="evenodd" clip-rule="evenodd" d="M27.6326 20.8184H29.6714C29.5936 23.2462 28.6131 25.4562 27.0724 27.1058L25.625 25.674C26.8078 24.3823 27.5548 22.6859 27.6326 20.8184Z" fill="white"/>
<path fill-rule="evenodd" clip-rule="evenodd" d="M25.625 15.3243L27.0724 13.877C28.6131 15.5422 29.5936 17.7366 29.6714 20.1644H27.6326C27.5548 18.2969 26.8078 16.6161 25.625 15.3243Z" fill="white"/>
<path fill-rule="evenodd" clip-rule="evenodd" d="M20.3164 10.8262C22.7442 10.904 24.9542 11.8689 26.6039 13.4252L25.1721 14.857C23.8803 13.6742 22.184 12.9272 20.3164 12.8494V10.8262Z" fill="white"/>
<path fill-rule="evenodd" clip-rule="evenodd" d="M19.9917 13.4883C23.8669 13.4883 26.995 16.632 26.995 20.4917C26.995 24.3669 23.8669 27.495 19.9917 27.495C16.132 27.495 12.9883 24.3669 12.9883 20.4917C12.9883 16.632 16.132 13.4883 19.9917 13.4883ZM19.9917 14.78L16.49 20.6006L19.9917 22.6705L23.5089 20.6006L19.9917 14.78ZM19.9917 23.3397L16.49 21.2698L19.9917 26.2189L23.5089 21.2698L19.9917 23.3397Z" fill="white"/>
</g>
<defs>
<clipPath id="clip0_1690_37173">
<rect width="37.6471" height="37.6471" fill="white" transform="translate(1.17578 1.67578)"/>
</clipPath>
</defs>
</svg>
