<svg width="29" height="28" viewBox="0 0 29 28" fill="none" xmlns="http://www.w3.org/2000/svg">
<circle cx="14.5" cy="14" r="13" fill="#5500DF" stroke="#141414" stroke-width="2"/>
<path d="M14.3808 13.1338L13.7833 14.9269C13.7485 15.0369 13.7445 15.1543 13.7719 15.2664C13.7992 15.3784 13.8568 15.4808 13.9384 15.5624C14.02 15.6439 14.1225 15.7014 14.2345 15.7287C14.3466 15.756 14.464 15.7519 14.574 15.7169L16.3671 15.1194C16.4588 15.0886 16.5422 15.0371 16.6108 14.9688L20.8208 10.7588C21.0964 10.483 21.2511 10.109 21.2511 9.71914C21.2511 9.32925 21.0964 8.95531 20.8208 8.67945C20.5448 8.40443 20.1711 8.25 19.7815 8.25C19.3918 8.25 19.0181 8.40443 18.7421 8.67945L14.5321 12.8901C14.4635 12.9585 14.4117 13.0419 14.3808 13.1338Z" fill="white"/>
<path d="M20.625 12.625C20.4592 12.625 20.3003 12.6908 20.1831 12.8081C20.0658 12.9253 20 13.0842 20 13.25V17.625C20 18.1223 19.8025 18.5992 19.4508 18.9508C19.0992 19.3025 18.6223 19.5 18.125 19.5H11.875C11.3777 19.5 10.9008 19.3025 10.5492 18.9508C10.1975 18.5992 10 18.1223 10 17.625V11.375C10 10.8777 10.1975 10.4008 10.5492 10.0492C10.9008 9.69754 11.3777 9.5 11.875 9.5H16.25C16.4158 9.5 16.5747 9.43415 16.6919 9.31694C16.8092 9.19973 16.875 9.04076 16.875 8.875C16.875 8.70924 16.8092 8.55027 16.6919 8.43306C16.5747 8.31585 16.4158 8.25 16.25 8.25H11.875C11.0465 8.25099 10.2522 8.58055 9.66639 9.16639C9.08055 9.75222 8.75099 10.5465 8.75 11.375V17.625C8.75099 18.4535 9.08055 19.2478 9.66639 19.8336C10.2522 20.4194 11.0465 20.749 11.875 20.75H18.125C18.9535 20.749 19.7478 20.4194 20.3336 19.8336C20.9194 19.2478 21.249 18.4535 21.25 17.625V13.25C21.25 13.0842 21.1842 12.9253 21.0669 12.8081C20.9497 12.6908 20.7908 12.625 20.625 12.625Z" fill="white"/>
</svg>
