<svg width="56" height="66" viewBox="0 0 56 66" fill="none" xmlns="http://www.w3.org/2000/svg">
<g filter="url(#filter0_di_1690_29799)">
<path d="M42 44.354C42 46.3655 40.3968 47.998 38.4214 47.998L17.0786 47.998C15.1032 47.998 13.5 46.3655 13.5 44.354L13.5 13.6421C13.5 11.6306 15.1032 9.99805 17.0786 9.99805L38.4214 9.99805C40.3968 9.99805 42 11.6306 42 13.6421L42 44.354Z" fill="#FFF4E3"/>
</g>
<path d="M26.7091 27.9349C26.7091 27.9568 26.7091 27.9641 26.6948 27.986C26.6519 28.0807 26.566 28.19 26.4515 28.2119C26.337 28.2411 26.2081 28.19 26.0507 28.037C26.0435 28.037 26.022 28.0078 26.0149 27.9933C26.0149 27.986 26.0077 27.8766 25.9791 27.6944C25.9433 27.5122 25.8789 27.2498 25.7787 26.9437C25.6785 26.6595 25.5497 26.3389 25.385 26.0109C25.2133 25.6902 25.0129 25.3622 24.7838 25.0853C24.6622 24.9541 24.5405 24.8302 24.4188 24.7428C24.3568 24.699 24.2948 24.6626 24.2327 24.6335C24.2184 24.6262 24.2041 24.6189 24.1898 24.6116L24.1755 24.6043L24.1468 24.597C24.1182 24.5897 24.0753 24.5824 24.0395 24.5679C23.7389 24.495 23.4454 24.4731 23.2236 24.4731C22.8586 24.4804 22.6367 24.5241 22.6367 24.5241C22.6367 24.5241 22.3933 24.5314 22.0856 24.6116C21.9281 24.6553 21.7563 24.7136 21.5989 24.7938C21.4343 24.8739 21.2911 24.9833 21.1766 25.0999C20.9905 25.3112 20.919 25.5007 20.8689 25.61C20.8188 25.7194 20.7901 25.7558 20.7543 25.7194C20.7257 25.6829 20.6971 25.5736 20.7042 25.4205C20.7114 25.2602 20.7615 25.0562 20.876 24.8594C20.8617 24.874 20.919 24.7573 21.0478 24.6116C21.1838 24.4585 21.3985 24.2836 21.6275 24.1597C22.0999 23.8974 22.6295 23.8172 22.6295 23.8099C22.6295 23.8172 22.8514 23.7734 23.2236 23.7734C23.4741 23.7734 23.8033 23.788 24.1826 23.8828C24.2256 23.8925 24.2709 23.9046 24.3186 23.9192C24.3473 23.9265 24.3687 23.9338 24.4045 23.9411C24.4331 23.9557 24.4618 23.9629 24.4904 23.9775C24.6001 24.0261 24.7003 24.0844 24.791 24.1524C24.9771 24.2836 25.1417 24.4367 25.2849 24.6043C25.5711 24.9396 25.8002 25.3112 25.9863 25.6756C26.1795 26.04 26.3226 26.3972 26.43 26.7106C26.5445 27.0458 26.6161 27.3446 26.659 27.5632C26.6948 27.7819 26.7091 27.9204 26.7091 27.9349Z" fill="#D62C2B"/>
<path d="M24.4649 22.6733C24.4792 22.6879 24.4864 22.6879 24.5007 22.717C24.5508 22.7972 24.5866 22.9211 24.558 23.0377C24.5222 23.1543 24.422 23.249 24.2001 23.3001C24.1929 23.3001 24.1572 23.3073 24.1428 23.3001C24.1285 23.2928 24.0283 23.2345 23.8637 23.1616C23.6919 23.0814 23.4486 22.9867 23.1695 22.9284C22.9905 22.8992 22.7687 22.8847 22.5611 22.9211C22.3607 22.9503 22.1818 23.0377 22.0744 23.1106C21.9456 23.1981 21.8525 23.2928 21.7881 23.3657C21.7237 23.4313 21.6951 23.475 21.6951 23.475C21.6951 23.475 21.5376 23.6426 21.3802 23.9268C21.2156 24.2111 21.0652 24.6265 20.9722 24.9763C20.9006 25.2824 20.8648 25.4865 20.8291 25.6031C20.7933 25.7197 20.7646 25.7562 20.7289 25.7197C20.6573 25.6614 20.5857 25.3261 20.6 24.9034C20.5857 24.9472 20.6 24.4516 20.7503 23.9414C20.8148 23.6936 20.9221 23.4385 21.0223 23.2636C21.1225 23.0814 21.2156 22.9648 21.2156 22.9648C21.2156 22.9648 21.2513 22.9138 21.3301 22.8336C21.4088 22.7535 21.5233 22.6369 21.6951 22.5203C21.8525 22.4182 22.1245 22.2798 22.4323 22.2287C22.74 22.1704 23.0621 22.1923 23.2911 22.236C23.6633 22.3089 23.9424 22.4255 24.1428 22.513C24.3432 22.6077 24.4506 22.6733 24.4649 22.6733Z" fill="#D62C2B"/>
<path d="M24.6279 22.8009C24.6279 22.8082 24.6279 22.8155 24.6136 22.8228C24.5635 22.8666 24.4776 22.9175 24.3702 22.9394C24.2557 22.954 24.1197 22.9321 23.9622 22.8738C23.9622 22.8738 23.9408 22.8666 23.9336 22.8593C23.9336 22.852 23.9336 22.6989 23.8549 22.4949C23.7833 22.2908 23.6187 22.043 23.3825 21.8608C23.1463 21.6786 22.86 21.562 22.6382 21.5182C22.4163 21.4672 22.2588 21.4672 22.2588 21.4672C22.2588 21.4672 22.1658 21.4454 22.0298 21.4235C21.8867 21.4016 21.7149 21.3944 21.5574 21.3944C21.4214 21.4016 21.3355 21.4016 21.2711 21.3944C21.2139 21.3871 21.1781 21.3579 21.1781 21.3215C21.1709 21.2486 21.2711 21.1174 21.4429 21.0154C21.4214 21.0154 21.6218 20.9061 21.8509 20.8478C22.0799 20.7822 22.3304 20.7676 22.3304 20.7676C22.3304 20.7676 22.5308 20.7676 22.8243 20.8405C23.1105 20.9061 23.497 21.0591 23.8191 21.3142C23.9837 21.4454 24.134 21.5984 24.2485 21.7588C24.363 21.9264 24.4489 22.094 24.5062 22.2543C24.6207 22.5604 24.6207 22.7937 24.6279 22.8009Z" fill="#D62C2B"/>
<path d="M27.7972 22.2919C27.8044 22.3064 27.8044 22.3137 27.7901 22.3429C27.7615 22.4376 27.6899 22.5542 27.5825 22.5979C27.4752 22.649 27.332 22.6198 27.1603 22.4814C27.1531 22.4814 27.1245 22.4522 27.1173 22.4449C27.1173 22.4303 27.0958 22.321 27.0386 22.1534C26.9885 21.9858 26.8883 21.7525 26.7165 21.5193C26.5948 21.359 26.4302 21.1914 26.2298 21.0456C26.0223 20.8925 25.7789 20.7686 25.5284 20.6739C25.2708 20.5719 25.0059 20.499 24.7697 20.4407C24.5336 20.3897 24.3188 20.3678 24.1471 20.3532C23.7892 20.3386 23.5745 20.3751 23.5745 20.3751C23.5745 20.3751 23.3383 20.3751 23.0162 20.448C22.8588 20.4844 22.6798 20.5427 22.5009 20.6156C22.322 20.6885 22.143 20.7759 21.9784 20.8561C21.6993 20.9946 21.5061 21.0893 21.3844 21.1185C21.2627 21.1476 21.2198 21.1258 21.2341 21.082C21.2412 21.0383 21.3057 20.9654 21.4059 20.8634C21.4989 20.7686 21.6349 20.6448 21.7852 20.5136C21.7637 20.5209 21.8496 20.4552 21.9928 20.3459C22.1359 20.2366 22.3506 20.0981 22.5796 19.9888C22.8087 19.8722 23.0663 19.7775 23.2596 19.7337C23.4528 19.6827 23.5888 19.6681 23.5888 19.6609C23.5816 19.6681 23.8178 19.6317 24.19 19.6536C24.3833 19.6609 24.6266 19.69 24.8986 19.7483C25.1705 19.8066 25.4568 19.8941 25.7574 20.0034C26.0509 20.12 26.3515 20.2731 26.6163 20.4625C26.8811 20.652 27.1102 20.878 27.2676 21.0966C27.4966 21.4027 27.6255 21.7088 27.697 21.9275C27.7686 22.1461 27.7901 22.2773 27.7972 22.2919Z" fill="#D62C2B"/>
<path d="M26.7084 23.5408C26.7156 23.5481 26.7156 23.5554 26.7084 23.5699C26.6512 23.672 26.4865 23.8979 26.143 23.8979C26.1358 23.8979 26.1144 23.8906 26.1072 23.8906C26.1 23.876 25.9998 23.7011 25.871 23.4315C25.7422 23.1691 25.5919 22.8193 25.4201 22.4986C25.2555 22.1779 25.0694 21.8864 24.9048 21.7042C24.7402 21.5147 24.6113 21.4273 24.6185 21.4273C24.6113 21.4273 24.5469 21.3471 24.4396 21.2524C24.3322 21.1503 24.1819 21.0337 24.0459 20.9389C23.9242 20.8661 23.8455 20.8151 23.7954 20.7713C23.7525 20.7276 23.7453 20.6912 23.7596 20.6547C23.8026 20.5964 23.96 20.5527 24.1604 20.5673C24.1461 20.56 24.3823 20.5818 24.6113 20.6693C24.8547 20.7495 25.0694 20.8952 25.0694 20.8952C25.0694 20.8952 25.2412 21.0264 25.4487 21.2596C25.6563 21.5002 25.871 21.8427 26.0428 22.1852C26.2217 22.535 26.3792 22.8776 26.5008 23.1254C26.6154 23.3732 26.7084 23.5335 26.7084 23.5408Z" fill="#D62C2B"/>
<path d="M28.7 24.0229C28.7 24.0302 28.6928 24.0375 28.6713 24.0448C28.6069 24.0739 28.5067 24.1249 28.3922 24.1395C28.3349 24.1395 28.2705 24.1322 28.2133 24.0885C28.156 24.0448 28.0916 23.9646 28.063 23.8261C28.0558 23.8188 28.0558 23.7678 28.063 23.7459C28.0701 23.7386 28.1202 23.5783 28.2848 23.3742C28.4495 23.1629 28.7357 22.9443 29.0865 22.7985C29.4658 22.6454 29.9167 22.558 30.3891 22.5434C30.8686 22.5288 31.3625 22.5798 31.8491 22.7256C32.0853 22.7985 32.3215 22.8933 32.5434 23.039C32.6579 23.1119 32.7653 23.192 32.8583 23.3014C32.9514 23.3888 33.0301 23.4982 33.0945 23.6075C33.2305 23.8261 33.3021 24.0739 33.3235 24.2925C33.3522 24.5112 33.3378 24.7153 33.3092 24.8829C33.2663 25.1161 33.209 25.2837 33.1661 25.4076C33.116 25.5242 33.0873 25.5825 33.0873 25.5825C33.0873 25.5825 32.9585 25.8522 32.7295 26.1583C32.5076 26.4644 32.1784 26.8069 31.8849 27.0547C31.6416 27.2734 31.4627 27.3827 31.3553 27.441C31.2408 27.492 31.1907 27.4847 31.1978 27.441C31.1978 27.3463 31.3982 27.0839 31.6201 26.7705C31.5843 26.7996 31.8778 26.4352 32.1068 26.0417C32.2285 25.8449 32.3287 25.6409 32.3931 25.4805C32.4575 25.3275 32.4933 25.2254 32.4933 25.2254C32.4861 25.2254 32.572 25.0505 32.6293 24.759C32.6651 24.533 32.6651 24.2488 32.5148 23.9937C32.479 23.9208 32.436 23.8626 32.3716 23.797C32.3239 23.7435 32.2643 23.6925 32.1927 23.6439C32.0495 23.5492 31.8635 23.469 31.6702 23.4034C31.2766 23.2868 30.84 23.2358 30.432 23.2431C30.0169 23.2576 29.6376 23.3378 29.3513 23.4544C29.0865 23.5637 28.9075 23.7095 28.8216 23.8188C28.7286 23.9354 28.7071 24.0156 28.7 24.0229Z" fill="#D62C2B"/>
<path d="M28.1631 26.0611C28.1488 26.0683 28.1488 26.0756 28.1201 26.0829C28.0414 26.1048 27.9197 26.1266 27.8124 26.0902C27.705 26.0465 27.6048 25.9444 27.5977 25.6894C27.5977 25.6821 27.6048 25.6383 27.612 25.6238C27.6335 25.6019 27.9269 25.1938 28.478 24.7346C28.7786 24.4941 29.2009 24.1953 29.6947 24.0277C29.9381 23.9402 30.2029 23.8965 30.4462 23.8965C30.6896 23.8965 30.9186 23.9475 31.0832 24.0131C31.2121 24.0568 31.3266 24.1297 31.4125 24.2099C31.4983 24.2827 31.5627 24.3629 31.6057 24.4285C31.6987 24.5597 31.7202 24.6399 31.7274 24.6326C31.7202 24.6326 31.756 24.7201 31.7846 24.8585C31.8204 24.997 31.8347 25.1792 31.8276 25.3832C31.8133 25.7914 31.6916 26.2505 31.5699 26.6149C31.4697 26.921 31.3838 27.1178 31.3266 27.2271C31.2622 27.3365 31.2264 27.3583 31.1977 27.3146C31.1405 27.2344 31.1619 26.8992 31.1977 26.5129C31.1763 26.5493 31.255 26.0829 31.2407 25.6383C31.2407 25.4124 31.2049 25.201 31.1619 25.0626C31.1118 24.9314 31.0689 24.8731 31.0689 24.8731C31.0689 24.8731 31.0546 24.8366 31.0188 24.8002C30.983 24.7565 30.9401 24.7055 30.8399 24.669C30.7397 24.6326 30.6109 24.6034 30.4534 24.6034C30.2959 24.5962 30.117 24.6253 29.9309 24.6909C29.5516 24.8148 29.1723 25.0699 28.9146 25.2885C28.6712 25.4853 28.4852 25.6748 28.3635 25.8205C28.2347 25.959 28.1702 26.0465 28.1631 26.0611Z" fill="#D62C2B"/>
<path d="M27.9514 28.4943C27.9443 28.5089 27.9443 28.5161 27.9228 28.5307C27.8655 28.589 27.7653 28.6546 27.6508 28.6692C27.5363 28.6838 27.3932 28.6327 27.2858 28.3995C27.2858 28.3922 27.2715 28.3558 27.2715 28.3339C27.2786 28.3266 27.3073 28.1882 27.3788 27.9695C27.4576 27.7582 27.5864 27.4594 27.794 27.1533C27.8584 27.0513 27.9586 26.92 28.0588 26.7961C28.159 26.6795 28.2663 26.5702 28.3308 26.5046C28.6385 26.1985 28.8604 26.0528 28.8604 26.0455C28.8604 26.0528 29.0966 25.8852 29.4401 25.7321C29.7908 25.5718 30.2417 25.426 30.6282 25.3823C30.9503 25.3312 31.165 25.3458 31.2867 25.3677C31.4084 25.3896 31.4441 25.426 31.4155 25.4624C31.3511 25.5353 31.0505 25.6228 30.7069 25.7613C30.7427 25.7613 30.3205 25.907 29.934 26.1402C29.7407 26.2495 29.5546 26.3807 29.4186 26.4901C29.2827 26.5921 29.2039 26.665 29.2039 26.665C29.2039 26.6723 29.0393 26.7816 28.8174 27.0075C28.7602 27.0585 28.6743 27.1533 28.5884 27.2553C28.5025 27.3573 28.4238 27.4667 28.3665 27.5541C28.023 28.057 27.9586 28.4797 27.9514 28.4943Z" fill="#D62C2B"/>
<path d="M32.1516 23.3377C32.1444 23.3377 32.1444 23.3377 32.1301 23.3231C32.0585 23.2356 31.9297 22.9951 32.0299 22.6745C32.0299 22.6672 32.0371 22.6453 32.0442 22.638C32.0514 22.638 32.216 22.6089 32.4665 22.5797C32.717 22.5505 33.0605 22.5141 33.4112 22.536C33.762 22.5505 34.1198 22.6307 34.3703 22.7328C34.6208 22.8275 34.7783 22.9223 34.7783 22.9223C34.7783 22.9223 34.8713 22.9951 34.9787 23.1045C35.0932 23.2211 35.2149 23.3741 35.2936 23.5126C35.4367 23.7385 35.4296 23.8478 35.3652 23.877C35.3008 23.9134 35.1719 23.8624 35.0359 23.8041C35.0431 23.8187 34.8856 23.7239 34.7282 23.6511C34.5707 23.5782 34.4133 23.5199 34.4133 23.5199C34.4133 23.5199 34.2916 23.447 34.1055 23.3814C33.9123 23.3085 33.6474 23.2502 33.3612 23.2356C33.0749 23.2211 32.7743 23.2502 32.5452 23.2794C32.3162 23.3085 32.1587 23.3377 32.1516 23.3377Z" fill="#D62C2B"/>
<path d="M33.3396 24.4513C33.3396 24.4513 33.3396 24.4513 33.3252 24.444C33.2751 24.4149 33.2036 24.3711 33.1177 24.2909C33.0318 24.2181 32.9388 24.1087 32.8744 23.963C32.8744 23.9557 32.8672 23.9411 32.8672 23.9338C32.8743 23.9266 32.9674 23.8391 33.1249 23.7298C33.2823 23.6278 33.5113 23.5257 33.7404 23.4747C33.9694 23.4237 34.1913 23.4091 34.3487 23.4018C34.5133 23.3945 34.6135 23.3945 34.6135 23.3945C34.6135 23.3945 34.8784 23.4747 35.0573 23.584C35.3579 23.7371 35.2362 23.8974 35.043 23.9776C35.0501 23.9849 34.9356 24.014 34.8211 24.0432L34.5921 24.1015C34.5921 24.1015 34.2056 24.0869 33.8907 24.1598C33.7261 24.2035 33.5901 24.2618 33.497 24.3274C33.3968 24.393 33.3467 24.4513 33.3396 24.4513Z" fill="#D62C2B"/>
<path d="M28.5687 22.729C28.5687 22.7363 28.5687 22.7364 28.5473 22.7436C28.447 22.7801 28.1894 22.8165 27.9031 22.6635L27.8816 22.6489C27.8816 22.6343 27.946 22.146 27.9174 21.6723C27.8959 21.1986 27.7671 20.7467 27.7671 20.7467C27.7671 20.7467 27.7528 20.4333 27.7671 20.1782C27.7671 19.9742 27.8101 19.8867 27.8816 19.8794C27.9532 19.8721 28.0462 19.945 28.125 20.0471C28.1321 20.0325 28.2109 20.1637 28.2896 20.3021C28.3683 20.4333 28.4399 20.5864 28.4399 20.5864C28.4399 20.5864 28.4757 20.7103 28.5186 20.9143C28.5544 21.1111 28.5973 21.3808 28.6117 21.6504C28.6403 22.1897 28.5687 22.7145 28.5687 22.729Z" fill="#D62C2B"/>
<path d="M28.9651 22.0021C28.9651 22.0094 28.9651 22.0094 28.9436 22.0167C28.8363 22.0459 28.5643 22.0531 28.3281 21.8199C28.321 21.8126 28.3066 21.7981 28.3066 21.7908C28.3138 21.7762 28.507 21.1494 28.6359 20.5154C28.779 19.8813 28.8577 19.2399 28.8577 19.2399C28.8577 19.2399 28.9794 18.8318 29.1082 18.5476C29.2013 18.2998 29.2729 18.2269 29.3444 18.256C29.4089 18.2852 29.459 18.4237 29.4876 18.584C29.4947 18.5694 29.5162 18.7662 29.5234 18.963C29.5377 19.167 29.5377 19.3711 29.5377 19.3711C29.5377 19.3711 29.4518 20.027 29.3086 20.683C29.1727 21.3389 28.9723 21.9875 28.9651 22.0021Z" fill="#D62C2B"/>
<path d="M28.5586 22.8298C28.5515 22.8298 28.5515 22.8298 28.53 22.8298C28.4226 22.8006 28.1793 22.6913 28.0648 22.3707C28.0576 22.3634 28.0576 22.3415 28.0576 22.3342C28.0719 22.3196 28.53 21.8459 29.0024 21.3941C29.4676 20.9422 29.9113 20.4903 29.9113 20.4903C29.9113 20.4903 30.2549 20.2498 30.5269 20.1041C30.9634 19.8344 30.9491 20.0822 30.7988 20.3737C30.8131 20.3664 30.7129 20.5341 30.6056 20.6944C30.4911 20.8547 30.3765 21.0151 30.3765 21.0151C30.3765 21.0151 29.9256 21.4742 29.4676 21.9115C29.0095 22.3561 28.5658 22.8152 28.5586 22.8298Z" fill="#D62C2B"/>
<path d="M28.3177 23.1855C28.3105 23.1855 28.3105 23.1854 28.2962 23.1782C28.2389 23.1636 28.1531 23.1271 28.06 23.0615C27.9741 22.9959 27.8739 22.8866 27.8381 22.7117C27.8381 22.7117 27.831 22.6826 27.8381 22.6753C27.8453 22.668 28.0028 22.5077 28.2604 22.34C28.5181 22.1724 28.8688 22.0048 29.2266 21.8809C29.5845 21.7497 29.9424 21.6622 30.2072 21.5966C30.472 21.531 30.6438 21.4946 30.6438 21.4946C30.6438 21.4873 31.1161 21.4582 31.4525 21.4873C31.7317 21.5019 31.8319 21.5456 31.8247 21.6258C31.8104 21.6987 31.6887 21.7934 31.5313 21.8736C31.5671 21.8809 30.7511 22.187 30.7583 22.187C30.7583 22.187 30.5865 22.2234 30.336 22.289C30.0855 22.3473 29.7563 22.4348 29.4342 22.5514C29.1193 22.6607 28.8258 22.8064 28.6254 22.9376C28.4322 23.0688 28.3248 23.1782 28.3177 23.1855Z" fill="#D62C2B"/>
<path d="M26.3433 32.6913C26.3505 32.7058 26.3576 32.7058 26.3576 32.7277C26.3719 32.8006 26.3648 32.8953 26.3147 32.9609C26.2646 33.0265 26.1644 33.0629 26.0069 33.0411C25.9998 33.0411 25.9783 33.0338 25.9711 33.0265C25.9568 33.0192 25.7707 32.7714 25.3986 32.5382C25.2196 32.4216 24.9691 32.2904 24.7043 32.2175C24.4466 32.1301 24.1818 32.0936 24.0101 32.0863C23.7524 32.0645 23.5878 32.0863 23.5878 32.0863C23.5878 32.0863 23.416 32.0791 23.1798 32.1082C22.9365 32.1301 22.643 32.203 22.4068 32.2977C22.2064 32.3852 22.0776 32.4507 21.9989 32.4872C21.9201 32.5163 21.8844 32.5164 21.8915 32.4799C21.8915 32.4143 22.0418 32.2175 22.2923 32.0499C22.2565 32.0572 22.5571 31.8531 22.9078 31.7365C23.2514 31.6126 23.6236 31.5762 23.6236 31.5762C23.6236 31.5835 23.781 31.5689 24.0458 31.5835C24.2319 31.598 24.5325 31.6345 24.8403 31.7292C25.1409 31.824 25.4486 31.9697 25.6634 32.1082C26.1 32.3852 26.329 32.684 26.3433 32.6913Z" fill="#038867"/>
<path d="M26.7039 32.5901C26.7111 32.5828 26.7111 32.5829 26.7325 32.5829C26.7826 32.5901 26.8685 32.612 26.9329 32.6557C26.9687 32.6849 26.9973 32.7213 27.0117 32.7723C27.026 32.8233 27.0188 32.8889 26.983 32.9837C26.983 32.9837 26.9687 33.0128 26.9544 33.0201C26.9472 33.0274 26.8542 33.0857 26.7039 33.144C26.5464 33.2096 26.3246 33.2606 26.0669 33.2898C25.8379 33.3116 25.5373 33.3116 25.251 33.2825C24.9719 33.2606 24.6999 33.2096 24.5281 33.1805C24.2418 33.1221 24.0701 33.0711 24.0701 33.0711C24.0701 33.0711 23.884 33.0128 23.6406 32.9181C23.3973 32.8233 23.0967 32.6849 22.8676 32.5464C22.4597 32.3278 22.3738 32.1966 22.4382 32.182C22.5026 32.1601 22.7173 32.2257 22.9821 32.2986C22.9535 32.284 23.2684 32.3861 23.5905 32.4589C23.9126 32.5464 24.249 32.6047 24.249 32.6047C24.249 32.5974 24.3921 32.6411 24.6212 32.6849C24.7786 32.714 25.0291 32.7577 25.2868 32.7796C25.5516 32.8088 25.8236 32.8088 26.024 32.7869C26.2387 32.765 26.4105 32.7213 26.525 32.6776C26.6395 32.6339 26.6967 32.5901 26.7039 32.5901Z" fill="#038867"/>
<path d="M27.7698 33.5095C27.777 33.5241 27.777 33.5241 27.7698 33.546C27.7412 33.6043 27.6983 33.6772 27.6196 33.7209C27.548 33.7574 27.4478 33.7574 27.3118 33.6407C27.3118 33.6407 27.2903 33.6189 27.2903 33.6043C27.2832 33.597 27.2689 33.5096 27.2474 33.3565C27.2259 33.2035 27.1973 32.9848 27.1973 32.7224C27.2044 32.4674 27.2331 32.1686 27.3333 31.8552C27.4263 31.5491 27.5909 31.243 27.8056 30.9879C27.913 30.864 28.0275 30.7474 28.1492 30.6526C28.2637 30.5555 28.3758 30.4656 28.4856 30.383C28.7074 30.2226 28.915 30.0914 29.0868 29.9894C29.3373 29.8437 29.509 29.7708 29.509 29.7635C29.509 29.7708 29.6951 29.6906 29.9528 29.6177C30.2105 29.5521 30.554 29.5011 30.8403 29.5375C31.0765 29.5521 31.2196 29.6104 31.2984 29.6542C31.3771 29.6979 31.3914 29.7343 31.3628 29.7489C31.3055 29.7854 31.0836 29.7708 30.8331 29.8145C30.8474 29.8145 30.7759 29.8218 30.6614 29.8509C30.554 29.8728 30.3965 29.9093 30.2462 29.9676C29.9456 30.0769 29.6594 30.2518 29.6594 30.2518C29.6594 30.2518 29.5305 30.3101 29.3301 30.4267C29.1798 30.5142 28.9937 30.6308 28.7933 30.7838C28.6884 30.8567 28.5834 30.9369 28.4784 31.0243C28.3782 31.1118 28.278 31.2065 28.1921 31.3086C28.0204 31.5126 27.8844 31.7531 27.8056 32.0009C27.7269 32.256 27.6983 32.5111 27.6983 32.7297C27.6911 32.9557 27.7126 33.1452 27.7341 33.2836C27.7555 33.4221 27.7698 33.5022 27.7698 33.5095Z" fill="#038867"/>
<path d="M27.9974 33.5362C27.9831 33.5435 27.976 33.5508 27.9545 33.5508C27.8829 33.5508 27.7827 33.5289 27.7326 33.4633C27.6754 33.3977 27.6754 33.2957 27.7111 33.1499C27.7111 33.1426 27.7255 33.1208 27.7326 33.1135C27.7326 33.1062 27.797 33.0697 27.8972 32.9896C27.9903 32.9021 28.1263 32.7709 28.2766 32.596C28.4197 32.4357 28.6273 32.1442 28.7275 31.9984C28.8849 31.7652 28.9708 31.6194 28.9708 31.6194C28.9708 31.6194 29.0853 31.4664 29.2285 31.2623C29.3716 31.051 29.5434 30.7813 29.6794 30.5554C29.9084 30.1691 29.9657 30.0452 30.0086 30.1035C30.0444 30.1618 30.0158 30.4096 29.9227 30.6866C29.9442 30.6574 29.8225 30.9854 29.6794 31.3061C29.5291 31.6267 29.3573 31.9401 29.3573 31.9401C29.3573 31.9401 29.2786 32.0786 29.1354 32.2827C29.0352 32.4284 28.8062 32.7418 28.6487 32.924C28.4913 33.1208 28.3338 33.2738 28.2122 33.3759C28.0905 33.4779 28.0046 33.5362 27.9974 33.5362Z" fill="#038867"/>
<path d="M28.4317 35.3517C28.4246 35.3662 28.4246 35.3662 28.4031 35.3735C28.2814 35.4172 28.0452 35.4245 28.0381 35.082C28.0381 35.0747 28.0381 35.0528 28.0453 35.0382L28.1956 34.8488C28.2886 34.7322 28.4246 34.5645 28.6178 34.3823C28.7109 34.2949 28.8325 34.1928 28.9829 34.0981C29.1332 34.0106 29.3121 33.9305 29.5125 33.9086C29.7057 33.8794 29.9061 33.9159 30.0636 33.9815C30.221 34.0398 30.3427 34.12 30.4286 34.1856C30.5574 34.2803 30.6505 34.3678 30.7149 34.4261C30.7793 34.4844 30.8079 34.5208 30.8079 34.5208C30.8079 34.5208 30.9439 34.6738 31.0871 34.8925C31.2374 35.1184 31.402 35.4027 31.5308 35.6359C31.7527 36.0367 31.8099 36.1606 31.7384 36.1606C31.674 36.1606 31.4879 36.0003 31.3018 35.7889C31.3089 35.8181 31.0942 35.5557 30.8795 35.3006C30.765 35.1767 30.6505 35.0528 30.5646 34.9654C30.4715 34.8779 30.4143 34.8269 30.4143 34.8269C30.4143 34.8269 30.3141 34.7249 30.1423 34.5937C30.0135 34.499 29.7988 34.3751 29.5769 34.4042C29.355 34.4261 29.1117 34.601 28.9542 34.754C28.7968 34.9071 28.6679 35.0601 28.582 35.1695L28.4317 35.3517Z" fill="#038867"/>
<path d="M27.7875 36.0625C27.7946 36.0698 27.8018 36.0771 27.7946 36.0989C27.8018 36.1718 27.7732 36.2738 27.7088 36.3249C27.6372 36.3759 27.537 36.3759 27.3938 36.3322C27.3867 36.3322 27.3652 36.3176 27.358 36.3103C27.358 36.3103 27.3294 36.2447 27.2507 36.1572C27.172 36.0625 27.0431 35.9459 26.8642 35.8438C26.7282 35.7637 26.535 35.6835 26.3417 35.6325C26.1413 35.5742 25.9481 35.5377 25.8192 35.5159C25.5544 35.4794 25.3827 35.4794 25.3827 35.4794C25.3827 35.4794 25.2037 35.4576 24.9604 35.443C24.717 35.4284 24.4021 35.4284 24.1445 35.443C23.9226 35.4576 23.7794 35.4794 23.6936 35.4794C23.6077 35.4867 23.579 35.4721 23.5934 35.4357C23.6148 35.3774 23.8295 35.2462 24.1087 35.1661C24.0729 35.1661 24.4093 35.0713 24.76 35.0276C25.1107 34.9766 25.4757 34.9766 25.4757 34.9766C25.4757 34.9839 25.626 34.9839 25.8837 35.0203C26.0197 35.0422 26.2415 35.0786 26.4706 35.1442C26.6924 35.2098 26.9286 35.3045 27.1004 35.3993C27.3366 35.5304 27.5155 35.6908 27.6229 35.822C27.7374 35.9532 27.7803 36.0479 27.7875 36.0625Z" fill="#038867"/>
<path d="M26.8962 35.7991C26.9106 35.7991 26.9177 35.7991 26.932 35.8137C27.0394 35.8793 27.204 36.0542 26.9463 36.2801C26.9463 36.2874 26.9249 36.302 26.9106 36.302C26.8962 36.302 26.5599 36.3166 26.0732 36.2947L26.066 36.2947C25.7797 36.2802 25.6008 36.2583 25.6008 36.2583C25.6008 36.2583 25.4075 36.2291 25.1499 36.1635C24.8922 36.0979 24.5702 35.9886 24.3268 35.8502C24.1192 35.7336 24.0047 35.6169 23.9546 35.544C23.9045 35.4712 23.9045 35.4347 23.9403 35.4347C23.9689 35.4274 24.0334 35.4566 24.1192 35.4858C24.2051 35.5222 24.3196 35.5586 24.4485 35.5951C24.4342 35.5878 24.5057 35.6097 24.6131 35.6388C24.7276 35.668 24.8851 35.6971 25.0497 35.719C25.3717 35.7627 25.7082 35.7627 25.7082 35.7627C25.7082 35.7627 25.8513 35.7773 26.0875 35.7919L26.0946 35.7919C26.5599 35.8137 26.8819 35.7991 26.8962 35.7991Z" fill="#038867"/>
<path d="M29.5611 38.9183C29.5683 38.9256 29.5683 38.9329 29.5611 38.9548C29.5539 39.0204 29.5182 39.1078 29.4466 39.1515C29.375 39.2025 29.2748 39.2025 29.1317 39.1224C29.1245 39.1224 29.1102 39.1078 29.103 39.1005C29.0959 39.0787 28.9885 38.7871 28.7666 38.3644C28.5806 37.9854 28.3515 37.57 28.1368 37.0963C28.0843 36.9797 28.0366 36.8558 27.9937 36.7246C27.9436 36.5934 27.9078 36.4695 27.8648 36.3456C27.7933 36.0832 27.7217 35.8209 27.6573 35.5585C27.5284 35.0265 27.4139 34.4872 27.2923 33.9624C27.1634 33.4377 27.0489 32.9056 26.9416 32.4101C26.8414 31.9072 26.7483 31.4408 26.6553 31.0181C26.6076 30.8043 26.5622 30.6051 26.5193 30.4204L26.4549 30.1508L26.4119 29.9686C26.3475 29.7135 26.2974 29.5605 26.3046 29.5605C26.3046 29.5605 26.1471 28.8243 26.0254 28.2996C25.9109 27.8623 25.8966 27.7166 25.961 27.7384C26.0254 27.7603 26.1543 27.957 26.2831 28.2194C26.2759 28.1903 26.4262 28.4964 26.5479 28.8243C26.6767 29.1523 26.7913 29.4876 26.7913 29.4876L26.8199 29.5969L26.9058 29.9176C27.0704 30.5443 27.2493 31.4262 27.4497 32.4028C27.4974 32.6457 27.5499 32.8935 27.6072 33.1462C27.6644 33.394 27.7289 33.649 27.7861 33.9114C27.9078 34.4361 28.0223 34.9682 28.144 35.4783C28.206 35.731 28.2752 35.9788 28.3515 36.2217C28.3873 36.3456 28.4231 36.4622 28.466 36.5788C28.5042 36.6906 28.5472 36.7999 28.5949 36.9068C28.7881 37.3441 29.0171 37.7522 29.2104 38.1312C29.4323 38.5685 29.5611 38.8965 29.5611 38.9183Z" fill="#038867"/>
<path d="M27.2237 31.3058C27.2237 31.3204 27.2165 31.3277 27.2022 31.3349C27.1092 31.4297 26.8944 31.5317 26.7513 31.2256C26.7513 31.2183 26.7441 31.1965 26.7441 31.1819L26.9445 30.3729L27.0519 29.9575C27.1306 29.6733 27.1807 29.4983 27.1807 29.4983C27.1807 29.5056 27.4384 28.7622 27.7462 28.2958C27.8678 28.0917 27.9823 27.9752 28.0539 27.9241C28.1326 27.8731 28.1684 27.8804 28.1684 27.9095C28.1684 27.946 28.1398 28.0116 28.1112 28.099C28.0754 28.1865 28.0324 28.3031 27.9823 28.4343C28.0038 28.4052 27.8822 28.7112 27.7963 29.0392C27.7104 29.3672 27.6388 29.7097 27.6388 29.7097C27.6388 29.7097 27.5958 29.8482 27.5314 30.0887L27.4241 30.4968L27.2237 31.3058Z" fill="#038867"/>
<path d="M25.9305 32.0706C25.9377 32.0852 25.9377 32.0852 25.9377 32.107C25.9377 32.2382 25.8733 32.4714 25.5512 32.3621C25.544 32.3621 25.5226 32.3548 25.5154 32.3402L25.0717 31.6333L24.8426 31.2616C24.6995 31.0138 24.6065 30.8535 24.6065 30.8535C24.6065 30.8535 24.5206 30.6786 24.4204 30.4381C24.3202 30.1903 24.2057 29.8768 24.1412 29.6072C24.0768 29.3813 24.0625 29.2282 24.0625 29.1408C24.0625 29.0533 24.0768 29.0242 24.1055 29.0387C24.1699 29.0752 24.2701 29.2792 24.3989 29.5198C24.3917 29.4906 24.5349 29.7894 24.7066 30.0809C24.8784 30.3724 25.0717 30.664 25.0645 30.664C25.0717 30.664 25.1432 30.7879 25.2649 30.9992L25.4939 31.3709L25.9305 32.0706Z" fill="#038867"/>
<path d="M28.2372 35.5326C28.23 35.5253 28.2228 35.5253 28.2157 35.5034C28.187 35.4378 28.1656 35.3358 28.2014 35.2629C28.2443 35.1828 28.3302 35.1391 28.4805 35.1172C28.4876 35.1172 28.5163 35.1172 28.5234 35.1172C28.5306 35.1245 28.7525 35.3067 29.1891 35.3941C29.2535 35.4087 29.3608 35.4306 29.4109 35.4379C29.6757 35.4743 29.8475 35.4743 29.8475 35.4743C29.8475 35.4743 30.0265 35.4962 30.277 35.518C30.4058 35.5326 30.5561 35.5472 30.7064 35.5763C30.8638 35.6055 31.0141 35.6565 31.143 35.7221C31.3648 35.8241 31.4722 35.9262 31.5366 35.9918C31.601 36.0501 31.6082 36.0865 31.5724 36.0938C31.508 36.1229 31.2933 36.0355 31.0428 35.9772C31.0571 35.9845 30.9855 35.9699 30.8782 35.9553C30.7708 35.9407 30.6133 35.9407 30.4487 35.948C30.2913 35.9553 30.1123 35.9699 29.9764 35.9699C29.8475 35.9772 29.7545 35.9772 29.7545 35.9772C29.7545 35.9772 29.6042 35.9699 29.3465 35.9335C29.2893 35.9262 29.1604 35.9043 29.0817 35.8897C28.8312 35.8387 28.6165 35.7513 28.4733 35.6784C28.3302 35.5982 28.2443 35.5399 28.2372 35.5326Z" fill="#038867"/>
<defs>
<filter id="filter0_di_1690_29799" x="0.4" y="0.898046" width="54.7" height="64.2" filterUnits="userSpaceOnUse" color-interpolation-filters="sRGB">
<feFlood flood-opacity="0" result="BackgroundImageFix"/>
<feColorMatrix in="SourceAlpha" type="matrix" values="0 0 0 0 0 0 0 0 0 0 0 0 0 0 0 0 0 0 127 0" result="hardAlpha"/>
<feOffset dy="4"/>
<feGaussianBlur stdDeviation="6.55"/>
<feComposite in2="hardAlpha" operator="out"/>
<feColorMatrix type="matrix" values="0 0 0 0 0 0 0 0 0 0 0 0 0 0 0 0 0 0 0.33 0"/>
<feBlend mode="normal" in2="BackgroundImageFix" result="effect1_dropShadow_1690_29799"/>
<feBlend mode="normal" in="SourceGraphic" in2="effect1_dropShadow_1690_29799" result="shape"/>
<feColorMatrix in="SourceAlpha" type="matrix" values="0 0 0 0 0 0 0 0 0 0 0 0 0 0 0 0 0 0 127 0" result="hardAlpha"/>
<feOffset dy="-1"/>
<feGaussianBlur stdDeviation="1"/>
<feComposite in2="hardAlpha" operator="arithmetic" k2="-1" k3="1"/>
<feColorMatrix type="matrix" values="0 0 0 0 0 0 0 0 0 0 0 0 0 0 0 0 0 0 0.76 0"/>
<feBlend mode="normal" in2="shape" result="effect2_innerShadow_1690_29799"/>
</filter>
</defs>
</svg>
