<svg width="40" height="41" viewBox="0 0 40 41" fill="none" xmlns="http://www.w3.org/2000/svg">
<g clip-path="url(#clip0_1690_37124)">
<path d="M20.8808 18.1562C20.3535 19.7182 18.9534 20.6671 17.4134 20.6671C17.1667 20.6671 16.9248 20.6091 16.6825 20.5595L18.5532 23.3656C18.9126 23.9046 18.7672 24.6313 18.2282 24.9907C17.6806 25.3536 16.9566 25.1967 16.6031 24.6657L14.0625 20.8548V34.5625H36.4844C38.423 34.5625 40 32.9855 40 31.0469V18.1562H20.8808ZM34.1406 29.875H24.6094C23.9616 29.875 23.4375 29.3509 23.4375 28.7031C23.4375 28.0554 23.9616 27.5312 24.6094 27.5312H34.1406C34.7884 27.5312 35.3125 28.0554 35.3125 28.7031C35.3125 29.3509 34.7884 29.875 34.1406 29.875ZM34.1406 25.1875H24.6094C23.9616 25.1875 23.4375 24.6634 23.4375 24.0156C23.4375 23.3679 23.9616 22.8438 24.6094 22.8438H34.1406C34.7884 22.8438 35.3125 23.3679 35.3125 24.0156C35.3125 24.6634 34.7884 25.1875 34.1406 25.1875Z" fill="white"/>
<path d="M16.6736 15.8709L15.0039 16.9844L16.6736 18.0979C17.5625 18.6904 18.7507 18.0538 18.7507 16.9856C18.7507 15.9125 17.5591 15.2806 16.6736 15.8709Z" fill="white"/>
<path d="M3.51562 6.4375C1.57703 6.4375 0 8.01453 0 9.95312V15.8125H4.90047C5.69313 13.4646 8.41969 12.5962 10.4084 13.9208L11.7188 14.7945V6.4375H3.51562Z" fill="white"/>
<path d="M36.4844 6.4375H14.0625V14.7945L15.3728 13.9208C17.3405 12.6062 20.0832 13.4473 20.8812 15.8125H40V9.95312C40 8.01453 38.423 6.4375 36.4844 6.4375Z" fill="white"/>
<path d="M9.10836 15.8715C8.21812 15.278 7.03125 15.9184 7.03125 16.9838C7.03125 18.0524 8.21516 18.693 9.10836 18.0985L10.778 16.985L9.10836 15.8715Z" fill="white"/>
<path d="M9.17813 24.6657C8.81875 25.2024 8.09211 25.3455 7.55305 24.9907C7.01406 24.6313 6.86867 23.9047 7.22805 23.3656L9.09875 20.5595C8.85641 20.6091 8.61453 20.6671 8.36789 20.6671C6.82406 20.6671 5.42563 19.7144 4.89992 18.1562H0V31.047C0 32.9855 1.57703 34.5626 3.51562 34.5626H11.7188V20.8548L9.17813 24.6657Z" fill="white"/>
</g>
<defs>
<clipPath id="clip0_1690_37124">
<rect width="40" height="40" fill="white" transform="translate(0 0.5)"/>
</clipPath>
</defs>
</svg>
