<svg width="20" height="20" viewBox="0 0 20 20" fill="none" xmlns="http://www.w3.org/2000/svg">
<g clip-path="url(#clip0_1690_33036)">
<path d="M6.44975 17.76C6.44975 18.2669 6.035 18.6817 5.52809 18.6817H1.71854C1.21162 18.6817 0.796875 18.2669 0.796875 17.76V13.5818C0.796875 13.0749 1.21162 12.6602 1.71854 12.6602H5.52809C6.035 12.6602 6.44975 13.0749 6.44975 13.5818V17.76Z" fill="white"/>
<path d="M13.2271 17.7611C13.2271 18.268 12.8123 18.6828 12.3054 18.6828H8.49588C7.98897 18.6828 7.57422 18.268 7.57422 17.7611V11.3709C7.57422 10.864 7.98897 10.4492 8.49588 10.4492H12.3054C12.8123 10.4492 13.2271 10.864 13.2271 11.3709V17.7611Z" fill="white"/>
<path d="M20.0005 17.7599C20.0005 18.2668 19.5858 18.6815 19.0789 18.6815H15.2693C14.7624 18.6815 14.3477 18.2668 14.3477 17.7599V8.9119C14.3477 8.40498 14.7624 7.99023 15.2693 7.99023H19.0789C19.5858 7.99023 20.0005 8.40498 20.0005 8.9119V17.7599Z" fill="white"/>
<path d="M19.2027 1.33555L15.0629 2.34275C14.7344 2.42226 14.6613 2.68284 14.9002 2.9218L15.7836 3.78454C15.8578 3.86909 15.7698 3.98153 15.7 4.02915C15.1437 4.40887 14.261 4.96605 13.0407 5.60268C6.39767 9.06857 0.921572 8.85597 0.839237 8.85222C0.399664 8.82992 0.0238095 9.16854 0.0010751 9.60885C-0.0215979 10.0494 0.317083 10.425 0.757639 10.4477C0.79002 10.4493 0.921695 10.4553 1.14308 10.4553C2.56287 10.4553 7.663 10.2103 13.7797 7.01909C15.227 6.264 16.2302 5.61275 16.8159 5.20046C16.8988 5.14215 17.0431 5.04163 17.1763 5.17723L18.1425 6.14339C18.3815 6.38234 18.6408 6.30879 18.7189 5.98001L19.6581 1.78883C19.7361 1.45998 19.5312 1.25604 19.2027 1.33555Z" fill="white"/>
</g>
<defs>
<clipPath id="clip0_1690_33036">
<rect width="20" height="20" fill="white"/>
</clipPath>
</defs>
</svg>
