<svg width="14" height="14" viewBox="0 0 14 14" fill="none" xmlns="http://www.w3.org/2000/svg">
<g clip-path="url(#clip0_1690_33971)">
<path d="M7 0C3.13111 0 0 3.13075 0 7C0 10.8688 3.13075 14 7 14C10.8689 14 14 10.8693 14 7C14 3.13116 10.8693 0 7 0ZM7 13.0233C3.67877 13.0233 0.976746 10.3213 0.976746 7C0.976746 3.67875 3.67877 0.976746 7 0.976746C10.3212 0.976746 13.0233 3.67875 13.0233 7C13.0233 10.3213 10.3212 13.0233 7 13.0233Z" fill="#FCD227"/>
<path d="M6.99855 5.83594C6.58391 5.83594 6.28906 6.01105 6.28906 6.26903V9.77959C6.28906 10.0007 6.58391 10.2218 6.99855 10.2218C7.39476 10.2218 7.71723 10.0007 7.71723 9.77959V6.26898C7.71723 6.01102 7.39476 5.83594 6.99855 5.83594Z" fill="#FCD227"/>
<path d="M7.00163 3.66992C6.57777 3.66992 6.24609 3.97398 6.24609 4.32412C6.24609 4.67429 6.5778 4.98756 7.00163 4.98756C7.41627 4.98756 7.748 4.67429 7.748 4.32412C7.748 3.97398 7.41624 3.66992 7.00163 3.66992Z" fill="#FCD227"/>
</g>
<defs>
<clipPath id="clip0_1690_33971">
<rect width="14" height="14" fill="white"/>
</clipPath>
</defs>
</svg>
