<svg width="20" height="21" viewBox="0 0 20 21" fill="none" xmlns="http://www.w3.org/2000/svg">
<path fill-rule="evenodd" clip-rule="evenodd" d="M5.41537 1.33398C2.88406 1.33398 0.832031 3.38601 0.832031 5.91732V15.084C0.832031 17.6153 2.88406 19.6673 5.41537 19.6673H14.582C17.1134 19.6673 19.1654 17.6153 19.1654 15.084V5.91732C19.1654 3.38601 17.1134 1.33398 14.582 1.33398H5.41537ZM9.9987 7.16732C8.15775 7.16732 6.66537 8.6597 6.66537 10.5007C6.66537 12.3416 8.15775 13.834 9.9987 13.834C11.8396 13.834 13.332 12.3416 13.332 10.5007C13.332 8.6597 11.8396 7.16732 9.9987 7.16732ZM4.9987 10.5007C4.9987 7.73923 7.23727 5.50065 9.9987 5.50065C12.7601 5.50065 14.9987 7.73923 14.9987 10.5007C14.9987 13.2621 12.7601 15.5007 9.9987 15.5007C7.23727 15.5007 4.9987 13.2621 4.9987 10.5007ZM14.9987 3.83398C14.0782 3.83398 13.332 4.58018 13.332 5.50065C13.332 6.42113 14.0782 7.16732 14.9987 7.16732C15.9192 7.16732 16.6654 6.42113 16.6654 5.50065C16.6654 4.58018 15.9192 3.83398 14.9987 3.83398Z" fill="white"/>
</svg>
