<svg width="16" height="16" viewBox="0 0 16 16" fill="none" xmlns="http://www.w3.org/2000/svg">
<g clip-path="url(#clip0_1510_219021)">
<path d="M4.33334 4.28125H4.13272L3.75781 6.15625H4.70825L4.33334 4.28125Z" fill="white"/>
<path d="M11.918 8.03125C12.1204 8.57497 12.3896 9.01509 12.6875 9.38959C12.9855 9.01509 13.2859 8.57494 13.4883 8.03125H11.918Z" fill="white"/>
<path d="M14.5926 2.84375H8.77122L9.98503 12.5837C10.0065 12.9821 9.89759 13.3572 9.63759 13.6508L7.58203 16H14.5926C15.368 16 15.9988 15.3692 15.9988 14.5938V4.28125C15.9988 3.50581 15.368 2.84375 14.5926 2.84375ZM14.5926 8.03125H14.4674C14.2007 8.88697 13.7777 9.55656 13.3381 10.0844C13.6825 10.3993 14.0507 10.6575 14.4168 10.9467C14.6187 11.1083 14.6516 11.4031 14.4896 11.6055C14.3283 11.8075 14.0323 11.8403 13.8308 11.6783C13.4331 11.3643 13.0597 11.1015 12.6863 10.7588C12.3129 11.1015 11.9708 11.3643 11.573 11.6783C11.3716 11.8403 11.0756 11.8075 10.9143 11.6055C10.7522 11.4031 10.7852 11.1083 10.9871 10.9467C11.3532 10.6575 11.6902 10.3993 12.0345 10.0844C11.5949 9.55659 11.2032 8.887 10.9365 8.03125H10.8113C10.5522 8.03125 10.3426 7.82159 10.3426 7.5625C10.3426 7.30341 10.5522 7.09375 10.8113 7.09375H12.2176V6.625C12.2176 6.36591 12.4272 6.15625 12.6863 6.15625C12.9454 6.15625 13.1551 6.36591 13.1551 6.625V7.09375H14.5926C14.8517 7.09375 15.0613 7.30341 15.0613 7.5625C15.0613 7.82159 14.8517 8.03125 14.5926 8.03125Z" fill="white"/>
<path d="M7.63013 1.23184C7.54269 0.529625 6.94256 0 6.23488 0H1.40625C0.630813 0 0 0.630813 0 1.40625V11.7812C0 12.5567 0.630813 13.1875 1.40625 13.1875C4.20844 13.1875 6.22428 13.1875 8.79847 13.1875C8.93522 13.0312 9.04984 12.9333 9.05469 12.7293C9.05587 12.6781 7.63647 1.28259 7.63013 1.23184ZM5.74825 8.95959C5.49969 9.01075 5.24791 8.84937 5.19666 8.592L4.89706 7.09375H3.57172L3.27213 8.592C3.22178 8.84559 2.97731 9.01222 2.72053 8.95959C2.46694 8.90878 2.30212 8.66206 2.35294 8.408L3.29041 3.7205C3.33434 3.50169 3.52662 3.34375 3.75 3.34375H4.71875C4.94212 3.34375 5.13441 3.50169 5.17834 3.7205L6.11584 8.408C6.16666 8.66206 6.00187 8.90878 5.74825 8.95959Z" fill="white"/>
<path d="M5.47656 14.125L5.557 14.7682C5.61063 15.1989 5.89681 15.6381 6.36756 15.8574C7.25594 14.8795 6.71847 15.4711 7.94128 14.125H5.47656Z" fill="white"/>
</g>
<defs>
<clipPath id="clip0_1510_219021">
<rect width="16" height="16" fill="white"/>
</clipPath>
</defs>
</svg>
