<svg width="17" height="17" viewBox="0 0 17 17" fill="none" xmlns="http://www.w3.org/2000/svg">
<g clip-path="url(#clip0_1690_54198)">
<path d="M1.75574 9.11466L7.5339 14.893C7.69884 15.0579 7.91868 15.1484 8.15308 15.1484C8.38775 15.1484 8.60745 15.0578 8.7724 14.893L9.29701 14.3682C9.46182 14.2035 9.55262 13.9836 9.55262 13.749C9.55262 13.5146 9.46182 13.2872 9.29701 13.1226L5.92611 9.74425L16.6356 9.74425C17.1185 9.74425 17.5 9.36624 17.5 8.88325L17.5 8.14141C17.5 7.65842 17.1185 7.24229 16.6356 7.24229L5.88787 7.24229L9.29688 3.84511C9.46169 3.68017 9.55249 3.46619 9.55249 3.23165C9.55249 2.99738 9.46169 2.78028 9.29688 2.61546L8.77227 2.09241C8.60733 1.92747 8.38762 1.83759 8.15296 1.83759C7.91855 1.83759 7.69872 1.92864 7.53377 2.09358L1.75561 7.87175C1.59028 8.03721 1.49935 8.25808 1.5 8.49288C1.49948 8.72846 1.59028 8.94946 1.75574 9.11466Z" fill="white" fill-opacity="0.6"/>
</g>
<defs>
<clipPath id="clip0_1690_54198">
<rect width="16" height="16" fill="white" transform="translate(16.5 16.498) rotate(-180)"/>
</clipPath>
</defs>
</svg>
