<svg width="125" height="40" viewBox="0 0 125 40" fill="none" xmlns="http://www.w3.org/2000/svg">
<path fill-rule="evenodd" clip-rule="evenodd" d="M106.157 12.8612V26.2713H105.41L95.0636 10.2305L95.1968 23.6168C95.1968 24.8013 95.9151 25.5244 96.7428 26.0667V26.2713H93.4652V26.0667C94.369 25.5244 94.8067 24.8013 94.8067 23.6168L94.6782 10.5112C94.6782 9.78811 94.3167 8.80816 93.4414 8.2944V8.08984H96.8189L105.772 22.066V12.3569C105.892 12.5282 106.021 12.6962 106.157 12.8612ZM104.511 8.49419C104.416 8.42759 104.321 8.36099 104.221 8.2944V8.08984H104.544C104.528 8.22304 104.517 8.35782 104.511 8.49419Z" fill="white"/>
<path fill-rule="evenodd" clip-rule="evenodd" d="M85.3689 8.01172C90.0689 8.01172 92.5426 12.2265 92.5426 17.1928C92.5426 22.1639 90.0689 26.3501 85.3689 26.3501C80.669 26.3501 78.1953 22.1639 78.1953 17.1928C78.1953 12.2265 80.6452 8.01172 85.3689 8.01172ZM85.3689 25.96C88.8083 25.96 89.8976 20.7321 89.8976 17.1405C89.8976 13.4728 88.9082 8.40179 85.3689 8.40179C81.7298 8.40179 80.8402 13.4205 80.8402 17.1405C80.8402 20.8082 81.8297 25.96 85.3689 25.96Z" fill="white"/>
<path fill-rule="evenodd" clip-rule="evenodd" d="M44.5039 34.5185C43.9235 36.5022 42.2966 37.9626 40.4937 38.7284C39.5851 39.1233 38.6194 39.3659 37.6443 39.4515C36.6595 39.5514 35.6844 39.4991 34.7234 39.3421C32.8016 39.0377 30.9796 38.3526 29.2481 37.5535C25.7707 35.9551 22.593 33.843 19.3725 31.8736C18.5971 31.4074 17.8217 30.9459 17.0368 30.494C15.1149 31.9592 12.803 32.9153 10.4102 33.2531C8.51214 33.5242 6.5665 33.4814 4.68747 33.039C3.75509 32.8107 2.83223 32.4777 1.99974 31.9734C1.78568 31.8593 1.59064 31.7023 1.38609 31.5691C1.19105 31.4121 1.00077 31.2456 0.834269 31.0553C0.506033 30.6795 0.244401 30.2276 0.10169 29.7376C-0.0315076 29.2477 -0.0362646 28.7101 0.10169 28.2154C0.244401 27.7111 0.553606 27.2782 0.919898 26.931C1.67151 26.2269 2.68001 25.9225 3.64569 25.8321C4.74932 25.7607 5.84343 25.8274 6.92328 25.9891C7.01367 25.5705 7.06599 25.1376 7.08502 24.6952L8.20293 3.46449C8.24098 2.30853 7.70344 1.39993 6.59029 0.862384V0.538905H11.9087L21.3514 22.0978L21.8889 20.666V20.6612L22.2267 19.7621C22.2267 19.7574 22.2267 19.7574 22.2267 19.7526L29.4336 0.496094L34.6283 0.538905V0.862384C33.7197 1.60924 33.3058 2.30853 33.3486 3.46449L34.4618 24.6952C34.5855 27.0452 35.123 28.282 36.6881 29.2715V29.5997H28.6487V29.2715C29.9283 28.5294 30.4659 26.9643 30.3803 25.1518L29.1862 2.92694L21.9032 22.2691V22.2738L20.0194 27.2878V27.2925C19.9909 27.3353 19.9671 27.3734 19.9386 27.4162C19.9053 27.4733 19.8624 27.5256 19.8244 27.5827C19.1727 28.5294 18.3925 29.3761 17.5125 30.1134C18.2403 30.5273 18.9586 30.9507 19.6722 31.3788C22.9212 33.334 26.0942 35.4128 29.524 36.9636C31.227 37.739 32.9966 38.3859 34.8281 38.6666C35.7367 38.8046 36.6643 38.8474 37.5729 38.7522C38.4815 38.6618 39.3711 38.4383 40.2035 38.0672C41.0313 37.7104 41.7972 37.2014 42.4298 36.5592C43.9569 35.0132 44.0853 32.9677 43.5192 30.9459C42.9293 28.8005 41.8162 26.7978 40.3558 25.1233C39.6422 24.2956 38.8383 23.5487 37.963 22.9018C37.6443 22.6734 35.2895 21.2083 35.0041 21.6221C35.3656 21.0941 36.0269 20.8277 36.6691 20.8229C37.3113 20.8182 37.9344 21.0418 38.5005 21.3319C42.896 23.5678 45.9215 29.6996 44.5039 34.5185ZM16.7276 30.318C14.3252 28.9622 11.8468 27.7587 9.21618 26.9976C8.83562 26.8929 8.45505 26.793 8.06973 26.7122C7.65587 26.6123 7.23249 26.5361 6.80912 26.4696C5.77684 26.3126 4.73029 26.246 3.68849 26.3031C2.78941 26.3839 1.88082 26.6646 1.23386 27.264C0.91514 27.5684 0.658261 27.93 0.539335 28.3438C0.410895 28.7577 0.415653 29.2001 0.534579 29.6235C0.653505 30.0468 0.872327 30.4369 1.16251 30.7699C1.44793 31.1124 1.82373 31.3693 2.21381 31.6119C2.99872 32.0971 3.88354 32.4206 4.78738 32.6442C6.59981 33.0818 8.50738 33.1389 10.3579 32.8868C12.2131 32.6299 14.016 32.0067 15.6239 31.0506C16.0045 30.827 16.3755 30.5796 16.7276 30.318ZM17.208 29.9422C18.0548 29.2572 18.8159 28.4628 19.4533 27.5827L8.77853 3.91641L7.74625 24.6952C7.72722 25.1804 7.77955 25.6751 7.90324 26.1603C8.39321 26.2602 8.87843 26.3744 9.35889 26.5028C12.1275 27.2878 14.7201 28.5389 17.208 29.9422Z" fill="white"/>
<path d="M109.023 14.5342C109.509 14.8863 110.688 15.5998 111.521 15.9423C111.545 15.9518 111.564 15.9614 111.587 15.9709C111.859 10.8713 114.87 8.626 118.176 8.626C120.374 8.626 122.291 10.3861 123.946 13.0738L123.247 8.80677C121.125 8.80677 120.321 8.18359 118.205 8.18359C117.838 8.18359 117.634 8.18359 117.634 8.18359C112.986 8.18359 109.861 10.3718 109.023 14.5342Z" fill="white"/>
<path fill-rule="evenodd" clip-rule="evenodd" d="M125.001 17.913V18.2222C124.021 18.6884 124.126 21.1716 124.126 22.4369V25.6717C121.9 25.6717 119.935 26.4757 117.556 26.4757C112.176 26.4757 108.761 22.827 108.761 17.3422C108.761 16.7761 108.799 16.229 108.875 15.701C108.875 15.701 108.873 15.701 108.87 15.701C107.871 15.0493 106.953 14.2739 106.14 13.3795C106.136 13.3764 106.135 13.3748 106.135 13.3748C106.005 13.2289 105.878 13.0798 105.754 12.9276C104.446 11.3293 103.438 9.25042 103.438 7.19062V7.17635C103.438 5.39246 104.165 3.68469 105.445 2.44785C106.03 1.83895 106.729 1.34422 107.5 0.996956C108.214 0.663963 108.998 0.502222 109.783 0.516493C110.954 0.506979 112.086 0.9589 112.923 1.78187C113.551 2.46213 114.008 3.28033 114.25 4.1699L113.917 4.3364C113.77 4.1699 113.66 4.05573 113.58 3.97962C113.156 3.57051 112.657 3.26131 112.105 3.06627C111.505 2.84745 110.873 2.74279 110.24 2.7523C108.756 2.74279 107.343 3.35645 106.33 4.44105C105.34 5.4543 104.684 6.73395 104.527 8.08971C104.511 8.2229 104.5 8.35769 104.494 8.49406C104.465 9.12199 104.546 9.75943 104.746 10.3921C104.969 11.0914 105.321 11.7479 105.754 12.3568C105.875 12.528 106.003 12.6961 106.14 12.861C106.867 13.7553 107.762 14.5355 108.656 15.1729C108.745 15.2364 108.835 15.2982 108.927 15.3585C109.75 15.915 110.625 16.3812 111.539 16.757C112.457 17.1424 113.408 17.4278 114.388 17.6181C115.302 17.7988 116.234 17.9035 117.166 17.932V17.913H118.346C118.351 17.913 118.36 17.913 118.36 17.913H120.591C120.591 17.913 120.591 17.913 120.587 17.913H125.001ZM121.567 20.7815C121.467 20.106 121.034 18.4648 117.88 18.246C117.785 18.2508 117.69 18.2507 117.594 18.2507C115.52 18.2507 113.446 17.8559 111.534 17.0853C111.529 17.1614 111.529 17.2375 111.529 17.3184C111.529 22.5178 114.374 26.0856 117.789 26.0856C119.416 26.0856 120.22 25.9048 121.567 24.6632V20.7815Z" fill="white"/>
<path d="M58.3418 17.8733C56.9908 18.5013 56.282 19.172 56.0013 19.4765V23.715C56.0013 24.89 55.8206 25.3799 55.0547 26.1506V26.3504H59.5596V26.1506C58.846 25.3799 58.5654 24.89 58.5654 23.715V17.7734C58.4893 17.8067 58.4179 17.84 58.3418 17.8733Z" fill="white"/>
<path d="M68.2937 10.9331V16.3133V16.6559V23.7153C68.2937 24.8903 68.5743 25.3803 69.2927 26.1462V26.3507H64.783V26.1462C65.5536 25.3803 65.7296 24.8903 65.7296 23.7153V15.8424C63.8696 15.5046 61.8336 15.6521 59.8499 16.3704C59.4313 16.5227 59.0174 16.6939 58.6131 16.8842C58.1089 17.122 57.6173 17.3853 57.1384 17.6739C56.7674 17.9022 56.4011 18.1496 56.049 18.4112C54.836 19.3198 53.7752 20.4282 52.9094 21.6983C52.5812 22.1883 52.272 22.7163 52.0008 23.2729C51.5299 24.2386 51.1731 25.2851 51.0684 26.3412C51.0367 26.6456 51.0272 26.9501 51.0399 27.2545C51.1398 29.419 52.5098 31.1886 54.3793 32.121C55.6162 32.7822 57.0623 32.8821 58.3562 32.4064C58.9175 32.2161 59.4408 31.9165 59.8927 31.5311C60.3114 31.1791 60.6539 30.7367 60.8917 30.2372C60.9345 30.1468 60.9916 30.0041 61.0677 29.8091L61.415 29.8519C61.4911 30.7319 61.3579 31.6168 61.0297 32.4302C60.5635 33.4339 59.7215 34.2046 58.6892 34.5661C57.9994 34.8325 57.2621 34.9324 56.5295 34.8611C55.7398 34.7897 54.9645 34.5661 54.2509 34.2046C53.485 33.8478 52.8 33.3436 52.2387 32.7204C51.6726 32.102 51.2302 31.3694 50.94 30.5607C50.4643 29.243 50.4262 27.754 50.6736 26.3412C50.802 25.5658 51.0161 24.8189 51.2873 24.1244C51.4538 23.701 51.644 23.2872 51.8533 22.8876C52.8571 20.9562 54.3127 19.315 56.049 18.0497V10.9331C56.049 9.75814 55.873 9.26816 55.1024 8.49752V8.29773H59.6073V8.49752C58.889 9.26816 58.6131 9.75814 58.6131 10.9331V16.5512C58.9841 16.3799 59.36 16.223 59.75 16.085C61.767 15.3524 63.8363 15.1954 65.7296 15.5237V10.9331C65.7296 9.75338 65.5536 9.26816 64.783 8.50228V8.29297H69.2927V8.50228C68.5743 9.26816 68.2937 9.75338 68.2937 10.9331Z" fill="white"/>
<path d="M75.932 7.09753C75.2042 6.29359 74.3241 5.63236 73.3584 5.13763C72.7924 4.84745 72.1977 4.58581 71.5983 4.3765C71.1512 4.21952 70.666 4.12438 70.2045 4.21476C69.7383 4.30039 69.2912 4.59533 69.1247 5.03773C68.9487 5.49441 69.0914 6.01293 69.3197 6.44106C69.8049 7.36393 70.6898 8.05845 71.6982 8.32485C72.4261 9.06695 72.5973 9.55216 72.5973 10.7034V13.2056C72.8399 13.2579 73.0873 13.2864 73.3394 13.2817C73.6011 13.2817 73.8579 13.2531 74.1101 13.1961C74.4764 13.1104 74.8284 12.963 75.1471 12.7584L75.1423 10.7034C75.1423 9.53314 75.423 9.04792 76.1366 8.28679V8.08224H71.6602V8.09175C71.4509 8.0204 71.1322 7.89671 71.0941 7.87768C70.8515 7.76351 70.6184 7.61605 70.4091 7.44004C69.9952 7.09753 69.6527 6.65037 69.4482 6.15088C69.1913 5.52295 69.2056 4.72377 69.9714 4.49543C70.2521 4.41456 70.5518 4.42407 70.8372 4.46213C72.0836 4.62387 73.3252 5.23753 74.3384 5.9606C75.3754 6.7027 76.4125 7.73973 76.8121 8.98132C77.245 10.3466 76.7835 11.7452 75.8083 12.7441C75.3469 13.2389 74.757 13.5766 74.1101 13.7241C73.8579 13.7812 73.6011 13.8097 73.3394 13.8097C72.9351 13.8192 72.5355 13.7526 72.1597 13.6147C71.9456 13.5386 71.7458 13.4339 71.565 13.3102C71.4461 13.2294 71.332 13.1342 71.2273 13.0391C71.1797 12.9915 71.1084 12.9154 71.0132 12.8107L70.704 12.3683C70.8515 12.8964 71.2083 13.9239 71.565 14.3377C71.5888 14.3663 71.6126 14.3948 71.6412 14.4234C71.9171 14.6945 72.2453 14.8991 72.5973 15.037V24.5131C72.5973 26.4206 71.4271 28.8372 69.0391 29.194V29.4509C72.0408 29.4509 75.1709 27.3911 75.1709 24.3133L75.1519 14.8801C75.6038 14.6612 76.0176 14.371 76.3649 14.0048C77.1784 13.2198 77.635 12.14 77.635 11.0126V11.0031C77.635 9.58071 76.8739 8.13932 75.932 7.09753Z" fill="white"/>
<path fill-rule="evenodd" clip-rule="evenodd" d="M51.9911 23.0302C51.4821 24.072 51.0968 25.1994 50.9826 26.3411H48.6564V26.1223C49.4271 25.7084 49.5317 24.4431 49.0941 23.2348L47.8334 19.7431L41.3163 19.6622V19.4958L39.9177 23.1777L39.6133 22.7543L45.6595 6.96094H45.9354L51.7866 22.4927C51.8056 22.5307 51.8151 22.5688 51.8341 22.6069C51.8864 22.7496 51.9388 22.8923 51.9911 23.0302ZM47.6955 19.3293L44.6129 10.8665L41.4257 19.2484L47.6955 19.3293Z" fill="white"/>
<path d="M39.9994 25.624L39.9947 25.6335C39.9947 25.6335 39.714 25.2958 39.2621 24.8676C39.1241 24.7392 38.9719 24.6203 38.8197 24.5156C38.3392 25.3243 37.8587 25.6097 37.207 26.1235V26.3423H40.4799V26.1235C40.3086 26.0236 40.1421 25.8524 39.9994 25.624Z" fill="white"/>
</svg>
