<svg width="21" height="21" viewBox="0 0 21 21" fill="none" xmlns="http://www.w3.org/2000/svg">
<g clip-path="url(#clip0_1690_92962)">
<path d="M17.2662 2.72266V16.4891C17.2662 18.1855 15.8864 19.5653 14.19 19.5653H5.00781C5.19443 20.386 5.93066 21.0009 6.80717 21.0009H16.815C17.8326 21.0009 18.6607 20.1728 18.6607 19.1552V4.51258C18.6607 3.65043 18.0664 2.92445 17.2662 2.72266Z" fill="white"/>
<path d="M9.79688 9.22852H11.2855L11.7366 6.52148H9.79688V9.22852Z" fill="white"/>
<path d="M16.0352 16.4883V1.8457C16.0352 0.828106 15.2071 0 14.1895 0H4.18164C3.16404 0 2.33594 0.828106 2.33594 1.8457V16.4883C2.33594 17.5059 3.16404 18.334 4.18164 18.334H14.1895C15.2071 18.334 16.0352 17.5059 16.0352 16.4883ZM13.0737 6.00739L12.4174 9.94489C12.368 10.2416 12.1113 10.459 11.8105 10.459H9.80078V15.0938C9.80078 15.4335 9.52532 15.709 9.18555 15.709C8.84577 15.709 8.57031 15.4335 8.57031 15.0938V10.459H6.56055C6.25978 10.459 6.0031 10.2416 5.95368 9.94489L5.29743 6.00739C5.26769 5.82902 5.31798 5.64658 5.43487 5.50856C5.55173 5.37059 5.72346 5.29102 5.9043 5.29102H8.57031V3.89648H7.87305C7.53327 3.89648 7.25781 3.62102 7.25781 3.28125C7.25781 2.94148 7.53327 2.66602 7.87305 2.66602H9.18555C9.52532 2.66602 9.80078 2.94148 9.80078 3.28125V5.29102H12.4668C12.6476 5.29102 12.8194 5.37059 12.9362 5.50856C13.0531 5.64658 13.1034 5.82902 13.0737 6.00739Z" fill="white"/>
<path d="M7.08398 9.22852H8.57256V6.52148H6.63281L7.08398 9.22852Z" fill="white"/>
</g>
<defs>
<clipPath id="clip0_1690_92962">
<rect width="21" height="21" fill="white"/>
</clipPath>
</defs>
</svg>
