<svg width="171" height="83" viewBox="0 0 171 83" fill="none" xmlns="http://www.w3.org/2000/svg">
<g filter="url(#filter0_d_1690_24574)">
<path fill-rule="evenodd" clip-rule="evenodd" d="M130.559 30.2609V44.1027H129.788L119.108 27.5455L119.245 41.3628C119.245 42.5854 119.987 43.3318 120.841 43.8916V44.1027H117.458V43.8916C118.391 43.3318 118.843 42.5854 118.843 41.3628L118.71 27.8352C118.71 27.0889 118.337 26.0774 117.434 25.5471V25.3359H120.92L130.161 39.7621V29.7404C130.285 29.9171 130.418 30.0906 130.559 30.2609ZM128.86 25.7533C128.761 25.6846 128.663 25.6158 128.56 25.5471V25.3359H128.894C128.878 25.4734 128.866 25.6125 128.86 25.7533Z" fill="url(#paint0_linear_1690_24574)"/>
</g>
<g filter="url(#filter1_d_1690_24574)">
<path fill-rule="evenodd" clip-rule="evenodd" d="M109.1 25.2578C113.951 25.2578 116.504 29.6082 116.504 34.7345C116.504 39.8656 113.951 44.1866 109.1 44.1866C104.249 44.1866 101.695 39.8656 101.695 34.7345C101.695 29.6082 104.224 25.2578 109.1 25.2578ZM109.1 43.784C112.65 43.784 113.774 38.3877 113.774 34.6805C113.774 30.8947 112.753 25.6604 109.1 25.6604C105.344 25.6604 104.425 30.8407 104.425 34.6805C104.425 38.4662 105.447 43.784 109.1 43.784Z" fill="url(#paint1_linear_1690_24574)"/>
</g>
<g filter="url(#filter2_d_1690_24574)">
<path fill-rule="evenodd" clip-rule="evenodd" d="M66.923 52.6177C66.324 54.6652 64.6447 56.1727 62.7837 56.9632C61.8459 57.3708 60.8491 57.6212 59.8425 57.7096C58.8261 57.8127 57.8195 57.7587 56.8277 57.5966C54.8439 57.2824 52.9633 56.5753 51.176 55.7504C47.5867 54.1006 44.3067 51.9205 40.9825 49.8876C40.1821 49.4064 39.3818 48.9301 38.5716 48.4637C36.5879 49.976 34.2015 50.963 31.7317 51.3116C29.7725 51.5915 27.7642 51.5473 25.8247 51.0906C24.8623 50.8549 23.9097 50.5112 23.0505 49.9907C22.8295 49.8729 22.6282 49.7109 22.417 49.5734C22.2157 49.4113 22.0193 49.2395 21.8475 49.0431C21.5087 48.6552 21.2386 48.1887 21.0913 47.683C20.9538 47.1772 20.9489 46.6224 21.0913 46.1117C21.2386 45.5912 21.5578 45.1444 21.9358 44.7859C22.7117 44.0592 23.7526 43.745 24.7494 43.6517C25.8885 43.578 27.0179 43.6468 28.1325 43.8137C28.2258 43.3816 28.2798 42.9348 28.2994 42.4781L29.4533 20.564C29.4926 19.3708 28.9378 18.4329 27.7888 17.8781V17.5442H33.2784L43.0251 39.7972L43.58 38.3192V38.3143L43.9286 37.3863C43.9286 37.3814 43.9286 37.3814 43.9286 37.3765L51.3675 17.5L56.7295 17.5442V17.8781C55.7916 18.649 55.3644 19.3708 55.4086 20.564L56.5576 42.4781C56.6853 44.9038 57.2401 46.1804 58.8556 47.2018V47.5406H50.5573V47.2018C51.8782 46.4358 52.433 44.8203 52.3447 42.9495L51.1122 20.0091L43.5947 39.974V39.9789L41.6503 45.1542V45.1591C41.6208 45.2033 41.5962 45.2426 41.5668 45.2868C41.5324 45.3457 41.4882 45.3997 41.4489 45.4586C40.7762 46.4358 39.971 47.3098 39.0626 48.0709C39.8138 48.498 40.5553 48.9351 41.2918 49.377C44.6455 51.3951 47.9206 53.5408 51.4608 55.1415C53.2187 55.9419 55.0453 56.6097 56.9357 56.8994C57.8735 57.0418 58.831 57.086 59.7689 56.9878C60.7067 56.8945 61.6249 56.6637 62.4842 56.2807C63.3386 55.9124 64.1291 55.387 64.7822 54.7242C66.3583 53.1284 66.4909 51.017 65.9066 48.9301C65.2977 46.7156 64.1488 44.6485 62.6413 42.9201C61.9048 42.0657 61.075 41.2948 60.1715 40.627C59.8425 40.3913 57.412 38.879 57.1174 39.3062C57.4905 38.7611 58.173 38.4862 58.8359 38.4813C59.4988 38.4763 60.142 38.7071 60.7263 39.0066C65.2634 41.3144 68.3862 47.6437 66.923 52.6177ZM38.2524 48.282C35.7728 46.8826 33.2146 45.6403 30.4992 44.8547C30.1064 44.7467 29.7136 44.6435 29.3159 44.5601C28.8887 44.457 28.4517 44.3784 28.0147 44.3097C26.9491 44.1476 25.8689 44.0789 24.7936 44.1378C23.8655 44.2213 22.9277 44.511 22.2599 45.1297C21.9309 45.4439 21.6658 45.8171 21.543 46.2443C21.4105 46.6715 21.4154 47.1281 21.5381 47.5651C21.6609 48.0021 21.8867 48.4048 22.1863 48.7485C22.4809 49.102 22.8688 49.3672 23.2714 49.6176C24.0816 50.1184 24.9949 50.4523 25.9278 50.6831C27.7986 51.1348 29.7676 51.1937 31.6777 50.9335C33.5926 50.6684 35.4536 50.0251 37.1132 49.0382C37.5061 48.8074 37.8891 48.5521 38.2524 48.282ZM38.7483 47.8941C39.6224 47.187 40.408 46.367 41.0659 45.4586L30.0475 21.0304L28.982 42.4781C28.9623 42.979 29.0163 43.4897 29.144 43.9905C29.6498 44.0936 30.1506 44.2114 30.6465 44.344C33.5043 45.1542 36.1803 46.4456 38.7483 47.8941Z" fill="url(#paint2_linear_1690_24574)"/>
</g>
<g filter="url(#filter3_d_1690_24574)">
<path d="M133.518 31.9887C134.018 32.3521 135.236 33.0886 136.095 33.4421C136.12 33.4519 136.14 33.4618 136.164 33.4716C136.444 28.2079 139.552 25.8902 142.965 25.8902C145.233 25.8902 147.212 27.707 148.921 30.4813L148.199 26.0768C146.009 26.0768 145.179 25.4336 142.994 25.4336C142.616 25.4336 142.405 25.4336 142.405 25.4336C137.608 25.4336 134.382 27.6923 133.518 31.9887Z" fill="url(#paint3_linear_1690_24574)"/>
</g>
<g filter="url(#filter4_d_1690_24574)">
<path fill-rule="evenodd" clip-rule="evenodd" d="M150.012 35.477V35.7962C149 36.2774 149.108 38.8405 149.108 40.1466V43.4855C146.81 43.4855 144.782 44.3153 142.327 44.3153C136.774 44.3153 133.248 40.5492 133.248 34.8878C133.248 34.3035 133.288 33.7388 133.366 33.1938C133.366 33.1938 133.365 33.1938 133.361 33.1938C132.33 32.5211 131.383 31.7207 130.543 30.7976C130.54 30.7943 130.538 30.7927 130.538 30.7927C130.404 30.6421 130.273 30.4882 130.145 30.3311C128.795 28.6813 127.754 26.5355 127.754 24.4094V24.3947C127.754 22.5534 128.505 20.7906 129.826 19.514C130.43 18.8855 131.152 18.3748 131.947 18.0164C132.684 17.6726 133.494 17.5057 134.304 17.5204C135.512 17.5106 136.681 17.9771 137.545 18.8265C138.193 19.5287 138.664 20.3732 138.915 21.2915L138.571 21.4633C138.419 21.2915 138.306 21.1736 138.222 21.095C137.785 20.6728 137.27 20.3536 136.7 20.1523C136.082 19.9264 135.429 19.8184 134.775 19.8282C133.243 19.8184 131.785 20.4518 130.739 21.5713C129.718 22.6172 129.04 23.938 128.878 25.3375C128.862 25.4749 128.851 25.6141 128.844 25.7548C128.815 26.403 128.898 27.0609 129.104 27.714C129.335 28.4358 129.698 29.1134 130.145 29.7419C130.27 29.9187 130.402 30.0922 130.543 30.2624C131.294 31.1855 132.217 31.9908 133.14 32.6487C133.232 32.7142 133.325 32.778 133.42 32.8402C134.27 33.4147 135.173 33.8959 136.116 34.2838C137.064 34.6816 138.046 34.9762 139.057 35.1726C140 35.3592 140.962 35.4672 141.925 35.4966V35.477H143.142C143.147 35.477 143.157 35.477 143.157 35.477H145.46C145.46 35.477 145.46 35.477 145.455 35.477H150.012ZM146.467 38.4378C146.364 37.7406 145.917 36.0466 142.661 35.8207C142.563 35.8256 142.465 35.8256 142.367 35.8256C140.226 35.8256 138.085 35.4181 136.111 34.6226C136.106 34.7012 136.106 34.7798 136.106 34.8632C136.106 40.2301 139.042 43.9127 142.568 43.9127C144.247 43.9127 145.077 43.7261 146.467 42.4446V38.4378Z" fill="url(#paint4_linear_1690_24574)"/>
</g>
<g filter="url(#filter5_d_1690_24574)">
<path d="M81.2074 35.4351C79.8129 36.0833 79.0813 36.7756 78.7916 37.0899V41.4649C78.7916 42.6777 78.605 43.1834 77.8145 43.9789V44.1851H82.4644V43.9789C81.7279 43.1834 81.4382 42.6777 81.4382 41.4649V35.332C81.3596 35.3664 81.286 35.4008 81.2074 35.4351Z" fill="url(#paint5_linear_1690_24574)"/>
</g>
<g filter="url(#filter6_d_1690_24574)">
<path d="M91.4771 28.272V33.8255V34.179V41.4657C91.4771 42.6785 91.7668 43.1843 92.5083 43.9748V44.186H87.8534V43.9748C88.6488 43.1843 88.8305 42.6785 88.8305 41.4657V33.3394C86.9106 32.9907 84.8091 33.1429 82.7615 33.8844C82.3294 34.0415 81.9022 34.2183 81.4849 34.4147C80.9644 34.6602 80.457 34.9319 79.9627 35.2298C79.5797 35.4655 79.2016 35.7208 78.8383 35.9909C77.5862 36.9287 76.4912 38.0728 75.5975 39.3838C75.2587 39.8895 74.9396 40.4346 74.6597 41.0091C74.1736 42.0058 73.8053 43.0861 73.6973 44.1761C73.6646 44.4904 73.6548 44.8047 73.6678 45.1189C73.771 47.353 75.1851 49.1796 77.1148 50.142C78.3915 50.8245 79.8841 50.9277 81.2197 50.4366C81.7991 50.2402 82.3392 49.9309 82.8057 49.5332C83.2378 49.1698 83.5913 48.7132 83.8368 48.1976C83.881 48.1043 83.94 47.957 84.0185 47.7557L84.377 47.7999C84.4555 48.7083 84.3181 49.6215 83.9793 50.4612C83.4981 51.4972 82.6289 52.2927 81.5634 52.6659C80.8514 52.9408 80.0904 53.044 79.3342 52.9703C78.5191 52.8967 77.7188 52.6659 76.9822 52.2927C76.1917 51.9244 75.4846 51.404 74.9052 50.7607C74.3209 50.1224 73.8643 49.3662 73.5647 48.5315C73.0737 47.1714 73.0344 45.6345 73.2898 44.1761C73.4223 43.3758 73.6433 42.6049 73.9232 41.888C74.095 41.451 74.2914 41.0238 74.5075 40.6113C75.5435 38.6178 77.0461 36.9238 78.8383 35.6177V28.272C78.8383 27.0592 78.6566 26.5535 77.8611 25.758V25.5518H82.5111V25.758C81.7697 26.5535 81.4849 27.0592 81.4849 28.272V34.071C81.8679 33.8942 82.2558 33.7322 82.6584 33.5898C84.7403 32.8336 86.8763 32.6716 88.8305 33.0104V28.272C88.8305 27.0543 88.6488 26.5535 87.8534 25.7629V25.5469H92.5083V25.7629C91.7668 26.5535 91.4771 27.0543 91.4771 28.272Z" fill="url(#paint6_linear_1690_24574)"/>
</g>
<g filter="url(#filter7_d_1690_24574)">
<path d="M99.3629 24.3165C98.6116 23.4866 97.7033 22.8041 96.7065 22.2935C96.1222 21.9939 95.5084 21.7239 94.8897 21.5078C94.4282 21.3458 93.9273 21.2476 93.451 21.3409C92.9698 21.4293 92.5083 21.7337 92.3364 22.1904C92.1547 22.6617 92.3021 23.1969 92.5377 23.6389C93.0386 24.5914 93.9519 25.3083 94.9928 25.5833C95.7441 26.3493 95.9209 26.8501 95.9209 28.0384V30.6212C96.1713 30.6752 96.4266 30.7046 96.6869 30.6997C96.9569 30.6997 97.2221 30.6703 97.4823 30.6113C97.8604 30.523 98.2237 30.3707 98.5527 30.1596L98.5478 28.0384C98.5478 26.8305 98.8375 26.3296 99.574 25.544V25.3329H94.9536V25.3427C94.7375 25.269 94.4085 25.1414 94.3692 25.1217C94.1188 25.0039 93.8782 24.8517 93.6622 24.67C93.235 24.3165 92.8815 23.8549 92.6703 23.3393C92.4052 22.6912 92.4199 21.8663 93.2104 21.6306C93.5001 21.5471 93.8095 21.5569 94.1041 21.5962C95.3906 21.7632 96.6721 22.3966 97.718 23.1429C98.7884 23.9089 99.8588 24.9793 100.271 26.2609C100.718 27.6701 100.242 29.1137 99.2352 30.1449C98.7589 30.6555 98.1501 31.0042 97.4823 31.1564C97.2221 31.2153 96.9569 31.2447 96.6869 31.2447C96.2695 31.2546 95.857 31.1858 95.4691 31.0434C95.2482 30.9649 95.0419 30.8568 94.8554 30.7292C94.7326 30.6457 94.6148 30.5475 94.5067 30.4493C94.4576 30.4002 94.384 30.3216 94.2858 30.2136L93.9666 29.757C94.1188 30.302 94.4871 31.3626 94.8554 31.7898C94.8799 31.8192 94.9045 31.8487 94.9339 31.8782C95.2187 32.158 95.5575 32.3692 95.9209 32.5116V42.2927C95.9209 44.2617 94.713 46.756 92.248 47.1243V47.3895C95.3464 47.3895 98.5773 45.2633 98.5773 42.0865L98.5576 32.3495C99.0241 32.1237 99.4513 31.8242 99.8097 31.4461C100.649 30.6359 101.121 29.5213 101.121 28.3576V28.3477C101.121 26.8796 100.335 25.3918 99.3629 24.3165Z" fill="url(#paint7_linear_1690_24574)"/>
</g>
<g filter="url(#filter8_d_1690_24574)">
<path fill-rule="evenodd" clip-rule="evenodd" d="M74.6513 40.7585C74.1259 41.8338 73.7282 42.9976 73.6104 44.176H71.2093V43.9501C72.0047 43.5229 72.1127 42.2168 71.661 40.9696L70.3598 37.3656L63.6328 37.2821V37.1102L62.1893 40.9107L61.875 40.4737L68.1159 24.1719H68.4006L74.4402 40.2037C74.4598 40.2429 74.4696 40.2822 74.4893 40.3215C74.5433 40.4688 74.5973 40.6161 74.6513 40.7585ZM70.2174 36.9384L67.0356 28.2031L63.7458 36.8549L70.2174 36.9384Z" fill="url(#paint8_linear_1690_24574)"/>
</g>
<g filter="url(#filter9_d_1690_24574)">
<path d="M62.2729 43.437L62.268 43.4469C62.268 43.4469 61.9783 43.0982 61.5118 42.6563C61.3694 42.5237 61.2123 42.401 61.0552 42.293C60.5592 43.1277 60.0633 43.4223 59.3906 43.9526V44.1785H62.7688V43.9526C62.5921 43.8495 62.4202 43.6727 62.2729 43.437Z" fill="url(#paint9_linear_1690_24574)"/>
</g>
<defs>
<filter id="filter0_d_1690_24574" x="96.5336" y="8.43594" width="54.925" height="60.5676" filterUnits="userSpaceOnUse" color-interpolation-filters="sRGB">
<feFlood flood-opacity="0" result="BackgroundImageFix"/>
<feColorMatrix in="SourceAlpha" type="matrix" values="0 0 0 0 0 0 0 0 0 0 0 0 0 0 0 0 0 0 127 0" result="hardAlpha"/>
<feOffset dy="4"/>
<feGaussianBlur stdDeviation="10.45"/>
<feComposite in2="hardAlpha" operator="out"/>
<feColorMatrix type="matrix" values="0 0 0 0 1 0 0 0 0 0.67451 0 0 0 0 0.180392 0 0 0 1 0"/>
<feBlend mode="normal" in2="BackgroundImageFix" result="effect1_dropShadow_1690_24574"/>
<feBlend mode="normal" in="SourceGraphic" in2="effect1_dropShadow_1690_24574" result="shape"/>
</filter>
<filter id="filter1_d_1690_24574" x="80.7953" y="8.35781" width="56.6086" height="60.7297" filterUnits="userSpaceOnUse" color-interpolation-filters="sRGB">
<feFlood flood-opacity="0" result="BackgroundImageFix"/>
<feColorMatrix in="SourceAlpha" type="matrix" values="0 0 0 0 0 0 0 0 0 0 0 0 0 0 0 0 0 0 127 0" result="hardAlpha"/>
<feOffset dy="4"/>
<feGaussianBlur stdDeviation="10.45"/>
<feComposite in2="hardAlpha" operator="out"/>
<feColorMatrix type="matrix" values="0 0 0 0 1 0 0 0 0 0.67451 0 0 0 0 0.180392 0 0 0 1 0"/>
<feBlend mode="normal" in2="BackgroundImageFix" result="effect1_dropShadow_1690_24574"/>
<feBlend mode="normal" in="SourceGraphic" in2="effect1_dropShadow_1690_24574" result="shape"/>
</filter>
<filter id="filter2_d_1690_24574" x="0.0863285" y="0.6" width="88.1008" height="82.0617" filterUnits="userSpaceOnUse" color-interpolation-filters="sRGB">
<feFlood flood-opacity="0" result="BackgroundImageFix"/>
<feColorMatrix in="SourceAlpha" type="matrix" values="0 0 0 0 0 0 0 0 0 0 0 0 0 0 0 0 0 0 127 0" result="hardAlpha"/>
<feOffset dy="4"/>
<feGaussianBlur stdDeviation="10.45"/>
<feComposite in2="hardAlpha" operator="out"/>
<feColorMatrix type="matrix" values="0 0 0 0 1 0 0 0 0 0.67451 0 0 0 0 0.180392 0 0 0 1 0"/>
<feBlend mode="normal" in2="BackgroundImageFix" result="effect1_dropShadow_1690_24574"/>
<feBlend mode="normal" in="SourceGraphic" in2="effect1_dropShadow_1690_24574" result="shape"/>
</filter>
<filter id="filter3_d_1690_24574" x="112.618" y="8.53359" width="57.2023" height="49.8371" filterUnits="userSpaceOnUse" color-interpolation-filters="sRGB">
<feFlood flood-opacity="0" result="BackgroundImageFix"/>
<feColorMatrix in="SourceAlpha" type="matrix" values="0 0 0 0 0 0 0 0 0 0 0 0 0 0 0 0 0 0 127 0" result="hardAlpha"/>
<feOffset dy="4"/>
<feGaussianBlur stdDeviation="10.45"/>
<feComposite in2="hardAlpha" operator="out"/>
<feColorMatrix type="matrix" values="0 0 0 0 1 0 0 0 0 0.67451 0 0 0 0 0.180392 0 0 0 1 0"/>
<feBlend mode="normal" in2="BackgroundImageFix" result="effect1_dropShadow_1690_24574"/>
<feBlend mode="normal" in="SourceGraphic" in2="effect1_dropShadow_1690_24574" result="shape"/>
</filter>
<filter id="filter4_d_1690_24574" x="106.854" y="0.619532" width="64.0578" height="68.5949" filterUnits="userSpaceOnUse" color-interpolation-filters="sRGB">
<feFlood flood-opacity="0" result="BackgroundImageFix"/>
<feColorMatrix in="SourceAlpha" type="matrix" values="0 0 0 0 0 0 0 0 0 0 0 0 0 0 0 0 0 0 127 0" result="hardAlpha"/>
<feOffset dy="4"/>
<feGaussianBlur stdDeviation="10.45"/>
<feComposite in2="hardAlpha" operator="out"/>
<feColorMatrix type="matrix" values="0 0 0 0 1 0 0 0 0 0.67451 0 0 0 0 0.180392 0 0 0 1 0"/>
<feBlend mode="normal" in2="BackgroundImageFix" result="effect1_dropShadow_1690_24574"/>
<feBlend mode="normal" in="SourceGraphic" in2="effect1_dropShadow_1690_24574" result="shape"/>
</filter>
<filter id="filter5_d_1690_24574" x="56.9145" y="18.432" width="46.4504" height="50.6535" filterUnits="userSpaceOnUse" color-interpolation-filters="sRGB">
<feFlood flood-opacity="0" result="BackgroundImageFix"/>
<feColorMatrix in="SourceAlpha" type="matrix" values="0 0 0 0 0 0 0 0 0 0 0 0 0 0 0 0 0 0 127 0" result="hardAlpha"/>
<feOffset dy="4"/>
<feGaussianBlur stdDeviation="10.45"/>
<feComposite in2="hardAlpha" operator="out"/>
<feColorMatrix type="matrix" values="0 0 0 0 1 0 0 0 0 0.67451 0 0 0 0 0.180392 0 0 0 1 0"/>
<feBlend mode="normal" in2="BackgroundImageFix" result="effect1_dropShadow_1690_24574"/>
<feBlend mode="normal" in="SourceGraphic" in2="effect1_dropShadow_1690_24574" result="shape"/>
</filter>
<filter id="filter6_d_1690_24574" x="52.2348" y="8.64688" width="61.173" height="69.2473" filterUnits="userSpaceOnUse" color-interpolation-filters="sRGB">
<feFlood flood-opacity="0" result="BackgroundImageFix"/>
<feColorMatrix in="SourceAlpha" type="matrix" values="0 0 0 0 0 0 0 0 0 0 0 0 0 0 0 0 0 0 127 0" result="hardAlpha"/>
<feOffset dy="4"/>
<feGaussianBlur stdDeviation="10.45"/>
<feComposite in2="hardAlpha" operator="out"/>
<feColorMatrix type="matrix" values="0 0 0 0 1 0 0 0 0 0.67451 0 0 0 0 0.180392 0 0 0 1 0"/>
<feBlend mode="normal" in2="BackgroundImageFix" result="effect1_dropShadow_1690_24574"/>
<feBlend mode="normal" in="SourceGraphic" in2="effect1_dropShadow_1690_24574" result="shape"/>
</filter>
<filter id="filter7_d_1690_24574" x="71.348" y="4.40469" width="50.673" height="67.884" filterUnits="userSpaceOnUse" color-interpolation-filters="sRGB">
<feFlood flood-opacity="0" result="BackgroundImageFix"/>
<feColorMatrix in="SourceAlpha" type="matrix" values="0 0 0 0 0 0 0 0 0 0 0 0 0 0 0 0 0 0 127 0" result="hardAlpha"/>
<feOffset dy="4"/>
<feGaussianBlur stdDeviation="10.45"/>
<feComposite in2="hardAlpha" operator="out"/>
<feColorMatrix type="matrix" values="0 0 0 0 1 0 0 0 0 0.67451 0 0 0 0 0.180392 0 0 0 1 0"/>
<feBlend mode="normal" in2="BackgroundImageFix" result="effect1_dropShadow_1690_24574"/>
<feBlend mode="normal" in="SourceGraphic" in2="effect1_dropShadow_1690_24574" result="shape"/>
</filter>
<filter id="filter8_d_1690_24574" x="40.975" y="7.27188" width="54.5754" height="61.8039" filterUnits="userSpaceOnUse" color-interpolation-filters="sRGB">
<feFlood flood-opacity="0" result="BackgroundImageFix"/>
<feColorMatrix in="SourceAlpha" type="matrix" values="0 0 0 0 0 0 0 0 0 0 0 0 0 0 0 0 0 0 127 0" result="hardAlpha"/>
<feOffset dy="4"/>
<feGaussianBlur stdDeviation="10.45"/>
<feComposite in2="hardAlpha" operator="out"/>
<feColorMatrix type="matrix" values="0 0 0 0 1 0 0 0 0 0.67451 0 0 0 0 0.180392 0 0 0 1 0"/>
<feBlend mode="normal" in2="BackgroundImageFix" result="effect1_dropShadow_1690_24574"/>
<feBlend mode="normal" in="SourceGraphic" in2="effect1_dropShadow_1690_24574" result="shape"/>
</filter>
<filter id="filter9_d_1690_24574" x="38.4906" y="25.393" width="45.1789" height="43.6848" filterUnits="userSpaceOnUse" color-interpolation-filters="sRGB">
<feFlood flood-opacity="0" result="BackgroundImageFix"/>
<feColorMatrix in="SourceAlpha" type="matrix" values="0 0 0 0 0 0 0 0 0 0 0 0 0 0 0 0 0 0 127 0" result="hardAlpha"/>
<feOffset dy="4"/>
<feGaussianBlur stdDeviation="10.45"/>
<feComposite in2="hardAlpha" operator="out"/>
<feColorMatrix type="matrix" values="0 0 0 0 1 0 0 0 0 0.67451 0 0 0 0 0.180392 0 0 0 1 0"/>
<feBlend mode="normal" in2="BackgroundImageFix" result="effect1_dropShadow_1690_24574"/>
<feBlend mode="normal" in="SourceGraphic" in2="effect1_dropShadow_1690_24574" result="shape"/>
</filter>
<linearGradient id="paint0_linear_1690_24574" x1="123.996" y1="25.3359" x2="131.579" y2="35.4177" gradientUnits="userSpaceOnUse">
<stop stop-color="#FFAB2D"/>
<stop offset="1" stop-color="#FF8527"/>
</linearGradient>
<linearGradient id="paint1_linear_1690_24574" x1="109.1" y1="25.2578" x2="116.472" y2="36.2226" gradientUnits="userSpaceOnUse">
<stop stop-color="#FFAB2D"/>
<stop offset="1" stop-color="#FF8527"/>
</linearGradient>
<linearGradient id="paint2_linear_1690_24574" x1="44.1368" y1="17.5" x2="56.9478" y2="45.5062" gradientUnits="userSpaceOnUse">
<stop stop-color="#FFAB2D"/>
<stop offset="1" stop-color="#FF8527"/>
</linearGradient>
<linearGradient id="paint3_linear_1690_24574" x1="141.219" y1="25.4336" x2="142.945" y2="31.7209" gradientUnits="userSpaceOnUse">
<stop stop-color="#FFAB2D"/>
<stop offset="1" stop-color="#FF8527"/>
</linearGradient>
<linearGradient id="paint4_linear_1690_24574" x1="138.883" y1="17.5195" x2="149.071" y2="33.6068" gradientUnits="userSpaceOnUse">
<stop stop-color="#FFAB2D"/>
<stop offset="1" stop-color="#FF8527"/>
</linearGradient>
<linearGradient id="paint5_linear_1690_24574" x1="80.1394" y1="35.332" x2="83.8628" y2="39.0497" gradientUnits="userSpaceOnUse">
<stop stop-color="#FFAB2D"/>
<stop offset="1" stop-color="#FF8527"/>
</linearGradient>
<linearGradient id="paint6_linear_1690_24574" x1="82.8215" y1="25.5469" x2="93.8831" y2="40.3898" gradientUnits="userSpaceOnUse">
<stop stop-color="#FFAB2D"/>
<stop offset="1" stop-color="#FF8527"/>
</linearGradient>
<linearGradient id="paint7_linear_1690_24574" x1="96.6844" y1="21.3047" x2="106.689" y2="27.7738" gradientUnits="userSpaceOnUse">
<stop stop-color="#FFAB2D"/>
<stop offset="1" stop-color="#FF8527"/>
</linearGradient>
<linearGradient id="paint8_linear_1690_24574" x1="68.2632" y1="24.1719" x2="76.5204" y2="34.1973" gradientUnits="userSpaceOnUse">
<stop stop-color="#FFAB2D"/>
<stop offset="1" stop-color="#FF8527"/>
</linearGradient>
<linearGradient id="paint9_linear_1690_24574" x1="61.0797" y1="42.293" x2="61.5084" y2="43.7531" gradientUnits="userSpaceOnUse">
<stop stop-color="#FFAB2D"/>
<stop offset="1" stop-color="#FF8527"/>
</linearGradient>
</defs>
</svg>
