<svg width="50" height="64" viewBox="0 0 50 64" fill="none" xmlns="http://www.w3.org/2000/svg">
<path d="M49.9994 57.6506C49.9994 60.797 47.3922 63.3393 44.1536 63.3393H9.28918C6.0623 63.3393 0.0878906 58.1066 0.0878906 54.9601L3.23295 8.85754C3.23295 5.71108 5.85187 3.15742 9.07876 3.15742L41.8386 0.193359C45.0655 0.193359 49.9994 6.45209 49.9994 9.59856V57.6506Z" fill="url(#paint0_linear_1690_41)"/>
<path d="M46.5443 53.7407C46.5443 56.8872 43.9371 59.4409 40.7102 59.4409H5.83413C2.60725 59.4409 0 56.8872 0 53.7407V5.70012C0 2.55365 2.60725 0 5.83413 0H40.7102C43.9371 0 46.5443 2.55365 46.5443 5.70012V53.7407Z" fill="url(#paint1_linear_1690_41)"/>
<path d="M1.54883 7.0323C1.54883 4.04544 3.9807 1.61719 6.97375 1.61719H39.3478C42.3526 1.61719 44.7844 4.04544 44.7844 7.0323V52.6789C44.7844 55.6657 42.3526 58.094 39.3478 58.094H6.97375C3.9807 58.094 1.54883 55.6657 1.54883 52.6789V7.0323Z" fill="#F3E2C6"/>
<path d="M18.1447 38.6902C18.1096 38.7016 18.098 38.7016 18.0395 38.6674C17.7121 38.485 17.1977 38.0062 17.9226 37.3336C17.9343 37.3222 18.0044 37.2766 18.0395 37.2766C18.0863 37.2652 19.0567 37.1968 20.4714 37.1284C22.2485 37.0258 24.3763 36.9346 26.6211 36.9118C27.1823 36.9042 27.7474 36.9004 28.3164 36.9004H28.749L29.4973 36.9118L30.3391 36.9346L30.76 36.946H30.8652H30.9003C30.9003 36.946 30.9236 36.9346 30.9119 36.946L30.8886 37.003L30.8184 37.1968C30.6197 37.7212 30.4092 38.2456 30.2221 38.77L30.0819 39.169L29.9532 39.5452C29.7896 40.0583 29.6376 40.5713 29.5089 41.0843C29.47 41.2135 29.4388 41.3427 29.4154 41.4719L29.3687 41.6657L29.3102 41.9393C29.3024 42.0077 29.2907 42.0761 29.2751 42.1445L29.2634 42.2471C29.2634 42.2547 29.2595 42.2623 29.2517 42.2699L29.2284 42.2813L29.1933 42.3155L28.9594 42.5321L28.749 42.7373L28.6321 42.8399L28.5736 42.8969C28.5385 42.9083 28.5035 42.8969 28.4684 42.9083L26.5977 42.9767L23.6748 43.0907L23.2423 43.1135L22.8097 43.1249L20.4714 43.2161L19.9452 43.2047L19.3723 43.1819L19.2905 43.1705H19.1385H18.8228H18.1915L18.0395 42.3041L18.0044 42.1103L17.981 41.9849L17.9577 41.7341C17.9226 41.4035 17.8875 41.0729 17.8524 40.7765C17.5601 38.1886 18.1213 39.1234 18.6592 40.6511C18.6475 40.6055 18.7293 40.8221 18.8345 41.1641L19.0216 41.7569L19.045 41.8367L19.0567 41.8823C19.0684 41.8823 19.0684 41.8823 19.0684 41.8937L19.0917 41.9279C19.0995 41.9431 19.1112 41.9583 19.1268 41.9735C19.1502 41.9659 19.1736 41.9583 19.197 41.9507L19.2203 41.9279C19.2203 41.9279 19.2242 41.9279 19.232 41.9279H19.2554L19.349 41.9165L19.9803 41.8595L20.5999 41.7911L22.7512 41.7113L23.1838 41.6885L23.6164 41.6771L26.5276 41.5631L27.9072 41.5061L27.9423 41.3807L27.989 41.1641C28.0202 41.0197 28.0553 40.8753 28.0943 40.7309C28.2346 40.195 28.3866 39.6592 28.5619 39.1234C28.6555 38.8612 28.749 38.5876 28.8425 38.3254H28.3281C27.7669 38.3254 27.2096 38.3292 26.6562 38.3368C24.4348 38.3596 22.3303 38.4508 20.5532 38.5534C19.1502 38.6218 18.1915 38.6902 18.1447 38.6902Z" fill="#D62C2B"/>
<path d="M19.7935 49.3844C19.7818 49.3844 19.7701 49.3844 19.7467 49.3502C19.5713 49.1792 19.2673 48.7004 19.5362 48.0392C19.5362 48.0278 19.5713 47.9822 19.583 47.9708C19.6298 47.9594 21.2432 47.7314 22.8684 47.5604C23.6751 47.4692 24.4818 47.4008 25.0898 47.3438C25.6977 47.2982 26.1069 47.2754 26.1069 47.2754C26.1069 47.2754 27.1825 47.3552 27.9308 47.5718C28.5621 47.72 28.7375 47.891 28.6674 48.0278C28.5972 48.1646 28.2816 48.2786 27.9074 48.3584C27.9425 48.3812 27.4982 48.4496 27.0423 48.5294C26.5746 48.6092 26.1069 48.7004 26.1069 48.7004C26.1069 48.7004 25.7211 48.7232 25.1365 48.7688C24.5519 48.8144 23.7686 48.8942 22.9853 48.9854C21.4069 49.1564 19.8402 49.373 19.7935 49.3844Z" fill="#D62C2B"/>
<path d="M30.0265 49.2604C30.0265 49.2718 30.0382 49.2718 30.0148 49.2946C29.8745 49.4656 29.5003 49.8418 28.8924 50.0584C28.8807 50.0584 28.8339 50.0698 28.8222 50.0698L27.1386 47.6871C27.1386 47.6871 26.9983 47.2197 26.9866 46.8321C26.9165 46.2051 27.314 46.2051 27.6531 46.3989C27.6648 46.3419 28.3663 46.9119 28.3663 46.9119L30.0265 49.2604Z" fill="#D62C2B"/>
<path d="M18.4902 32.0992C18.4902 32.0878 18.4902 32.0879 18.5253 32.0537C18.7007 31.9055 19.18 31.6318 19.8464 31.7458C19.8581 31.7458 19.9049 31.7572 19.9166 31.7686L21.039 36.3401C21.039 36.3401 21.0741 37.1153 20.9806 37.6739C20.8987 38.6202 20.4895 38.3466 20.1972 37.845C20.1738 37.9134 19.6009 36.6137 19.6009 36.6137L18.4902 32.0992Z" fill="#D62C2B"/>
<path d="M13.5965 35.7147C13.5848 35.7147 13.5731 35.7147 13.5497 35.6805C13.3977 35.4867 13.1288 34.9965 13.3978 34.3581C13.4094 34.3467 13.4328 34.3011 13.4445 34.2897C13.4913 34.2897 14.9878 34.1301 16.4843 34.0161C17.9809 33.8907 19.4891 33.8223 19.4891 33.8223C19.4891 33.8223 20.4712 33.9248 21.1727 34.1415C21.7573 34.3011 21.9209 34.4721 21.8508 34.5975C21.7806 34.7343 21.4883 34.8483 21.1376 34.9281C21.1844 34.9395 20.7634 35.0079 20.3309 35.0877L19.4774 35.2473C19.4774 35.2359 18.0276 35.3157 16.5662 35.4411C15.1047 35.5551 13.6316 35.7033 13.5965 35.7147Z" fill="#D62C2B"/>
<path d="M28.0842 30.3567C28.0842 30.3453 28.0843 30.3453 28.131 30.3339C28.3532 30.2541 28.9144 30.2085 29.4639 30.6303C29.4756 30.6303 29.5106 30.6645 29.5106 30.6873L28.283 35.806C28.283 35.806 27.9439 36.5927 27.5932 37.1171C27.0554 38.0291 26.8333 37.5731 26.8099 36.9233C26.7631 36.9803 26.88 35.407 26.88 35.407L28.0842 30.3567Z" fill="#D62C2B"/>
<path d="M34.3989 32.752C34.4223 32.752 34.4223 32.752 34.4457 32.7862C34.6094 32.98 34.8432 33.493 34.5041 34.12C34.5041 34.1314 34.469 34.177 34.4573 34.177C34.4106 34.177 32.8205 34.234 31.2305 34.3138C29.6521 34.3936 28.0971 34.5076 28.0971 34.5076C28.0971 34.5076 27.0683 34.4392 26.3434 34.3138C26.0394 34.2796 25.8407 34.2454 25.712 34.1998C25.5951 34.1428 25.5367 34.0972 25.5483 34.0174C25.56 33.9376 25.6419 33.8464 25.7705 33.7666C25.8991 33.6754 26.0628 33.5956 26.2498 33.5272C26.2148 33.5158 26.6707 33.3904 27.1267 33.2878C27.5944 33.1738 28.062 33.0826 28.062 33.0826C28.062 33.0826 29.6287 32.9686 31.2071 32.8888C32.7738 32.8089 34.3521 32.752 34.3989 32.752Z" fill="#D62C2B"/>
<path d="M17.0885 51.6877C17.0885 51.6991 17.0885 51.7104 17.0534 51.7332C16.9599 51.813 16.7845 51.9157 16.5507 51.9613C16.3168 51.9955 16.0245 51.9955 15.6972 51.8587C15.6855 51.8473 15.6387 51.8244 15.627 51.813C15.627 51.7788 15.4984 50.3082 15.2529 48.8718C15.136 48.1422 14.9957 47.4354 14.8671 46.9109C14.7502 46.3865 14.6449 46.0559 14.6449 46.0559C14.6449 46.0559 14.5397 45.1325 14.4345 44.4827C14.3877 44.2205 14.3526 44.0381 14.3526 43.9127C14.3448 43.7835 14.3799 43.7113 14.4579 43.6961C14.5982 43.6505 14.9138 43.8443 15.171 44.1521C15.171 44.1065 15.4399 44.4941 15.6621 44.9045C15.8842 45.3149 16.0713 45.7481 16.0713 45.7481C16.0713 45.7481 16.1765 46.1129 16.3051 46.6601C16.4337 47.2074 16.5857 47.9484 16.7027 48.678C16.9482 50.1486 17.0885 51.6421 17.0885 51.6877Z" fill="#D62C2B"/>
<path d="M13.2063 47.1594C13.1713 47.1594 13.1596 47.1594 13.1128 47.1366C12.7738 46.9541 12.271 46.4867 12.9725 45.8027C12.9959 45.7913 13.0544 45.7457 13.0894 45.7343L15.5096 45.5405C19.6952 45.2099 25.7047 44.7311 30.697 44.4005L32.5092 44.2865L33.503 44.2409L34.3331 44.2067H34.5319L34.6371 44.1953H34.6839H34.7072H34.7189C34.7267 44.2029 34.7306 44.2067 34.7306 44.2067L34.7423 44.5943C34.754 44.8565 34.7657 45.1073 34.7657 45.3581L34.7774 45.7001V45.8939C34.7774 46.1447 34.7735 46.3879 34.7657 46.6235C34.7579 46.8667 34.7462 47.0986 34.7306 47.319L34.7072 47.6496L34.6955 47.8206C34.6254 48.5844 34.5202 49.0632 34.5202 49.0632C34.5202 49.0632 34.4032 49.6332 34.0759 50.3628C33.9122 50.739 33.6901 51.1494 33.3861 51.5256C33.0821 51.8905 32.6846 52.2211 32.252 52.3921C31.9012 52.5517 31.5856 52.5859 31.34 52.5859C31.0945 52.5745 30.9191 52.5403 30.7905 52.4947C30.5333 52.4035 30.4865 52.3123 30.5684 52.2553C30.6385 52.1983 30.8373 52.1641 31.0945 52.0843C31.34 52.0159 31.6323 51.8905 31.8895 51.6853C31.8545 51.6967 32.0065 51.6055 32.1935 51.3888C32.3806 51.1722 32.591 50.8189 32.743 50.4084C33.047 49.5876 33.1172 48.63 33.1172 48.6414C33.1172 48.6414 33.1406 48.5388 33.1639 48.345C33.1795 48.2538 33.1951 48.1398 33.2107 48.003L33.2341 47.775L33.2575 47.49C33.2886 47.1252 33.3081 46.7223 33.3159 46.2815V45.9395V45.6659L32.3221 45.7229L30.545 45.8369C25.6696 46.1561 19.7537 46.6349 15.6265 46.9655L13.2063 47.1594Z" fill="#D62C2B"/>
<path d="M17.4618 41.4257C17.4268 41.4257 17.4034 41.4257 17.3566 41.4029C17.0293 41.2205 16.5265 40.7302 17.2397 40.069C17.2631 40.0576 17.3215 40.012 17.3566 40.0006L19.7768 39.8524C20.9693 39.7726 22.9452 39.6586 23.8922 39.6016L25.2485 39.5332C25.2485 39.5332 27.4815 39.556 29.0599 39.7384C30.3927 39.8524 30.7903 40.0234 30.65 40.1602C30.5097 40.297 29.8433 40.411 29.0249 40.525C29.1184 40.5364 28.1363 40.6276 27.1425 40.7416L25.1315 40.9582L23.9858 41.0266C23.0738 41.0722 21.0862 41.1862 19.8703 41.266L17.4618 41.4257Z" fill="#D62C2B"/>
<path d="M24.7247 47.9923C24.7247 48.0379 24.7247 48.0493 24.6896 48.0949C24.5026 48.4141 23.9881 48.8815 23.3217 48.1633C23.31 48.1519 23.275 48.0835 23.2633 48.0493L23.1697 45.6894C23.1463 44.9826 23.1113 43.8312 23.0996 43.2612C23.0879 42.4518 23.0879 41.9388 23.0879 41.9388C23.0879 41.9388 23.1113 41.3916 23.1814 40.6505C23.2516 39.9209 23.3685 38.9861 23.5205 38.2337C23.6257 37.5839 23.7309 37.1735 23.8245 36.934C23.918 36.6946 23.9999 36.6377 24.07 36.7175C24.1986 36.8543 24.2687 37.5155 24.3155 38.3135C24.3389 38.2337 24.3623 39.1799 24.4208 40.1489C24.4675 41.118 24.5377 42.1098 24.5377 42.1098L24.561 43.2384C24.5727 43.7628 24.6078 44.9256 24.6312 45.6438L24.7247 47.9923Z" fill="#D62C2B"/>
<path d="M30.2914 9.03563C30.3382 9.02423 30.3499 9.02423 30.4201 9.06984C30.8527 9.33204 31.4957 9.99327 30.5019 10.8483C30.4785 10.8597 30.3967 10.9167 30.3499 10.9281L27.1347 11.0307L24.7028 11.1105L22.914 11.1903C22.914 11.1903 19.9677 11.1219 17.8866 10.9851C17.0098 10.9509 16.4369 10.9053 16.1095 10.8483C15.7705 10.7913 15.6652 10.7115 15.7471 10.6089C15.8991 10.3923 16.7993 10.1187 17.875 9.93626C17.7697 9.92486 19.0675 9.74245 20.4003 9.58285C21.7215 9.43464 23.0777 9.29784 23.0777 9.29784L24.621 9.22943L27.0645 9.13825L30.2914 9.03563Z" fill="#085F8C"/>
<path d="M22.1363 10.6685C22.148 10.6457 22.148 10.6343 22.1948 10.6229C22.5104 10.4975 23.2704 10.3835 23.9602 11.0561C23.9719 11.0675 24.0186 11.1245 24.0186 11.1473C24.007 11.2043 23.4341 13.3133 22.7794 15.3882C22.452 16.4142 22.1012 17.4516 21.8206 18.2154C21.5517 18.9906 21.3413 19.4923 21.3413 19.4923C21.3413 19.4923 20.6398 20.7691 19.8565 21.5329C19.5525 21.8635 19.2952 22.0459 19.1082 22.1143C18.9211 22.1713 18.8159 22.1257 18.7808 22.0345C18.699 21.8521 18.8042 21.4759 18.9328 20.9971C18.8977 21.0313 19.0965 20.4955 19.2602 19.9027C19.4239 19.3213 19.5758 18.7056 19.5758 18.7056C19.5758 18.7056 19.7746 18.2268 20.0318 17.4972C20.3007 16.7676 20.6281 15.7758 20.9438 14.7726C21.5751 12.7661 22.1246 10.7255 22.1363 10.6685Z" fill="#085F8C"/>
<path d="M17.4537 16.6659C17.4069 16.6659 17.3952 16.6659 17.3251 16.6203C16.8808 16.3809 16.2143 15.7425 17.1848 14.8533C17.1964 14.8419 17.2783 14.7849 17.3251 14.7735L20.5403 14.5683L25.8833 14.2263L26.4562 14.1921L26.5147 14.1807L26.6082 14.1693C26.6628 14.1617 26.7212 14.1579 26.7836 14.1579C26.8927 14.1503 26.9979 14.1465 27.0992 14.1465C27.1538 14.1541 27.2045 14.1579 27.2512 14.1579C27.298 14.1579 27.3448 14.1693 27.4032 14.1693C27.528 14.1921 27.6371 14.2149 27.7306 14.2377C28.1047 14.3403 28.2801 14.4771 28.2801 14.4771C28.2801 14.4771 28.3619 14.5227 28.4789 14.6253C28.5958 14.7393 28.7594 14.9103 28.8764 15.1839C28.9933 15.4461 29.0401 15.7995 28.9816 16.1871C28.9738 16.2403 28.966 16.2859 28.9582 16.3239C28.9504 16.3619 28.9426 16.3999 28.9348 16.4379C28.9114 16.5139 28.8881 16.5861 28.8647 16.6545C28.8179 16.7913 28.7595 16.9282 28.6893 17.065C28.627 17.1942 28.5568 17.3234 28.4789 17.4526C28.4477 17.5134 28.4087 17.5742 28.3619 17.635L28.2567 17.806C28.1086 18.0264 27.9605 18.2506 27.8124 18.4786C27.5202 18.946 27.2395 19.4134 26.9823 19.8466C26.5731 20.5876 26.3276 21.0892 26.1522 21.3628C25.9769 21.6478 25.8716 21.7162 25.7898 21.6136C25.708 21.4996 25.6846 21.2146 25.7196 20.8156C25.7547 20.428 25.8599 19.9264 26.0119 19.402C25.9768 19.4476 26.0587 19.1626 26.2224 18.7066C26.3861 18.2506 26.6316 17.635 26.9122 17.0193C26.9473 16.9395 26.9823 16.8825 27.0057 16.8141C27.0369 16.7533 27.0642 16.6887 27.0876 16.6203C27.1226 16.4949 27.1694 16.3695 27.1811 16.2669C27.1967 16.2137 27.2084 16.1643 27.2162 16.1187C27.2162 16.0959 27.2162 16.0731 27.2162 16.0617C27.2162 16.0503 27.2162 16.0503 27.2045 16.0503C27.1967 16.0351 27.1889 16.0275 27.1811 16.0275C27.146 16.0161 27.1343 16.0503 27.1343 16.0389C27.0993 16.0389 27.0408 16.0389 26.9823 16.0389C26.9434 16.0389 26.9044 16.0389 26.8654 16.0389L26.807 16.0503L26.7017 16.0617L26.6433 16.0731L26.0119 16.1073L20.6689 16.4493L17.4537 16.6659Z" fill="#085F8C"/>
<path d="M12.9697 23.3441C12.9229 23.3441 12.8995 23.3441 12.8411 23.2985C12.4085 23.0363 11.7771 22.3637 12.7826 21.5315C12.7943 21.5201 12.8878 21.4631 12.9346 21.4517L16.1498 21.3947L25.3979 21.2237L27.1984 21.1895C27.1984 21.1895 30.1447 21.3148 32.2258 21.5428C33.9795 21.6796 34.5173 21.8507 34.342 22.0445C34.1666 22.2383 33.278 22.4435 32.1907 22.5803C32.3076 22.6031 31.0098 22.7285 29.677 22.8539L26.9879 23.0819L25.4446 23.1161L16.1849 23.2871L12.9697 23.3441Z" fill="#085F8C"/>
<defs>
<linearGradient id="paint0_linear_1690_41" x1="0.0876568" y1="0.198147" x2="50.0037" y2="0.198147" gradientUnits="userSpaceOnUse">
<stop stop-color="#F7EDD6"/>
<stop offset="1" stop-color="#BA9661"/>
</linearGradient>
<linearGradient id="paint1_linear_1690_41" x1="-0.00514431" y1="-0.00148107" x2="46.5499" y2="-0.00148107" gradientUnits="userSpaceOnUse">
<stop stop-color="#F7F2D6"/>
<stop offset="1" stop-color="#E8CC9E"/>
</linearGradient>
</defs>
</svg>
