<svg width="22" height="22" viewBox="0 0 22 22" fill="none" xmlns="http://www.w3.org/2000/svg">
<path d="M13.2761 4.91987C14.2933 5.55766 15.0066 6.63693 15.1364 7.88972C15.5513 8.08356 16.0117 8.19503 16.4999 8.19503C18.282 8.19503 19.7264 6.7506 19.7264 4.96874C19.7264 3.18662 18.282 1.74219 16.4999 1.74219C14.7348 1.74274 13.303 3.16136 13.2761 4.91987ZM11.1623 11.5262C12.9444 11.5262 14.3888 10.0815 14.3888 8.29963C14.3888 6.51778 12.9441 5.07335 11.1623 5.07335C9.38041 5.07335 7.93516 6.51805 7.93516 8.29991C7.93516 10.0818 9.38041 11.5262 11.1623 11.5262ZM12.5309 11.7461H9.79306C7.51509 11.7461 5.66185 13.5996 5.66185 15.8776V19.2258L5.67036 19.2782L5.90099 19.3504C8.0749 20.0297 9.96356 20.2562 11.5181 20.2562C14.5544 20.2562 16.3143 19.3905 16.4227 19.3353L16.6382 19.2263H16.6613V15.8776C16.6621 13.5996 14.8089 11.7461 12.5309 11.7461ZM17.8691 8.41522H15.1524C15.123 9.50218 14.659 10.481 13.9251 11.1849C15.9499 11.787 17.4314 13.6647 17.4314 15.8825V16.9143C20.1138 16.816 21.6596 16.0558 21.7614 16.0047L21.9769 15.8954H22V12.5462C22 10.2685 20.1468 8.41522 17.8691 8.41522ZM5.50069 8.19558C6.13189 8.19558 6.71916 8.01135 7.21665 7.69754C7.37479 6.66604 7.92774 5.76468 8.71763 5.15077C8.72093 5.09037 8.72669 5.03052 8.72669 4.96957C8.72669 3.18744 7.28199 1.74301 5.50069 1.74301C3.71828 1.74301 2.27413 3.18744 2.27413 4.96957C2.27413 6.75087 3.71828 8.19558 5.50069 8.19558ZM8.39833 11.1849C7.66802 10.4845 7.20567 9.51096 7.1719 8.43059C7.07113 8.42318 6.97147 8.41522 6.86879 8.41522H4.13121C1.85324 8.41522 0 10.2685 0 12.5462V15.8949L0.00851117 15.9465L0.239136 16.0193C1.9831 16.5637 3.53955 16.8146 4.89145 16.8937V15.8825C4.892 13.6647 6.37294 11.7876 8.39833 11.1849Z" fill="white"/>
</svg>
