<svg width="16" height="16" viewBox="0 0 16 16" fill="none" xmlns="http://www.w3.org/2000/svg">
<g clip-path="url(#clip0_1510_219000)">
<path d="M8 0.5C6.96591 0.5 6.125 1.34091 6.125 2.375C6.125 3.40909 6.96591 4.25 8 4.25C9.03409 4.25 9.875 3.40909 9.875 2.375C9.875 1.34091 9.03409 0.5 8 0.5Z" fill="white"/>
<path d="M13.1562 8.9375C12.1222 8.9375 11.2812 9.77841 11.2812 10.8125C11.2812 11.8466 12.1222 12.6875 13.1562 12.6875C14.1903 12.6875 15.0312 11.8466 15.0312 10.8125C15.0312 9.77841 14.1903 8.9375 13.1562 8.9375Z" fill="white"/>
<path d="M15.3036 12.6074C14.7872 13.2241 14.0217 13.6253 13.1562 13.6253C12.2908 13.6253 11.5253 13.2241 11.0089 12.6074C10.6 13.062 10.3438 13.6569 10.3438 14.3151V15.0315C10.3438 15.2906 10.5534 15.5003 10.8125 15.5003H15.5312C15.7903 15.5003 16 15.2906 16 15.0315V14.3151C16 13.6569 15.7125 13.062 15.3036 12.6074Z" fill="white"/>
<path d="M2.84375 8.9375C1.80966 8.9375 0.96875 9.77841 0.96875 10.8125C0.96875 11.8466 1.80966 12.6875 2.84375 12.6875C3.87784 12.6875 4.71875 11.8466 4.71875 10.8125C4.71875 9.77841 3.87784 8.9375 2.84375 8.9375Z" fill="white"/>
<path d="M4.99106 12.6074C4.47475 13.2241 3.70916 13.6253 2.84375 13.6253C1.97834 13.6253 1.21275 13.2241 0.696437 12.6074C0.287469 13.062 0 13.6569 0 14.3151V15.0315C0 15.2906 0.209656 15.5003 0.46875 15.5003H5.1875C5.44659 15.5003 5.65625 15.2906 5.65625 15.0315V14.3151C5.65625 13.6569 5.40003 13.062 4.99106 12.6074Z" fill="white"/>
<path d="M10.3438 7.06276C10.6028 7.06276 10.8125 6.85311 10.8125 6.59401V5.87761C10.8125 5.21936 10.5563 4.62448 10.1473 4.16992C9.631 4.78664 8.86541 5.18777 8 5.18777C7.13459 5.18777 6.369 4.78664 5.85269 4.16992C5.44372 4.62448 5.1875 5.21936 5.1875 5.87761V6.59401C5.1875 6.85311 5.39716 7.06276 5.65625 7.06276H7.53125V10.0514L5.63972 10.9764C5.61369 11.4199 5.48541 11.8326 5.27666 12.1977L7.99772 10.867L10.7474 12.242C10.5279 11.8734 10.3934 11.453 10.3628 11.0014L8.46875 10.0543V7.06276H10.3438Z" fill="white"/>
</g>
<defs>
<clipPath id="clip0_1510_219000">
<rect width="16" height="16" fill="white"/>
</clipPath>
</defs>
</svg>
