<svg width="18" height="18" viewBox="0 0 18 18" fill="none" xmlns="http://www.w3.org/2000/svg">
<g clip-path="url(#clip0_1690_37522)">
<path d="M14.8019 5.25767C15.5601 5.08096 16.0316 4.32307 15.8549 3.56489C15.6782 2.80671 14.9202 2.33534 14.162 2.51206C13.4037 2.68877 12.9323 3.44666 13.109 4.20484C13.2857 4.96302 14.0436 5.43439 14.8019 5.25767Z" fill="#E1CFFF"/>
<path d="M14.7867 6.37175C14.7895 6.36855 14.7917 6.36599 14.7937 6.36386C14.9064 6.17719 15.1113 6.06157 15.3302 6.06157C15.4309 6.06157 15.5315 6.08645 15.6213 6.13345C15.7692 6.21134 15.8784 6.34211 15.9281 6.50184C15.9777 6.66175 15.9625 6.83131 15.8846 6.97951C15.865 7.01842 15.6669 7.38856 15.0547 7.70419C14.9095 7.77945 14.7517 7.84637 14.5831 7.90565C14.6947 8.48045 14.8007 9.12706 14.8021 9.75067H12.6038C12.3578 9.75067 12.1287 9.86434 11.9799 10.0603C11.8312 10.2562 11.7832 10.5075 11.8495 10.7445L12.7999 14.1491C12.8965 14.4952 13.2112 14.7219 13.5537 14.722C13.6234 14.722 13.6943 14.7126 13.7648 14.6929C14.1815 14.5767 14.4249 14.1446 14.3087 13.7279L13.6358 11.317L15.6547 11.3172C15.7007 11.3172 15.7456 11.3125 15.7894 11.3049C16.3013 11.2711 16.8363 11.0732 17.0048 10.2055C17.1669 8.81343 17.0752 7.99062 16.6488 6.72648C16.3333 5.80898 15.5578 5.51842 15.023 5.65183C14.6316 5.74933 14.401 6.17505 14.3756 6.64076C14.6181 6.53148 14.7356 6.4284 14.7867 6.37175Z" fill="#E1CFFF"/>
<path d="M12.5417 7.51511C12.5638 7.68103 12.5198 7.84558 12.4181 7.97855C12.3787 8.02981 12.3322 8.07317 12.2812 8.10927C13.6235 8.10833 14.469 7.86883 15.0005 7.59337C15.5327 7.3191 15.7357 7.00366 15.7767 6.92189C15.9056 6.67681 15.8112 6.37378 15.566 6.24514C15.328 6.12006 15.0354 6.20541 14.9009 6.43475C14.8984 6.43801 14.8931 6.44509 14.8829 6.45643C14.8317 6.51339 14.6724 6.66936 14.2773 6.81912C13.8876 6.96625 13.2654 7.10329 12.309 7.10649C12.4373 7.20794 12.5202 7.3525 12.5417 7.51511Z" fill="#E1CFFF"/>
<path d="M17.3191 15.524H17.9988L17.7923 11.5293H14.7728L14.5664 15.524H15.2459L15.3009 14.4598H17.2642L17.3191 15.524ZM15.3183 14.1204L15.4172 12.2079H17.1479L17.2466 14.1204H15.3183Z" fill="#E1CFFF"/>
<path d="M4.89393 4.20659C5.07063 3.44841 4.59919 2.69053 3.84095 2.51381C3.0827 2.3371 2.32477 2.80846 2.14807 3.56665C1.97137 4.32483 2.44281 5.08271 3.20105 5.25943C3.9593 5.43614 4.71723 4.96478 4.89393 4.20659Z" fill="#E1CFFF"/>
<path d="M2.11221 6.97719C2.03545 6.83125 2.02004 6.66169 2.06985 6.50184C2.11954 6.34205 2.2287 6.21109 2.37677 6.13338C2.4665 6.08626 2.56695 6.06139 2.66771 6.06139C2.88615 6.06139 3.09068 6.17681 3.20366 6.36285C3.20792 6.36824 3.21562 6.37739 3.22828 6.38999C3.27515 6.43711 3.36338 6.51005 3.52041 6.59163C3.55137 6.60774 3.58602 6.62422 3.62236 6.6407C3.59705 6.17499 3.36633 5.74933 2.97507 5.65183C2.44012 5.51842 1.66468 5.80898 1.34918 6.72648C0.922764 7.99062 0.83109 8.81343 0.993134 10.2055C1.16163 11.0727 1.69626 11.2708 2.20771 11.3048C2.25189 11.3125 2.29694 11.3173 2.34331 11.3173V11.3172H4.36221L3.68935 13.7279C3.57299 14.1445 3.81636 14.5766 4.23313 14.6931C4.3035 14.7127 4.37437 14.722 4.44399 14.722C4.78681 14.722 5.10143 14.4954 5.19825 14.1492L6.14858 10.7445C6.21468 10.5076 6.16681 10.2563 6.01799 10.0603C5.86917 9.86434 5.64007 9.75073 5.39419 9.75073H3.19582C3.19726 9.12712 3.30341 8.48039 3.41501 7.90559C3.24614 7.84625 3.08823 7.77926 2.94286 7.70394C2.33103 7.38856 2.13276 7.01836 2.11221 6.97719Z" fill="#E1CFFF"/>
<path d="M3.46366 6.70353C3.28645 6.61148 3.18951 6.52826 3.14082 6.47932C3.11657 6.45501 3.1046 6.43903 3.10091 6.43402C2.96618 6.20524 2.67393 6.12027 2.43625 6.24503C2.19112 6.37374 2.09688 6.67677 2.22552 6.92184C2.26638 7.00361 2.46946 7.31905 3.00171 7.59339C3.53302 7.86879 4.37858 8.10834 5.7208 8.10928C5.66979 8.07313 5.62324 8.02983 5.58407 7.97851C5.37603 7.70693 5.4256 7.31793 5.69298 7.10638C4.48605 7.10212 3.81331 6.88543 3.46366 6.70353Z" fill="#E1CFFF"/>
<path d="M0.734585 14.4598H2.69791L2.75286 15.524H3.43237L3.22602 11.5293H0.206471L0 15.5241H0.679631L0.734585 14.4598ZM0.850823 12.208H2.58148L2.68036 14.1205H0.752068L0.850823 12.208Z" fill="#E1CFFF"/>
<path d="M14.1354 9.32043V8.24609H10.7024L10.6367 9.32043H14.1354Z" fill="#E1CFFF"/>
<path d="M3.86719 8.24609V9.32043H7.36547L7.29981 8.24609H3.86719Z" fill="#E1CFFF"/>
<path d="M7.62642 5.84448C7.5553 5.85933 7.4863 5.88941 7.42471 5.93653L5.77463 7.20017C5.77206 7.20211 5.76987 7.2043 5.76743 7.20625C5.76104 7.21132 5.75508 7.21665 5.74894 7.22198C5.74217 7.22787 5.73559 7.23369 5.72933 7.23977C5.72457 7.24447 5.72005 7.24936 5.71548 7.25418C5.70852 7.26145 5.70163 7.26872 5.6953 7.27637C5.69173 7.28063 5.68854 7.28508 5.68515 7.2894C5.67845 7.29786 5.6718 7.30638 5.66579 7.31522C5.66272 7.31967 5.66002 7.32437 5.65708 7.32894C5.65131 7.3379 5.64567 7.34686 5.64054 7.35607C5.63747 7.36159 5.6349 7.36729 5.63208 7.37287C5.62769 7.38151 5.62324 7.3901 5.61948 7.399C5.61654 7.40576 5.61409 7.41272 5.6114 7.41967C5.60833 7.42769 5.60513 7.43572 5.60256 7.44392C5.60012 7.45144 5.59818 7.45921 5.59605 7.46692C5.59385 7.47494 5.59153 7.48296 5.58978 7.49105C5.58821 7.49844 5.58696 7.50596 5.58577 7.51348C5.5842 7.52238 5.5827 7.53127 5.58163 7.54024C5.58088 7.54694 5.58038 7.55377 5.57994 7.5606C5.57919 7.57069 5.57863 7.58078 5.5785 7.59093C5.57838 7.59337 5.57812 7.59575 5.57812 7.5982C5.57812 7.60208 5.57863 7.6059 5.57875 7.60979C5.57888 7.62019 5.57938 7.63053 5.58019 7.64093C5.58082 7.64751 5.58151 7.65403 5.58239 7.66048C5.58345 7.67013 5.58496 7.67978 5.58677 7.68937C5.58803 7.69639 5.58947 7.70328 5.59103 7.71017C5.59298 7.71895 5.59529 7.72766 5.59774 7.73643C5.59981 7.74382 5.60212 7.75116 5.60457 7.75836C5.60726 7.76638 5.61021 7.77428 5.61328 7.78211C5.61635 7.78982 5.61967 7.7974 5.62305 7.80492C5.62625 7.812 5.62963 7.81914 5.6332 7.8261C5.63734 7.83418 5.64166 7.84208 5.64618 7.84985C5.64987 7.85605 5.65351 7.86219 5.65745 7.86833C5.66272 7.8766 5.66836 7.88456 5.67412 7.89246C5.67657 7.8959 5.67863 7.89948 5.68133 7.90292C5.68265 7.90474 5.6844 7.90637 5.68584 7.90819C5.69455 7.91921 5.7037 7.92968 5.71329 7.93989C5.71648 7.9434 5.71955 7.94704 5.72281 7.95042C5.73516 7.96295 5.74813 7.97486 5.76172 7.98601C5.76636 7.98977 5.77125 7.99303 5.77607 7.99666C5.78547 8.00387 5.79519 8.01101 5.80509 8.01759C5.8111 8.02148 5.81718 8.02499 5.82332 8.02862C5.83285 8.03432 5.84243 8.03971 5.85233 8.04473C5.85835 8.0478 5.8643 8.05074 5.87044 8.0535C5.8811 8.05839 5.892 8.06284 5.90303 8.06703C5.90867 8.0691 5.91418 8.07123 5.91982 8.07317C5.93204 8.07725 5.94445 8.08069 5.95704 8.08389C5.9618 8.08514 5.96657 8.08652 5.97152 8.08765C5.98536 8.09066 5.99953 8.09291 6.01375 8.09479C6.01757 8.09529 6.02121 8.09611 6.02503 8.09648C6.04289 8.09843 6.061 8.09956 6.07948 8.09956H6.59362H7.28817L7.24167 7.33953L7.36161 7.24767L7.52246 9.87734H7.39689H7.31919C7.09536 9.87734 6.88494 9.97127 6.73562 10.1381C6.58629 10.3048 6.51592 10.524 6.54055 10.7466L6.91652 14.1511C6.94002 14.3639 7.04711 14.5466 7.20094 14.6719L7.36361 11.524L7.36988 11.405H7.48881H10.5082H10.6272L10.6333 11.524L10.7961 14.6718C10.9498 14.5466 11.0569 14.3639 11.0804 14.1511L11.4564 10.7465C11.481 10.5241 11.4106 10.3048 11.2613 10.1381C11.1119 9.97127 10.9018 9.87734 10.6779 9.87734H10.6H10.4745L10.6353 7.24773L10.7552 7.33959L10.7088 8.09949H11.4034H11.9163C11.9167 8.09949 11.9169 8.09956 11.9172 8.09956C11.9199 8.09956 11.9226 8.09912 11.9253 8.09912C11.9408 8.09887 11.9561 8.09811 11.9713 8.09648C11.9762 8.09598 11.981 8.09498 11.9859 8.09429C11.999 8.09247 12.012 8.09047 12.0248 8.08771C12.0302 8.08646 12.0356 8.08489 12.041 8.08358C12.053 8.08051 12.0649 8.07731 12.0765 8.07336C12.0825 8.07136 12.0883 8.0691 12.0943 8.06685C12.105 8.06284 12.1155 8.05845 12.1258 8.05375C12.1322 8.05087 12.1385 8.0478 12.1448 8.0446C12.1544 8.03971 12.1638 8.03445 12.173 8.02894C12.1793 8.02524 12.1855 8.0216 12.1918 8.01753C12.2015 8.01101 12.211 8.00406 12.2204 7.99698C12.2252 7.99328 12.2302 7.98996 12.2349 7.98601C12.2485 7.97486 12.2615 7.96302 12.2739 7.95055C12.2773 7.9471 12.2804 7.94334 12.2836 7.9397C12.293 7.92962 12.3022 7.91921 12.3108 7.90837C12.3123 7.90649 12.314 7.90487 12.3155 7.90299C12.318 7.89954 12.3202 7.8959 12.3227 7.8924C12.3284 7.88456 12.334 7.8766 12.3392 7.86846C12.3432 7.86232 12.3468 7.85618 12.3505 7.84991C12.355 7.84208 12.3595 7.83425 12.3636 7.82616C12.3672 7.81921 12.3704 7.81219 12.3737 7.80511C12.3772 7.79753 12.3803 7.78988 12.3835 7.78211C12.3866 7.77428 12.3894 7.76651 12.3921 7.75861C12.3945 7.75128 12.3969 7.74389 12.3991 7.73637C12.4015 7.72766 12.4037 7.71907 12.4056 7.71036C12.4072 7.70341 12.4087 7.69639 12.41 7.68925C12.4117 7.67972 12.4132 7.67013 12.4144 7.66055C12.4152 7.65403 12.416 7.64751 12.4165 7.64093C12.4174 7.63059 12.4179 7.62019 12.418 7.60985C12.4182 7.60597 12.4187 7.60215 12.4187 7.59826C12.4187 7.59582 12.4183 7.59344 12.4183 7.59099C12.418 7.58078 12.4174 7.57069 12.4167 7.56054C12.4162 7.55377 12.4159 7.54707 12.415 7.54036C12.414 7.53134 12.4125 7.52238 12.411 7.51335C12.4097 7.5059 12.4086 7.49844 12.407 7.49111C12.4052 7.4829 12.4029 7.47482 12.4006 7.46673C12.3986 7.45909 12.3967 7.45144 12.3942 7.44399C12.3915 7.43578 12.3883 7.42769 12.3853 7.41955C12.3826 7.41272 12.3801 7.40576 12.3773 7.39906C12.3734 7.3901 12.369 7.38145 12.3646 7.37268C12.3618 7.36716 12.3592 7.36159 12.3563 7.3562C12.351 7.34686 12.3452 7.33777 12.3395 7.32875C12.3367 7.3243 12.334 7.31967 12.3311 7.31534C12.3249 7.30644 12.3183 7.29786 12.3116 7.28934C12.3081 7.28508 12.305 7.28063 12.3014 7.27649C12.2951 7.26878 12.2881 7.26152 12.2811 7.25418C12.2767 7.24942 12.2722 7.2446 12.2675 7.23996C12.2612 7.23382 12.2544 7.22793 12.2479 7.22204C12.2417 7.21671 12.2358 7.21145 12.2294 7.20644C12.2269 7.20449 12.2247 7.2023 12.2223 7.20036L10.572 5.93666C10.5106 5.8896 10.4416 5.85952 10.3704 5.84461C10.3199 5.82668 10.2657 5.81641 10.2089 5.81641H9.91552H8.08122H7.78783C7.73119 5.81628 7.67698 5.82656 7.62642 5.84448Z" fill="#E1CFFF"/>
<path d="M9.33626 5.50572C10.128 5.32119 10.6203 4.52975 10.4358 3.738C10.2513 2.94624 9.45982 2.454 8.66803 2.63853C7.87625 2.82306 7.38396 3.6145 7.56849 4.40625C7.75301 5.19801 8.54447 5.69025 9.33626 5.50572Z" fill="#E1CFFF"/>
<path d="M8.29354 12.334H8.25375L8.16797 13.996H8.47627C8.47576 13.9903 8.47589 13.9847 8.47526 13.979L8.29354 12.334Z" fill="#E1CFFF"/>
<path d="M8.12891 14.7165C8.18449 14.6794 8.23455 14.6354 8.27861 14.5859H8.13567L8.12891 14.7165Z" fill="#E1CFFF"/>
<path d="M9.70616 12.334L9.52444 13.979C9.52381 13.9847 9.52394 13.9903 9.52344 13.996H9.83199L9.74608 12.334H9.70616Z" fill="#E1CFFF"/>
<path d="M9.71875 14.5859C9.76293 14.6354 9.81299 14.6796 9.8687 14.7167L9.862 14.5859H9.71875Z" fill="#E1CFFF"/>
<path d="M7.49163 11.5293L7.28516 15.524H7.96479L8.01974 14.4598H9.98306L10.038 15.524H10.7175L10.5111 11.5293H7.49163ZM8.03722 14.1204L8.13598 12.2079H9.86664L9.96552 14.1204H8.03722Z" fill="#E1CFFF"/>
</g>
<defs>
<clipPath id="clip0_1690_37522">
<rect width="18" height="18" fill="#E1CFFF"/>
</clipPath>
</defs>
</svg>
