<svg width="20" height="21" viewBox="0 0 20 21" fill="none" xmlns="http://www.w3.org/2000/svg">
<path d="M19.4872 16.9875L3.81314 1.31347C3.12955 0.629884 2.02128 0.629884 1.33876 1.31347L0.512691 2.13826C-0.170897 2.82207 -0.170897 3.93033 0.512691 4.61285L16.1867 20.2869C16.8705 20.9705 17.9788 20.9705 18.6613 20.2869L19.4861 19.4621C20.171 18.7796 20.171 17.6711 19.4872 16.9875Z" fill="#F44336"/>
<path d="M16.1867 1.31331L0.512691 16.9873C-0.170897 17.6709 -0.170897 18.7794 0.512691 19.4619L1.33748 20.2867C2.02128 20.9703 3.12955 20.9703 3.81207 20.2867L19.4872 4.61376C20.171 3.93017 20.171 2.82191 19.4872 2.13939L18.6624 1.31459C17.9788 0.629724 16.8705 0.629724 16.1867 1.31331Z" fill="#F44336"/>
</svg>
