<svg width="16" height="17" viewBox="0 0 16 17" fill="none" xmlns="http://www.w3.org/2000/svg">
<g clip-path="url(#clip0_1690_24632)">
<path d="M0.255739 8.87052L6.0339 14.6488C6.19884 14.8138 6.41868 14.9043 6.65308 14.9043C6.88775 14.9043 7.10745 14.8136 7.2724 14.6488L7.79701 14.1241C7.96182 13.9594 8.05262 13.7394 8.05262 13.5049C8.05262 13.2705 7.96182 13.0431 7.79701 12.8784L4.42611 9.50011L15.1356 9.50011C15.6185 9.50011 16 9.1221 16 8.63911L16 7.89726C16 7.41428 15.6185 6.99815 15.1356 6.99815L4.38787 6.99815L7.79688 3.60097C7.96169 3.43603 8.05249 3.22205 8.05249 2.98751C8.05249 2.75324 7.96169 2.53614 7.79688 2.37132L7.27227 1.84827C7.10733 1.68333 6.88762 1.59344 6.65296 1.59344C6.41855 1.59344 6.19872 1.6845 6.03377 1.84944L0.255608 7.62761C0.0902764 7.79307 -0.000649804 8.01394 1.53552e-06 8.24874C-0.000518238 8.48431 0.0902763 8.70532 0.255739 8.87052Z" fill="white" fill-opacity="0.6"/>
</g>
<defs>
<clipPath id="clip0_1690_24632">
<rect width="16" height="16" fill="white" transform="translate(16 16.248) rotate(-180)"/>
</clipPath>
</defs>
</svg>
