<svg width="21" height="20" viewBox="0 0 21 20" fill="none" xmlns="http://www.w3.org/2000/svg">
<path d="M7.64453 6.42969C8.03739 6.42969 8.35882 6.10826 8.35882 5.7154V5.00112C8.35882 3.8154 9.31596 2.85826 10.5017 2.85826C11.6874 2.85826 12.6445 3.8154 12.6445 5.00112V5.7154C12.6445 6.10826 12.966 6.42969 13.3588 6.42969C13.7517 6.42969 14.0731 6.10826 14.0731 5.7154V5.00112C14.0731 3.02969 12.4731 1.42969 10.5017 1.42969C8.53025 1.42969 6.93025 3.02969 6.93025 5.00112V5.7154C6.93025 6.10826 7.25167 6.42969 7.64453 6.42969ZM10.5017 12.144C8.53025 12.144 6.93025 10.544 6.93025 8.57254C6.93025 8.17969 7.25167 7.85826 7.64453 7.85826C8.03739 7.85826 8.35882 8.17969 8.35882 8.57254C8.35882 9.75826 9.31596 10.7154 10.5017 10.7154C11.6874 10.7154 12.6445 9.75826 12.6445 8.57254C12.6445 8.17969 12.966 7.85826 13.3588 7.85826C13.7517 7.85826 14.0731 8.17969 14.0731 8.57254C14.0731 10.544 12.4731 12.144 10.5017 12.144ZM18.3588 14.2154L17.6445 7.14397C17.6445 5.95826 16.6874 5.00112 15.5017 5.00112H5.50167C4.34453 4.99397 3.39453 5.9154 3.35882 7.07254L2.64453 14.2868C2.64453 16.6511 4.56596 18.5725 6.93025 18.5725H14.0731C16.4517 18.5654 18.366 16.6297 18.3588 14.2511C18.3588 14.244 18.3588 14.2297 18.3588 14.2154Z" fill="white"/>
</svg>
