<svg width="20" height="20" viewBox="0 0 20 20" fill="none" xmlns="http://www.w3.org/2000/svg">
<g clip-path="url(#clip0_1510_217894)">
<path d="M5.08743 5.40234L3.35471 5.53621C2.87257 5.57348 2.44315 5.82617 2.17652 6.22949L0.178211 9.25181C-0.0240135 9.55766 -0.0561617 9.94043 0.0921575 10.2757C0.240516 10.6111 0.545396 10.8447 0.907698 10.9009L2.49421 11.1466C2.86534 9.17704 3.75377 7.21237 5.08743 5.40234Z" fill="white"/>
<path d="M8.85547 17.5053L9.10121 19.0918C9.15734 19.4541 9.39101 19.759 9.72628 19.9073C9.86577 19.9691 10.0134 19.9995 10.1603 19.9995C10.3667 19.9995 10.5716 19.9394 10.7503 19.8213L13.7727 17.823C14.176 17.5563 14.4287 17.1269 14.4659 16.6448L14.5997 14.9121C12.7897 16.2458 10.825 17.1342 8.85547 17.5053Z" fill="white"/>
<path d="M8.25789 16.4063C8.31297 16.4063 8.36836 16.4017 8.42364 16.3925C9.24879 16.2546 10.0441 16.0221 10.8028 15.7179L4.28211 9.19727C3.97789 9.95589 3.74547 10.7512 3.6075 11.5764C3.55313 11.9017 3.66223 12.233 3.89539 12.4662L7.5338 16.1046C7.72739 16.2982 7.98868 16.4063 8.25789 16.4063Z" fill="white"/>
<path d="M18.4048 8.86724C20.0004 5.78234 20.0595 2.52236 19.9761 0.993469C19.9476 0.469606 19.5299 0.0519527 19.006 0.0233983C18.7571 0.00980461 18.462 0 18.1295 0C16.4199 0 13.7148 0.258943 11.1323 1.59475C9.07985 2.65635 6.38858 4.99387 4.80078 8.06579C4.81953 8.08044 4.83785 8.09599 4.85512 8.11326L11.8863 15.1445C11.9036 15.1617 11.9191 15.18 11.9337 15.1987C15.0057 13.6109 17.3432 10.9196 18.4048 8.86724ZM11.6283 4.22809C12.7705 3.08587 14.6291 3.08576 15.7714 4.22809C16.3248 4.78141 16.6295 5.51714 16.6295 6.29968C16.6295 7.08221 16.3248 7.81795 15.7714 8.37126C15.2003 8.94231 14.45 9.2279 13.6999 9.22797C12.9495 9.22801 12.1995 8.94247 11.6283 8.37126C11.0749 7.81795 10.7701 7.08221 10.7701 6.29968C10.7701 5.51714 11.0749 4.78141 11.6283 4.22809Z" fill="white"/>
<path d="M12.4563 7.54289C13.1416 8.22824 14.2568 8.22828 14.9422 7.54289C15.2742 7.21086 15.457 6.76945 15.457 6.29992C15.457 5.83039 15.2742 5.38898 14.9422 5.05699C14.5995 4.7143 14.1494 4.54297 13.6992 4.54297C13.2491 4.54297 12.7989 4.7143 12.4563 5.05699C12.1243 5.38898 11.9414 5.83039 11.9414 6.29992C11.9414 6.76945 12.1243 7.2109 12.4563 7.54289Z" fill="white"/>
<path d="M0.597676 16.4814C0.747637 16.4814 0.897598 16.4242 1.01197 16.3097L2.92498 14.3967C3.15381 14.1679 3.15381 13.7969 2.92498 13.5681C2.69619 13.3393 2.32518 13.3393 2.09635 13.5681L0.18334 15.4811C-0.0454883 15.7099 -0.0454883 16.0809 0.18334 16.3097C0.297754 16.4242 0.447715 16.4814 0.597676 16.4814Z" fill="white"/>
<path d="M4.67818 15.322C4.44939 15.0932 4.07838 15.0932 3.84955 15.322L0.171621 18.9999C-0.057207 19.2288 -0.057207 19.5997 0.171621 19.8286C0.286035 19.943 0.435996 20.0002 0.585957 20.0002C0.735918 20.0002 0.885879 19.943 1.00025 19.8285L4.67814 16.1506C4.90701 15.9218 4.90701 15.5508 4.67818 15.322Z" fill="white"/>
<path d="M5.60412 17.074L3.69115 18.987C3.46232 19.2158 3.46232 19.5868 3.69115 19.8156C3.80557 19.93 3.95553 19.9872 4.10545 19.9872C4.25537 19.9872 4.40537 19.9301 4.51975 19.8156L6.43275 17.9026C6.66158 17.6738 6.66158 17.3028 6.43275 17.074C6.20397 16.8451 5.83295 16.8451 5.60412 17.074Z" fill="white"/>
</g>
<defs>
<clipPath id="clip0_1510_217894">
<rect width="20" height="20" fill="white"/>
</clipPath>
</defs>
</svg>
