<svg width="23" height="23" viewBox="0 0 23 23" fill="none" xmlns="http://www.w3.org/2000/svg">
<path d="M11.5 0C9.22552 0 7.00211 0.674463 5.11095 1.9381C3.21978 3.20174 1.7458 4.99779 0.875391 7.09914C0.00498274 9.20049 -0.222756 11.5128 0.220974 13.7435C0.664705 15.9743 1.75997 18.0234 3.36828 19.6317C4.97658 21.24 7.02568 22.3353 9.25647 22.779C11.4872 23.2228 13.7995 22.995 15.9009 22.1246C18.0022 21.2542 19.7983 19.7802 21.0619 17.8891C22.3255 15.9979 23 13.7745 23 11.5C23 8.45001 21.7884 5.52494 19.6317 3.36827C17.4751 1.2116 14.55 0 11.5 0ZM15.7096 7.36757C16.0015 7.36727 16.287 7.45358 16.5298 7.61557C16.7727 7.77757 16.962 8.00797 17.0739 8.27761C17.1857 8.54726 17.2151 8.84402 17.1582 9.13035C17.1013 9.41667 16.9608 9.67969 16.7543 9.88611C16.5479 10.0925 16.2849 10.2331 15.9986 10.2899C15.7122 10.3468 15.4155 10.3175 15.1458 10.2056C14.8762 10.0938 14.6458 9.90445 14.4838 9.6616C14.3218 9.41875 14.2355 9.1333 14.2358 8.84138C14.2358 8.4505 14.3911 8.07563 14.6675 7.79924C14.9439 7.52284 15.3187 7.36757 15.7096 7.36757ZM7.2904 7.36757C7.58232 7.36727 7.86777 7.45358 8.11062 7.61557C8.35347 7.77757 8.5428 8.00797 8.65465 8.27761C8.7665 8.54726 8.79585 8.84402 8.73897 9.13035C8.68209 9.41667 8.54155 9.67969 8.33513 9.88611C8.12871 10.0925 7.86569 10.2331 7.57936 10.2899C7.29304 10.3468 6.99627 10.3175 6.72663 10.2056C6.45699 10.0938 6.22659 9.90445 6.06459 9.6616C5.9026 9.41875 5.81628 9.1333 5.81658 8.84138C5.81698 8.45063 5.97239 8.07599 6.2487 7.79968C6.525 7.52337 6.89964 7.36797 7.2904 7.36757ZM17.9763 14.4325C17.4936 17.188 14.7775 19.0991 11.5 19.0991C8.2225 19.0991 5.5079 17.188 5.0252 14.4325C5.02002 14.4045 5.01698 14.3762 5.01612 14.3478C5.01612 13.9498 5.50033 13.6926 5.92402 13.8378C7.55823 14.4022 9.46481 14.6897 11.5015 14.6897C13.5382 14.6897 15.4448 14.4022 17.079 13.8378C17.5012 13.6865 17.9869 13.9483 17.9869 14.3478C17.9856 14.3762 17.982 14.4046 17.9763 14.4325Z" fill="#ED9108"/>
</svg>
