<svg width="14" height="14" viewBox="0 0 14 14" fill="none" xmlns="http://www.w3.org/2000/svg">
<path d="M9.07016 9.6477C8.95544 9.64734 8.84337 9.61316 8.74798 9.54944C8.65258 9.48572 8.57809 9.39529 8.53383 9.28945C8.48957 9.18361 8.47749 9.06707 8.49912 8.95441C8.52074 8.84175 8.57511 8.73796 8.65541 8.65603C9.09292 8.21638 9.33852 7.62137 9.33852 7.00112C9.33852 6.38087 9.09292 5.78586 8.65541 5.3462C8.54961 5.23562 8.4915 5.08788 8.49362 4.93484C8.49575 4.78181 8.55793 4.63574 8.66676 4.52813C8.77559 4.42052 8.92236 4.35999 9.07541 4.3596C9.22846 4.35921 9.37553 4.41898 9.48491 4.52603C10.1384 5.18401 10.5052 6.07375 10.5052 7.00112C10.5052 7.92849 10.1384 8.81823 9.48491 9.4762C9.43053 9.53076 9.36588 9.574 9.29469 9.60344C9.2235 9.63287 9.14719 9.64792 9.07016 9.6477ZM5.35024 9.47912C5.46022 9.37035 5.5225 9.22235 5.52337 9.06767C5.52425 8.91299 5.46365 8.76429 5.35491 8.65428C4.91741 8.21463 4.6718 7.61962 4.6718 6.99937C4.6718 6.37912 4.91741 5.78411 5.35491 5.34445C5.41023 5.29031 5.45423 5.22569 5.48433 5.15437C5.51443 5.08305 5.53003 5.00646 5.53023 4.92904C5.53043 4.85163 5.51522 4.77496 5.48548 4.70349C5.45575 4.63201 5.41209 4.56717 5.35704 4.51275C5.30199 4.45832 5.23666 4.41539 5.16486 4.38647C5.09305 4.35754 5.01621 4.3432 4.93881 4.34428C4.8614 4.34535 4.78499 4.36182 4.71401 4.39272C4.64304 4.42363 4.57893 4.46835 4.52541 4.52428C3.87189 5.18226 3.50512 6.072 3.50512 6.99937C3.50512 7.92674 3.87189 8.81648 4.52541 9.47445C4.63418 9.58443 4.78218 9.64671 4.93686 9.64758C5.09154 9.64846 5.24024 9.58786 5.35024 9.47912ZM11.3405 10.8908C12.3046 9.824 12.8384 8.43729 12.8384 6.99937C12.8384 5.56145 12.3046 4.17473 11.3405 3.10795C11.2367 2.99323 11.0916 2.92445 10.937 2.91674C10.7825 2.90903 10.6313 2.96302 10.5165 3.06683C10.4018 3.17064 10.333 3.31577 10.3253 3.47029C10.3176 3.62481 10.3716 3.77607 10.4754 3.89078C11.2454 4.74305 11.6717 5.85077 11.6717 6.99937C11.6717 8.14797 11.2454 9.25569 10.4754 10.108C10.3716 10.2227 10.3176 10.3739 10.3253 10.5284C10.333 10.683 10.4018 10.8281 10.5165 10.9319C10.6313 11.0357 10.7825 11.0897 10.937 11.082C11.0916 11.0743 11.2367 11.0055 11.3405 10.8908ZM3.49349 10.9316C3.60817 10.8279 3.67695 10.6828 3.68472 10.5284C3.69248 10.3739 3.6386 10.2227 3.53491 10.108C2.76489 9.25569 2.33859 8.14797 2.33859 6.99937C2.33859 5.85077 2.76489 4.74305 3.53491 3.89078C3.58631 3.83398 3.62602 3.76761 3.65177 3.69546C3.67753 3.62331 3.68881 3.5468 3.685 3.47029C3.68118 3.39378 3.66233 3.31877 3.62952 3.24954C3.59671 3.18031 3.55059 3.11823 3.49379 3.06683C3.43698 3.01542 3.37061 2.97571 3.29846 2.94996C3.22632 2.92421 3.1498 2.91292 3.07329 2.91674C2.91877 2.92445 2.77364 2.99323 2.66983 3.10795C1.70568 4.17473 1.17188 5.56145 1.17188 6.99937C1.17187 8.43729 1.70568 9.824 2.66983 10.8908C2.77367 11.0054 2.91876 11.074 3.07321 11.0817C3.22766 11.0894 3.37883 11.0354 3.49349 10.9316ZM7.00516 6.12437C6.8321 6.12437 6.66293 6.17569 6.51904 6.27183C6.37514 6.36798 6.26299 6.50463 6.19677 6.66452C6.13054 6.82441 6.11321 7.00034 6.14697 7.17007C6.18074 7.33981 6.26407 7.49572 6.38644 7.61809C6.50881 7.74046 6.66472 7.82379 6.83446 7.85755C7.00419 7.89132 7.18012 7.87399 7.34001 7.80776C7.49989 7.74154 7.63655 7.62938 7.7327 7.48549C7.82884 7.3416 7.88016 7.17243 7.88016 6.99937C7.88016 6.7673 7.78797 6.54474 7.62388 6.38065C7.45978 6.21656 7.23723 6.12437 7.00516 6.12437Z" fill="white"/>
</svg>
