<svg width="21" height="28" viewBox="0 0 21 28" fill="none" xmlns="http://www.w3.org/2000/svg">
<g filter="url(#filter0_i_1690_47396)">
<path d="M20.4033 24.8063C20.4033 26.2219 19.2555 27.3708 17.8413 27.3708H2.56194C1.14775 27.3708 0 26.2219 0 24.8063L0 3.19333C0 1.77777 1.14775 0.628906 2.56194 0.628906H17.8413C19.2555 0.628906 20.4033 1.77777 20.4033 3.19333V24.8063Z" fill="#FFF4E3"/>
</g>
<path d="M9.45207 13.2508C9.45207 13.2662 9.45207 13.2714 9.44182 13.2868C9.41108 13.3534 9.3496 13.4304 9.26761 13.4458C9.18563 13.4663 9.0934 13.4304 8.98067 13.3226C8.97555 13.3226 8.96018 13.3022 8.95505 13.2919C8.95505 13.2868 8.94993 13.2098 8.92943 13.0816C8.90381 12.9534 8.8577 12.7687 8.78596 12.5533C8.71423 12.3533 8.622 12.1276 8.50415 11.8968C8.38118 11.6712 8.23771 11.4404 8.07375 11.2455C7.98664 11.1531 7.89953 11.066 7.81243 11.0044C7.76802 10.9736 7.72362 10.948 7.67921 10.9275C7.66897 10.9224 7.65871 10.9172 7.64847 10.9121L7.63822 10.907L7.61772 10.9018C7.59722 10.8967 7.56648 10.8916 7.54086 10.8813C7.32566 10.83 7.11558 10.8146 6.95674 10.8146C6.69542 10.8198 6.53659 10.8506 6.53659 10.8506C6.53659 10.8506 6.36238 10.8557 6.14205 10.9121C6.02933 10.9429 5.90635 10.9839 5.79362 11.0403C5.67578 11.0967 5.57329 11.1737 5.49131 11.2557C5.35809 11.4045 5.30686 11.5378 5.27099 11.6147C5.23512 11.6917 5.21462 11.7173 5.189 11.6917C5.16851 11.666 5.14802 11.5891 5.15314 11.4814C5.15826 11.3686 5.19413 11.225 5.27611 11.0865C5.26586 11.0967 5.30686 11.0147 5.39909 10.9121C5.49644 10.8044 5.65015 10.6813 5.81412 10.5941C6.15229 10.4095 6.53146 10.353 6.53146 10.3479C6.53146 10.353 6.6903 10.3223 6.95674 10.3223C7.13608 10.3223 7.37177 10.3325 7.64334 10.3992C7.67408 10.406 7.70654 10.4146 7.7407 10.4248C7.76119 10.43 7.77656 10.4351 7.80218 10.4402C7.82268 10.4505 7.84317 10.4556 7.86367 10.4659C7.94223 10.5001 8.01396 10.5411 8.07887 10.589C8.21209 10.6813 8.32994 10.789 8.43242 10.907C8.63738 11.1429 8.80134 11.4045 8.93456 11.6609C9.07291 11.9173 9.17538 12.1687 9.25224 12.3892C9.33422 12.6251 9.38546 12.8354 9.4162 12.9893C9.44182 13.1431 9.45207 13.2406 9.45207 13.2508Z" fill="#D62C2B"/>
<path d="M7.85007 9.54675C7.86031 9.557 7.86544 9.55698 7.87568 9.5775C7.91155 9.63392 7.93717 9.72113 7.91668 9.80319C7.89106 9.88525 7.81932 9.9519 7.66048 9.98781C7.65536 9.98781 7.62974 9.99294 7.61949 9.98781C7.60924 9.98268 7.53751 9.94165 7.41967 9.89036C7.29669 9.83395 7.12248 9.76729 6.92265 9.72625C6.79456 9.70574 6.63572 9.69548 6.48712 9.72112C6.34365 9.74164 6.21555 9.80319 6.1387 9.85448C6.04647 9.91602 5.97986 9.9827 5.93374 10.034C5.88763 10.0801 5.86713 10.1109 5.86713 10.1109C5.86713 10.1109 5.75441 10.2289 5.64168 10.4289C5.52383 10.6289 5.41622 10.9213 5.34961 11.1674C5.29837 11.3829 5.27275 11.5265 5.24714 11.6085C5.22152 11.6906 5.20103 11.7162 5.17541 11.6906C5.12417 11.6496 5.07293 11.4136 5.08317 11.1162C5.07293 11.1469 5.08318 10.7982 5.19078 10.4392C5.2369 10.2648 5.31376 10.0853 5.38549 9.96216C5.45722 9.83394 5.52383 9.7519 5.52383 9.7519C5.52383 9.7519 5.54944 9.71598 5.60581 9.65956C5.66217 9.60315 5.74416 9.5211 5.86713 9.43903C5.97985 9.36723 6.17456 9.26978 6.39489 9.23388C6.61522 9.19285 6.84579 9.20824 7.00976 9.23901C7.2762 9.2903 7.47602 9.37235 7.61949 9.4339C7.76296 9.50058 7.83982 9.54675 7.85007 9.54675Z" fill="#D62C2B"/>
<path d="M7.9602 9.63798C7.9602 9.64311 7.9602 9.64825 7.94995 9.65338C7.91408 9.68415 7.85259 9.72003 7.77573 9.73542C7.69375 9.74568 7.5964 9.7303 7.48367 9.68927C7.48367 9.68927 7.46831 9.68415 7.46318 9.67902C7.46318 9.67389 7.46318 9.56619 7.40682 9.42258C7.35558 9.27897 7.23772 9.10458 7.06863 8.97636C6.89955 8.84814 6.6946 8.76607 6.53576 8.73529C6.37692 8.69939 6.26419 8.69941 6.26419 8.69941C6.26419 8.69941 6.19758 8.68401 6.10023 8.66863C5.99775 8.65324 5.87477 8.64812 5.76205 8.64812C5.66469 8.65325 5.60321 8.65325 5.55709 8.64812C5.5161 8.64299 5.49049 8.62247 5.49049 8.59683C5.48537 8.54554 5.5571 8.45321 5.68007 8.38141C5.6647 8.38141 5.80817 8.30448 5.97213 8.26345C6.13609 8.21729 6.31543 8.20703 6.31543 8.20703C6.31543 8.20703 6.4589 8.20703 6.66898 8.25832C6.87394 8.30448 7.15062 8.41219 7.3812 8.5917C7.49904 8.68401 7.60665 8.79173 7.68863 8.90456C7.77061 9.02252 7.8321 9.14048 7.87309 9.25331C7.95507 9.46872 7.95507 9.63285 7.9602 9.63798Z" fill="#D62C2B"/>
<path d="M10.2317 9.28156C10.2369 9.29182 10.2369 9.29693 10.2266 9.31745C10.2061 9.38412 10.1549 9.46618 10.078 9.49696C10.0012 9.53286 9.89868 9.51236 9.77571 9.41491C9.77059 9.41491 9.75009 9.3944 9.74496 9.38927C9.74496 9.37901 9.7296 9.30208 9.68861 9.18412C9.65274 9.06615 9.58101 8.90202 9.45803 8.73789C9.37093 8.62506 9.25308 8.5071 9.10961 8.40452C8.96102 8.29681 8.7868 8.20962 8.60747 8.14294C8.42301 8.07114 8.23342 8.01987 8.06433 7.97883C7.89524 7.94293 7.74153 7.92754 7.61856 7.91728C7.36236 7.90702 7.20865 7.93265 7.20865 7.93265C7.20865 7.93265 7.03956 7.93265 6.80898 7.98394C6.69626 8.00959 6.56816 8.05063 6.44007 8.10192C6.31197 8.15321 6.18387 8.21475 6.06602 8.27116C5.86619 8.36861 5.72785 8.43529 5.64075 8.45581C5.55364 8.47632 5.52289 8.46094 5.53314 8.43016C5.53827 8.39939 5.58438 8.3481 5.65611 8.2763C5.72272 8.20962 5.82008 8.12244 5.92768 8.03012C5.91231 8.03525 5.9738 7.98908 6.07628 7.91214C6.17876 7.83521 6.33247 7.73777 6.49643 7.66084C6.6604 7.57877 6.84486 7.5121 6.9832 7.48133C7.12155 7.44542 7.21889 7.43517 7.21889 7.43004C7.21377 7.43517 7.38286 7.40952 7.6493 7.4249C7.78765 7.43003 7.96186 7.45056 8.15656 7.49159C8.35127 7.53262 8.55622 7.59417 8.77143 7.6711C8.98151 7.75316 9.19671 7.86086 9.38629 7.99421C9.57588 8.12756 9.73984 8.28657 9.85257 8.44043C10.0165 8.65584 10.1088 8.87125 10.16 9.02512C10.2112 9.17898 10.2266 9.2713 10.2317 9.28156Z" fill="#D62C2B"/>
<path d="M9.46155 10.1571C9.46667 10.1622 9.46667 10.1673 9.46155 10.1776C9.42055 10.2494 9.3027 10.4084 9.05675 10.4084C9.05163 10.4084 9.03626 10.4032 9.03113 10.4032C9.02601 10.393 8.95427 10.2699 8.86204 10.0801C8.76981 9.89548 8.66222 9.6493 8.53925 9.42364C8.4214 9.19797 8.28817 8.99279 8.17032 8.86457C8.05247 8.73122 7.96024 8.66968 7.96536 8.66968C7.96024 8.66968 7.91413 8.61327 7.83727 8.5466C7.76041 8.47479 7.65281 8.39272 7.55545 8.32604C7.46835 8.27475 7.41199 8.23886 7.37612 8.20809C7.34538 8.17731 7.34025 8.15166 7.3505 8.12602C7.38124 8.08499 7.49397 8.05423 7.63744 8.06449C7.62719 8.05936 7.79628 8.07474 7.96025 8.13629C8.13446 8.19271 8.28817 8.29529 8.28817 8.29529C8.28817 8.29529 8.41115 8.38761 8.55974 8.55173C8.70833 8.72098 8.86205 8.96202 8.98502 9.20308C9.11312 9.44926 9.22584 9.69032 9.31295 9.8647C9.39493 10.0391 9.46155 10.1519 9.46155 10.1571Z" fill="#D62C2B"/>
<path d="M10.8896 10.4999C10.8896 10.505 10.8844 10.5101 10.8691 10.5153C10.8229 10.5358 10.7512 10.5717 10.6692 10.5819C10.6282 10.5819 10.5821 10.5768 10.5411 10.546C10.5001 10.5153 10.454 10.4588 10.4335 10.3614C10.4284 10.3563 10.4284 10.3204 10.4335 10.305C10.4387 10.2998 10.4745 10.187 10.5924 10.0434C10.7102 9.89466 10.9152 9.7408 11.1662 9.63822C11.4378 9.53052 11.7606 9.46897 12.0988 9.45871C12.4421 9.44846 12.7956 9.48436 13.1441 9.58694C13.3131 9.63822 13.4822 9.70491 13.6411 9.80749C13.7231 9.85878 13.7999 9.91518 13.8665 9.99211C13.9331 10.0537 13.9895 10.1306 14.0356 10.2075C14.133 10.3614 14.1842 10.5358 14.1996 10.6896C14.2201 10.8435 14.2098 10.9871 14.1893 11.1051C14.1586 11.2692 14.1176 11.3872 14.0868 11.4744C14.051 11.5564 14.0305 11.5975 14.0305 11.5975C14.0305 11.5975 13.9383 11.7872 13.7743 12.0026C13.6155 12.218 13.3798 12.4591 13.1697 12.6335C12.9955 12.7873 12.8674 12.8643 12.7905 12.9053C12.7085 12.9412 12.6727 12.9361 12.6778 12.9053C12.6778 12.8386 12.8213 12.654 12.9801 12.4334C12.9545 12.454 13.1646 12.1975 13.3285 11.9206C13.4156 11.7821 13.4874 11.6385 13.5335 11.5257C13.5796 11.418 13.6052 11.3461 13.6052 11.3461C13.6001 11.3461 13.6616 11.223 13.7026 11.0179C13.7282 10.8589 13.7282 10.6589 13.6206 10.4794C13.595 10.4281 13.5642 10.387 13.5181 10.3409C13.4839 10.3033 13.4412 10.2674 13.39 10.2332C13.2875 10.1665 13.1543 10.1101 13.016 10.0639C12.7341 9.98187 12.4216 9.94596 12.1295 9.95109C11.8323 9.96135 11.5608 10.0178 11.3558 10.0998C11.1662 10.1768 11.0381 10.2793 10.9767 10.3563C10.91 10.4383 10.8947 10.4948 10.8896 10.4999Z" fill="#D62C2B"/>
<path d="M10.5024 11.9334C10.4922 11.9386 10.4922 11.9437 10.4717 11.9488C10.4153 11.9642 10.3282 11.9796 10.2514 11.9539C10.1745 11.9232 10.1028 11.8514 10.0977 11.6719C10.0977 11.6667 10.1028 11.636 10.1079 11.6257C10.1233 11.6103 10.3334 11.3231 10.7279 11C10.9431 10.8307 11.2454 10.6204 11.599 10.5025C11.7732 10.4409 11.9627 10.4102 12.137 10.4102C12.3112 10.4102 12.4751 10.4461 12.593 10.4922C12.6852 10.523 12.7672 10.5743 12.8287 10.6307C12.8902 10.682 12.9363 10.7384 12.967 10.7846C13.0336 10.8769 13.049 10.9333 13.0541 10.9282C13.049 10.9282 13.0746 10.9897 13.0951 11.0872C13.1207 11.1846 13.131 11.3128 13.1259 11.4564C13.1156 11.7437 13.0285 12.0668 12.9414 12.3232C12.8697 12.5386 12.8082 12.6771 12.7672 12.7541C12.7211 12.831 12.6955 12.8464 12.675 12.8156C12.634 12.7592 12.6493 12.5232 12.675 12.2514C12.6596 12.2771 12.716 11.9488 12.7057 11.6359C12.7057 11.477 12.6801 11.3282 12.6493 11.2308C12.6135 11.1385 12.5827 11.0974 12.5827 11.0974C12.5827 11.0974 12.5725 11.0718 12.5469 11.0461C12.5213 11.0154 12.4905 10.9795 12.4188 10.9538C12.347 10.9282 12.2548 10.9077 12.1421 10.9077C12.0294 10.9025 11.9013 10.923 11.768 10.9692C11.4965 11.0564 11.2249 11.2359 11.0405 11.3898C10.8662 11.5283 10.733 11.6616 10.6459 11.7642C10.5537 11.8616 10.5076 11.9232 10.5024 11.9334Z" fill="#D62C2B"/>
<path d="M10.3422 13.6441C10.3371 13.6543 10.3371 13.6595 10.3217 13.6697C10.2808 13.7107 10.209 13.7569 10.127 13.7672C10.0451 13.7774 9.94258 13.7415 9.86573 13.5774C9.86573 13.5723 9.85547 13.5466 9.85547 13.5312C9.86059 13.5261 9.88109 13.4287 9.93233 13.2748C9.98869 13.126 10.0809 12.9158 10.2295 12.7004C10.2756 12.6286 10.3474 12.5362 10.4191 12.449C10.4908 12.367 10.5677 12.29 10.6138 12.2439C10.8341 12.0285 10.993 11.9259 10.993 11.9208C10.993 11.9259 11.1621 11.8079 11.408 11.7002C11.6591 11.5874 11.9819 11.4848 12.2586 11.454C12.4891 11.4181 12.6429 11.4284 12.73 11.4438C12.8171 11.4592 12.8427 11.4848 12.8222 11.5105C12.7761 11.5618 12.5609 11.6233 12.3149 11.7208C12.3405 11.7208 12.0382 11.8233 11.7616 11.9874C11.6232 12.0644 11.49 12.1567 11.3926 12.2336C11.2953 12.3054 11.2389 12.3567 11.2389 12.3567C11.2389 12.3619 11.1211 12.4388 10.9622 12.5978C10.9212 12.6337 10.8598 12.7004 10.7983 12.7722C10.7368 12.844 10.6804 12.9209 10.6394 12.9825C10.3935 13.3363 10.3474 13.6338 10.3422 13.6441Z" fill="#D62C2B"/>
<path d="M13.3556 10.0161C13.3505 10.0161 13.3505 10.0161 13.3402 10.0059C13.289 9.94434 13.1968 9.7751 13.2685 9.54943C13.2685 9.5443 13.2736 9.52891 13.2787 9.52378C13.2839 9.52378 13.4017 9.50325 13.5811 9.48274C13.7604 9.46222 14.0063 9.43657 14.2574 9.45196C14.5085 9.46222 14.7647 9.51864 14.944 9.59045C15.1233 9.65712 15.2361 9.7238 15.2361 9.7238C15.2361 9.7238 15.3027 9.77509 15.3795 9.85202C15.4615 9.93409 15.5486 10.0418 15.605 10.1392C15.7075 10.2982 15.7023 10.3752 15.6562 10.3957C15.6101 10.4213 15.5179 10.3854 15.4205 10.3444C15.4256 10.3547 15.3129 10.288 15.2002 10.2367C15.0875 10.1854 14.9747 10.1444 14.9747 10.1444C14.9747 10.1444 14.8876 10.0931 14.7544 10.0469C14.6161 9.99562 14.4265 9.95459 14.2215 9.94433C14.0166 9.93408 13.8014 9.9546 13.6374 9.97511C13.4734 9.99563 13.3607 10.0161 13.3556 10.0161Z" fill="#D62C2B"/>
<path d="M14.1995 10.7964C14.1995 10.7964 14.1995 10.7964 14.1893 10.7913C14.1534 10.7708 14.1022 10.74 14.0407 10.6836C13.9792 10.6323 13.9126 10.5554 13.8665 10.4528C13.8665 10.4476 13.8613 10.4374 13.8613 10.4323C13.8665 10.4271 13.9331 10.3656 14.0458 10.2887C14.1585 10.2169 14.3225 10.1451 14.4864 10.1092C14.6504 10.0733 14.8092 10.063 14.922 10.0579C15.0398 10.0527 15.1115 10.0527 15.1115 10.0527C15.1115 10.0527 15.3011 10.1092 15.4292 10.1861C15.6444 10.2938 15.5573 10.4066 15.419 10.463C15.4241 10.4682 15.3421 10.4887 15.2601 10.5092L15.0962 10.5502C15.0962 10.5502 14.8195 10.54 14.594 10.5913C14.4762 10.622 14.3788 10.6631 14.3122 10.7092C14.2405 10.7554 14.2046 10.7964 14.1995 10.7964Z" fill="#D62C2B"/>
<path d="M10.7894 9.58777C10.7894 9.5929 10.7894 9.59291 10.774 9.59804C10.7023 9.62368 10.5178 9.64932 10.3129 9.54162L10.2975 9.53135C10.2975 9.52109 10.3436 9.17746 10.3231 8.84409C10.3077 8.51071 10.2155 8.19274 10.2155 8.19274C10.2155 8.19274 10.2052 7.97218 10.2155 7.79267C10.2155 7.64906 10.2462 7.58751 10.2975 7.58238C10.3487 7.57726 10.4153 7.62856 10.4717 7.70036C10.4768 7.69011 10.5332 7.78242 10.5895 7.87987C10.6459 7.97219 10.6971 8.07989 10.6971 8.07989C10.6971 8.07989 10.7228 8.16708 10.7535 8.31069C10.7791 8.44917 10.8099 8.63894 10.8201 8.82871C10.8406 9.20825 10.7894 9.57751 10.7894 9.58777Z" fill="#D62C2B"/>
<path d="M11.0691 9.07798C11.0691 9.08311 11.0691 9.08312 11.0537 9.08825C10.9768 9.10877 10.7821 9.11389 10.613 8.94976C10.6079 8.94463 10.5977 8.93438 10.5977 8.92925C10.6028 8.91899 10.7411 8.47791 10.8334 8.0317C10.9358 7.58549 10.9922 7.13415 10.9922 7.13415C10.9922 7.13415 11.0793 6.84694 11.1715 6.64691C11.2381 6.47253 11.2894 6.42124 11.3406 6.44176C11.3867 6.46227 11.4226 6.55972 11.4431 6.67256C11.4482 6.6623 11.4636 6.80076 11.4687 6.93924C11.479 7.08285 11.479 7.22646 11.479 7.22646C11.479 7.22646 11.4175 7.68806 11.315 8.14966C11.2176 8.61125 11.0742 9.06773 11.0691 9.07798Z" fill="#D62C2B"/>
<path d="M10.7747 9.65982C10.7696 9.65982 10.7696 9.65982 10.7542 9.65982C10.6773 9.6393 10.5031 9.56238 10.4211 9.33671C10.416 9.33158 10.416 9.31619 10.416 9.31107C10.4263 9.30081 10.7542 8.96744 11.0924 8.64945C11.4254 8.33146 11.7431 8.01345 11.7431 8.01345C11.7431 8.01345 11.989 7.84421 12.1838 7.74163C12.4963 7.55186 12.4861 7.72625 12.3784 7.93141C12.3887 7.92628 12.317 8.04424 12.2401 8.15707C12.1581 8.26991 12.0761 8.38274 12.0761 8.38274C12.0761 8.38274 11.7533 8.70585 11.4254 9.01358C11.0975 9.32644 10.7798 9.64956 10.7747 9.65982Z" fill="#D62C2B"/>
<path d="M10.6014 9.91101C10.5963 9.91101 10.5963 9.911 10.5861 9.90587C10.5451 9.89562 10.4836 9.86997 10.417 9.82381C10.3555 9.77765 10.2838 9.70072 10.2581 9.57763C10.2581 9.57763 10.253 9.55712 10.2581 9.55199C10.2633 9.54686 10.376 9.43402 10.5604 9.31606C10.7449 9.19809 10.996 9.08011 11.2522 8.99292C11.5084 8.9006 11.7646 8.83906 11.9541 8.7929C12.1437 8.74674 12.2667 8.7211 12.2667 8.7211C12.2667 8.71597 12.6049 8.69545 12.8457 8.71597C13.0455 8.72623 13.1173 8.75699 13.1121 8.81341C13.1019 8.8647 13.0148 8.9314 12.9021 8.98781C12.9277 8.99294 12.3436 9.20834 12.3487 9.20834C12.3487 9.20834 12.2257 9.23398 12.0464 9.28014C11.867 9.32117 11.6313 9.38273 11.4008 9.46479C11.1753 9.54172 10.9652 9.64429 10.8218 9.73661C10.6834 9.82893 10.6066 9.90588 10.6014 9.91101Z" fill="#D62C2B"/>
<path d="M9.19355 16.5972C9.19867 16.6075 9.2038 16.6075 9.2038 16.6229C9.21405 16.6742 9.20892 16.7408 9.17306 16.787C9.13719 16.8331 9.06545 16.8588 8.95273 16.8434C8.9476 16.8434 8.93223 16.8383 8.92711 16.8332C8.91686 16.828 8.78364 16.6536 8.5172 16.4895C8.3891 16.4075 8.20977 16.3151 8.02018 16.2639C7.83573 16.2023 7.64614 16.1766 7.52317 16.1715C7.33871 16.1561 7.22086 16.1715 7.22086 16.1715C7.22086 16.1715 7.09788 16.1664 6.9288 16.1869C6.75459 16.2023 6.5445 16.2536 6.37542 16.3203C6.23195 16.3818 6.13972 16.428 6.08336 16.4536C6.027 16.4741 6.00138 16.4741 6.0065 16.4485C6.0065 16.4023 6.11411 16.2638 6.29344 16.1459C6.26782 16.151 6.48302 16.0074 6.73409 15.9253C6.98003 15.8382 7.24647 15.8125 7.24647 15.8125C7.24647 15.8176 7.35921 15.8074 7.54879 15.8176C7.68201 15.8279 7.89721 15.8535 8.11753 15.9202C8.33274 15.9869 8.55306 16.0895 8.70678 16.1869C9.01934 16.3818 9.1833 16.5921 9.19355 16.5972Z" fill="#038867"/>
<path d="M9.45043 16.5265C9.45555 16.5214 9.45556 16.5214 9.47093 16.5214C9.5068 16.5266 9.56828 16.5419 9.6144 16.5727C9.64002 16.5932 9.66051 16.6189 9.67075 16.6548C9.681 16.6907 9.67588 16.7368 9.65026 16.8035C9.65026 16.8035 9.64001 16.824 9.62976 16.8292C9.62464 16.8343 9.55803 16.8753 9.45043 16.9163C9.3377 16.9625 9.17887 16.9984 8.99441 17.0189C8.83044 17.0343 8.61524 17.0343 8.41029 17.0138C8.21046 16.9984 8.01575 16.9625 7.89277 16.942C7.68782 16.9009 7.56485 16.865 7.56485 16.865C7.56485 16.865 7.43163 16.824 7.25742 16.7573C7.08321 16.6907 6.868 16.5932 6.70404 16.4958C6.41198 16.3419 6.35049 16.2496 6.3966 16.2393C6.44272 16.2239 6.59643 16.2701 6.78601 16.3214C6.76552 16.3111 6.99097 16.3829 7.22154 16.4342C7.45212 16.4958 7.69295 16.5368 7.69295 16.5368C7.69295 16.5317 7.79542 16.5624 7.95939 16.5932C8.07211 16.6137 8.25145 16.6445 8.43591 16.6599C8.62549 16.6804 8.82019 16.6804 8.96366 16.665C9.11737 16.6496 9.24035 16.6189 9.32233 16.5881C9.40431 16.5573 9.4453 16.5265 9.45043 16.5265Z" fill="#038867"/>
<path d="M10.2107 17.1749C10.2158 17.1851 10.2158 17.1851 10.2107 17.2005C10.1902 17.2415 10.1595 17.2929 10.1031 17.3236C10.0519 17.3493 9.98012 17.3493 9.88277 17.2672C9.88277 17.2672 9.86739 17.2518 9.86739 17.2416C9.86227 17.2364 9.85203 17.1749 9.83666 17.0672C9.82129 16.9595 9.80078 16.8056 9.80078 16.621C9.80591 16.4415 9.82641 16.2312 9.89814 16.0106C9.96475 15.7952 10.0826 15.5798 10.2363 15.4003C10.3132 15.3131 10.3952 15.231 10.4823 15.1644C10.5642 15.096 10.6445 15.0327 10.7231 14.9746C10.8819 14.8618 11.0305 14.7694 11.1535 14.6976C11.3328 14.5951 11.4558 14.5438 11.4558 14.5386C11.4558 14.5438 11.589 14.4874 11.7735 14.4361C11.9579 14.3899 12.2039 14.354 12.4088 14.3796C12.5779 14.3899 12.6804 14.4309 12.7368 14.4617C12.7931 14.4925 12.8034 14.5181 12.7829 14.5284C12.7419 14.554 12.583 14.5438 12.4037 14.5746C12.414 14.5746 12.3627 14.5797 12.2807 14.6002C12.2039 14.6156 12.0912 14.6412 11.9836 14.6823C11.7684 14.7592 11.5634 14.8823 11.5634 14.8823C11.5634 14.8823 11.4712 14.9233 11.3277 15.0054C11.2201 15.0669 11.0869 15.149 10.9434 15.2567C10.8683 15.308 10.7931 15.3644 10.718 15.4259C10.6462 15.4875 10.5745 15.5542 10.513 15.626C10.39 15.7696 10.2927 15.9388 10.2363 16.1132C10.1799 16.2927 10.1595 16.4722 10.1595 16.6261C10.1543 16.7851 10.1697 16.9184 10.1851 17.0159C10.2004 17.1133 10.2107 17.1697 10.2107 17.1749Z" fill="#038867"/>
<path d="M10.3749 17.1909C10.3647 17.1961 10.3595 17.2012 10.3442 17.2012C10.2929 17.2012 10.2212 17.1858 10.1853 17.1396C10.1444 17.0935 10.1444 17.0217 10.17 16.9191C10.17 16.914 10.1802 16.8986 10.1853 16.8935C10.1853 16.8883 10.2315 16.8627 10.3032 16.8063C10.3698 16.7447 10.4672 16.6524 10.5748 16.5293C10.6772 16.4165 10.8258 16.2113 10.8976 16.1088C11.0103 15.9446 11.0718 15.842 11.0718 15.842C11.0718 15.842 11.1538 15.7343 11.2562 15.5907C11.3587 15.442 11.4817 15.2522 11.579 15.0932C11.743 14.8214 11.784 14.7342 11.8147 14.7753C11.8404 14.8163 11.8199 14.9907 11.7532 15.1856C11.7686 15.165 11.6815 15.3958 11.579 15.6215C11.4714 15.8472 11.3485 16.0677 11.3485 16.0677C11.3485 16.0677 11.2921 16.1652 11.1896 16.3088C11.1179 16.4114 10.9539 16.6319 10.8412 16.7601C10.7285 16.8986 10.6157 17.0063 10.5286 17.0781C10.4415 17.1499 10.3801 17.1909 10.3749 17.1909Z" fill="#038867"/>
<path d="M10.6881 18.4699C10.6829 18.4802 10.6829 18.4802 10.6676 18.4853C10.5805 18.5161 10.4114 18.5212 10.4062 18.2802C10.4062 18.275 10.4063 18.2596 10.4114 18.2494L10.519 18.1161C10.5856 18.034 10.6829 17.916 10.8213 17.7878C10.8879 17.7262 10.975 17.6544 11.0826 17.5878C11.1902 17.5262 11.3183 17.4698 11.4618 17.4544C11.6001 17.4339 11.7436 17.4595 11.8563 17.5057C11.969 17.5467 12.0561 17.6032 12.1176 17.6493C12.2099 17.716 12.2765 17.7775 12.3226 17.8186C12.3687 17.8596 12.3892 17.8853 12.3892 17.8853C12.3892 17.8853 12.4865 17.9929 12.589 18.1468C12.6966 18.3058 12.8145 18.5058 12.9067 18.67C13.0655 18.9521 13.1065 19.0393 13.0553 19.0393C13.0092 19.0393 12.876 18.9264 12.7427 18.7777C12.7479 18.7982 12.5942 18.6135 12.4404 18.434C12.3585 18.3468 12.2765 18.2596 12.215 18.1981C12.1484 18.1366 12.1074 18.1007 12.1074 18.1007C12.1074 18.1007 12.0356 18.0289 11.9127 17.9365C11.8204 17.8699 11.6667 17.7827 11.5079 17.8032C11.349 17.8186 11.1748 17.9417 11.0621 18.0494C10.9494 18.1571 10.8572 18.2648 10.7957 18.3417L10.6881 18.4699Z" fill="#038867"/>
<path d="M10.2278 18.9712C10.2329 18.9764 10.238 18.9815 10.2329 18.9969C10.238 19.0482 10.2175 19.12 10.1714 19.1559C10.1202 19.1918 10.0484 19.1918 9.94594 19.161C9.94082 19.161 9.92545 19.1507 9.92032 19.1456C9.92032 19.1456 9.89983 19.0995 9.84347 19.0379C9.7871 18.9712 9.69488 18.8892 9.56678 18.8174C9.46943 18.7609 9.33108 18.7045 9.19274 18.6686C9.04927 18.6276 8.91092 18.6019 8.81869 18.5866C8.62911 18.5609 8.50614 18.5609 8.50614 18.5609C8.50614 18.5609 8.37804 18.5455 8.20383 18.5353C8.02961 18.525 7.80417 18.525 7.61971 18.5353C7.46087 18.5455 7.35839 18.5609 7.2969 18.5609C7.23542 18.566 7.21493 18.5558 7.22517 18.5301C7.24054 18.4891 7.39426 18.3968 7.59409 18.3404C7.56847 18.3404 7.8093 18.2737 8.06037 18.2429C8.31144 18.207 8.57275 18.207 8.57275 18.207C8.57275 18.2122 8.68035 18.2122 8.86481 18.2378C8.96217 18.2532 9.121 18.2788 9.28497 18.325C9.44381 18.3711 9.6129 18.4378 9.73587 18.5045C9.90496 18.5968 10.0331 18.7097 10.1099 18.802C10.1919 18.8943 10.2226 18.961 10.2278 18.9712Z" fill="#038867"/>
<path d="M9.59324 18.7826C9.60348 18.7826 9.60861 18.7826 9.61886 18.7929C9.69571 18.8391 9.81356 18.9621 9.6291 19.1211C9.6291 19.1263 9.61373 19.1365 9.60348 19.1365C9.59323 19.1365 9.35241 19.1468 9.00399 19.1314H8.99888C8.79392 19.1211 8.66582 19.1058 8.66582 19.1058C8.66582 19.1058 8.52748 19.0852 8.34302 19.0391C8.15856 18.9929 7.92798 18.916 7.75377 18.8185C7.60518 18.7365 7.5232 18.6544 7.48733 18.6031C7.45147 18.5518 7.45146 18.5262 7.47707 18.5262C7.49757 18.5211 7.54368 18.5416 7.60517 18.5621C7.66666 18.5877 7.74864 18.6134 7.84087 18.639C7.83063 18.6339 7.88187 18.6493 7.95873 18.6698C8.04071 18.6903 8.15343 18.7108 8.27127 18.7262C8.50185 18.757 8.74268 18.757 8.74268 18.757C8.74268 18.757 8.84515 18.7673 9.01424 18.7775H9.01937C9.35242 18.7929 9.58299 18.7826 9.59324 18.7826Z" fill="#038867"/>
<path d="M11.4953 20.9805C11.5004 20.9856 11.5004 20.9907 11.4953 21.0061C11.4901 21.0523 11.4645 21.1138 11.4133 21.1446C11.362 21.1805 11.2903 21.1805 11.1878 21.1241C11.1827 21.1241 11.1725 21.1138 11.1673 21.1087C11.1622 21.0933 11.0853 20.8881 10.9265 20.5907C10.7933 20.324 10.6293 20.0316 10.4756 19.6983C10.438 19.6162 10.4039 19.529 10.3731 19.4367C10.3373 19.3444 10.3117 19.2572 10.2809 19.17C10.2297 18.9853 10.1784 18.8007 10.1323 18.6161C10.0401 18.2417 9.9581 17.8621 9.871 17.4928C9.77877 17.1236 9.69678 16.7491 9.61992 16.4004C9.54819 16.0465 9.48158 15.7183 9.41496 15.4208C9.38081 15.2703 9.34836 15.1301 9.31762 15.0002L9.27149 14.8104L9.24076 14.6822C9.19464 14.5027 9.15878 14.395 9.1639 14.395C9.1639 14.395 9.05117 13.877 8.96406 13.5077C8.88208 13.2 8.87184 13.0974 8.91795 13.1128C8.96407 13.1282 9.0563 13.2667 9.14853 13.4513C9.1434 13.4308 9.251 13.6462 9.33811 13.877C9.43034 14.1078 9.51233 14.3437 9.51233 14.3437L9.53282 14.4207L9.5943 14.6463C9.71215 15.0874 9.84025 15.708 9.98372 16.3953C10.0179 16.5662 10.0555 16.7406 10.0964 16.9184C10.1374 17.0928 10.1835 17.2723 10.2245 17.4569C10.3116 17.8262 10.3936 18.2006 10.4807 18.5596C10.5251 18.7374 10.5747 18.9118 10.6293 19.0828C10.6549 19.17 10.6806 19.252 10.7113 19.3341C10.7386 19.4127 10.7694 19.4897 10.8035 19.5649C10.9419 19.8726 11.1058 20.1598 11.2442 20.4265C11.403 20.7343 11.4953 20.9651 11.4953 20.9805Z" fill="#038867"/>
<path d="M9.82573 15.6229C9.82573 15.6332 9.82061 15.6383 9.81036 15.6434C9.74375 15.7101 9.59003 15.7819 9.48755 15.5665C9.48755 15.5614 9.48242 15.546 9.48242 15.5357L9.62589 14.9664L9.70275 14.6741C9.75911 14.4741 9.79498 14.3509 9.79498 14.3509C9.79498 14.3561 9.97944 13.8329 10.1998 13.5047C10.2869 13.3611 10.3689 13.279 10.4201 13.2431C10.4765 13.2072 10.5021 13.2123 10.5021 13.2329C10.5021 13.2585 10.4816 13.3047 10.4611 13.3662C10.4355 13.4278 10.4047 13.5098 10.3689 13.6022C10.3842 13.5816 10.2971 13.797 10.2356 14.0278C10.1742 14.2586 10.1229 14.4997 10.1229 14.4997C10.1229 14.4997 10.0922 14.5971 10.046 14.7664L9.96919 15.0536L9.82573 15.6229Z" fill="#038867"/>
<path d="M8.89984 16.1596C8.90496 16.1698 8.90495 16.1698 8.90495 16.1852C8.90495 16.2775 8.85884 16.4417 8.62827 16.3647C8.62314 16.3647 8.60777 16.3596 8.60265 16.3493L8.28497 15.8518L8.121 15.5903C8.01852 15.4159 7.95192 15.303 7.95192 15.303C7.95192 15.303 7.89043 15.18 7.81869 15.0107C7.74696 14.8363 7.66498 14.6158 7.61887 14.426C7.57275 14.267 7.5625 14.1593 7.5625 14.0978C7.5625 14.0362 7.57275 14.0157 7.59325 14.026C7.63936 14.0516 7.71109 14.1952 7.80332 14.3645C7.7982 14.344 7.90068 14.5542 8.02365 14.7594C8.14662 14.9645 8.28497 15.1697 8.27984 15.1697C8.28497 15.1697 8.33621 15.2569 8.42331 15.4056L8.58727 15.6672L8.89984 16.1596Z" fill="#038867"/>
<path d="M10.5469 18.597C10.5417 18.5919 10.5366 18.5919 10.5315 18.5765C10.511 18.5303 10.4956 18.4586 10.5212 18.4073C10.552 18.3508 10.6135 18.3201 10.7211 18.3047C10.7262 18.3047 10.7467 18.3047 10.7518 18.3047C10.7569 18.3098 10.9158 18.438 11.2283 18.4996C11.2744 18.5098 11.3513 18.5252 11.3872 18.5304C11.5767 18.556 11.6997 18.556 11.6997 18.556C11.6997 18.556 11.8278 18.5714 12.0072 18.5868C12.0994 18.597 12.207 18.6073 12.3146 18.6278C12.4273 18.6483 12.5349 18.6842 12.6271 18.7304C12.786 18.8022 12.8628 18.874 12.909 18.9202C12.9551 18.9612 12.9602 18.9868 12.9346 18.9919C12.8885 19.0125 12.7347 18.9509 12.5554 18.9099C12.5657 18.915 12.5144 18.9048 12.4376 18.8945C12.3607 18.8842 12.248 18.8842 12.1301 18.8894C12.0174 18.8945 11.8893 18.9048 11.792 18.9048C11.6997 18.9099 11.6331 18.9099 11.6331 18.9099C11.6331 18.9099 11.5255 18.9048 11.3411 18.8791C11.3001 18.874 11.2078 18.8586 11.1515 18.8484C10.9721 18.8124 10.8184 18.7509 10.7159 18.6996C10.6135 18.6432 10.552 18.6022 10.5469 18.597Z" fill="#038867"/>
<defs>
<filter id="filter0_i_1690_47396" x="0" y="-0.371094" width="20.4023" height="27.7422" filterUnits="userSpaceOnUse" color-interpolation-filters="sRGB">
<feFlood flood-opacity="0" result="BackgroundImageFix"/>
<feBlend mode="normal" in="SourceGraphic" in2="BackgroundImageFix" result="shape"/>
<feColorMatrix in="SourceAlpha" type="matrix" values="0 0 0 0 0 0 0 0 0 0 0 0 0 0 0 0 0 0 127 0" result="hardAlpha"/>
<feOffset dy="-1"/>
<feGaussianBlur stdDeviation="1"/>
<feComposite in2="hardAlpha" operator="arithmetic" k2="-1" k3="1"/>
<feColorMatrix type="matrix" values="0 0 0 0 0 0 0 0 0 0 0 0 0 0 0 0 0 0 0.76 0"/>
<feBlend mode="normal" in2="shape" result="effect1_innerShadow_1690_47396"/>
</filter>
</defs>
</svg>
